<svg width="42" height="42" viewBox="0 0 42 42" fill="none" xmlns="http://www.w3.org/2000/svg">
<g filter="url(#filter0_d_1131_9493)">
<rect x="2.5" y="0.5" width="37" height="37" rx="18.5" stroke="#ECEBF2"/>
<g clip-path="url(#clip0_1131_9493)">
<path fill-rule="evenodd" clip-rule="evenodd" d="M18.6453 19.001H16.7813C16.6648 19.001 16.5703 18.9065 16.5703 18.79V16.5431C16.5703 16.4266 16.6648 16.332 16.7813 16.332H18.6453C18.7617 16.332 18.8563 16.4265 18.8563 16.5431V18.7899C18.8562 18.9065 18.7617 19.001 18.6453 19.001Z" fill="#3271BD"/>
<path fill-rule="evenodd" clip-rule="evenodd" d="M15.0991 23.4295L17.9906 25.8298C18.9058 26.5895 20.1776 26.7519 21.2542 26.2466L31.648 21.3681C32.5115 20.9628 32.377 19.6952 31.4478 19.4799L31.3378 19.4545C31.3341 19.4703 31.3291 19.486 31.3227 19.5014C31.2072 19.7782 31.0408 20.035 30.8289 20.2563C30.626 20.4682 30.3806 20.6473 30.0976 20.7802C29.5773 21.0244 29.0154 21.0707 28.4969 20.9498C27.9672 20.8262 27.4819 20.528 27.1315 20.0881C27.1167 20.0696 27.1045 20.0498 27.0948 20.0293L21.2859 22.7558C20.4566 23.1452 19.4817 23.0576 18.7349 22.5267L17.5915 21.7138C17.433 21.6012 17.2262 21.5826 17.0502 21.6652L15.2142 22.527C14.8568 22.6947 14.7953 23.1773 15.0991 23.4295ZM27.3005 21.0505L27.4294 21.3252C27.4991 21.4742 27.4348 21.6516 27.2857 21.7212C27.1367 21.7909 26.9593 21.7266 26.8896 21.5776L26.7607 21.3029C26.6911 21.1538 26.7554 20.9765 26.9045 20.9068C27.0535 20.8371 27.2309 20.9015 27.3005 21.0505ZM26.151 21.59L26.2798 21.8647C26.3495 22.0138 26.2852 22.1911 26.1362 22.2608C25.9871 22.3305 25.8098 22.2662 25.74 22.1171L25.6112 21.8424C25.5416 21.6934 25.6059 21.516 25.755 21.4464C25.904 21.3766 26.0813 21.4409 26.151 21.59ZM25.0014 22.1296L25.1303 22.4043C25.2 22.5534 25.1357 22.7307 24.9866 22.8004C24.8376 22.8701 24.6602 22.8058 24.5905 22.6567L24.4616 22.382C24.392 22.2329 24.4563 22.0556 24.6053 21.9859C24.7544 21.9162 24.9318 21.9805 25.0014 22.1296ZM23.8519 22.6692L23.9807 22.9438C24.0504 23.0928 23.9861 23.2702 23.837 23.3399C23.6879 23.4095 23.5106 23.3452 23.441 23.1961L23.3121 22.9215C23.2425 22.7724 23.3068 22.5951 23.4559 22.5253C23.6049 22.4558 23.7822 22.5201 23.8519 22.6692ZM22.7023 23.2087L22.8312 23.4834C22.9009 23.6325 22.8366 23.8098 22.6876 23.8795C22.5385 23.9492 22.3612 23.8849 22.2914 23.7358L22.1625 23.4611C22.0929 23.312 22.1572 23.1347 22.3062 23.065C22.4553 22.9953 22.6327 23.0597 22.7023 23.2087ZM21.5528 23.7483L21.6817 24.023C21.7514 24.172 21.6871 24.3494 21.5381 24.419C21.389 24.4887 21.2117 24.4244 21.1419 24.2753L21.013 24.0007C20.9433 23.8516 21.0076 23.6743 21.1567 23.6046C21.3058 23.5349 21.4831 23.5992 21.5528 23.7483ZM30.7512 19.3186C30.6649 19.5109 30.5464 19.6888 30.3989 19.8428C30.2442 20.0044 30.0583 20.1404 29.8453 20.2404C29.4519 20.425 29.0262 20.4598 28.6325 20.368C28.2535 20.2796 27.9048 20.0737 27.6443 19.7715L28.4048 19.4146C28.9958 19.1372 29.6627 19.0665 30.2987 19.2138L30.7512 19.3186Z" fill="#3271BD"/>
<path fill-rule="evenodd" clip-rule="evenodd" d="M21.3549 10.7181C21.3549 9.78684 20.5974 9.0293 19.6662 9.0293H15.757C14.8258 9.0293 14.0684 9.78691 14.0684 10.7181V12.2439L15.4241 12.2437V10.737C15.4241 10.5427 15.5817 10.3852 15.7759 10.3852H19.6472C19.8414 10.3852 19.999 10.5427 19.999 10.737L19.9991 12.2439H21.3549V10.7181Z" fill="#3271BD"/>
<path fill-rule="evenodd" clip-rule="evenodd" d="M25.6286 20.0204V13.3344L22.2059 17.8468L22.207 17.8477C22.1476 17.9261 22.057 17.9669 21.9657 17.966H19.4528V18.7903C19.4528 19.2369 19.0904 19.5995 18.6436 19.5995H16.7797C16.3331 19.5995 15.9705 19.237 15.9705 18.7903V17.966H13.6016L10.1763 22.4818C10.2081 22.4884 10.2411 22.4919 10.2749 22.4919H14.4349C14.5434 22.2799 14.7205 22.0982 14.9616 21.9851L16.7976 21.1233C17.1688 20.9491 17.6055 20.9883 17.9397 21.2259L19.083 22.0387C19.6537 22.4445 20.3995 22.5115 21.0334 22.2139L21.937 21.7898L19.9775 20.4754C19.3919 20.0827 19.504 19.2241 20.1254 18.9324L21.454 18.3088C21.71 18.1886 22.0092 18.1888 22.2622 18.3169L25.6286 20.0204ZM25.2472 12.852L21.8219 17.3679H19.4528V16.5435C19.4528 16.0969 19.0904 15.7343 18.6436 15.7343H16.7797C16.3331 15.7343 15.9705 16.0968 15.9705 16.5435V17.3679H13.6016L10.1763 12.852C10.2081 12.8453 10.2411 12.8418 10.2749 12.8418H14.0685H15.4243H19.9992H21.355H25.1486C25.1824 12.8418 25.2154 12.8453 25.2472 12.852ZM9.79492 13.3344L13.0811 17.6669L9.79492 21.9993V13.3344Z" fill="#3271BD"/>
<path fill-rule="evenodd" clip-rule="evenodd" d="M18.8563 17.6666V16.5431C18.8563 16.4266 18.7618 16.332 18.6453 16.332H16.7813C16.6648 16.332 16.5703 16.4265 16.5703 16.5431V17.6666V18.79C16.5703 18.9065 16.6648 19.001 16.7813 19.001H18.6453C18.7617 19.001 18.8563 18.9065 18.8563 18.79V17.6666Z" fill="#3271BD"/>
<path fill-rule="evenodd" clip-rule="evenodd" d="M24.9791 20.3625L21.9923 18.851C21.9064 18.8075 21.8006 18.8075 21.7084 18.8507L20.3799 19.4744C20.1625 19.5764 20.1247 19.854 20.3109 19.9791L22.5691 21.4938L24.9791 20.3625Z" fill="#3271BD"/>
<path fill-rule="evenodd" clip-rule="evenodd" d="M26.0762 28.1538L26.991 24.1504L24.4833 25.3275L24.1344 28.7266C24.1114 28.9498 24.3492 29.0981 24.5666 28.9961L25.8951 28.3724C25.9873 28.329 26.0548 28.2476 26.0762 28.1538Z" fill="#3271BD"/>
</g>
</g>
<defs>
<filter id="filter0_d_1131_9493" x="0" y="0" width="42" height="42" filterUnits="userSpaceOnUse" color-interpolation-filters="sRGB">
<feFlood flood-opacity="0" result="BackgroundImageFix"/>
<feColorMatrix in="SourceAlpha" type="matrix" values="0 0 0 0 0 0 0 0 0 0 0 0 0 0 0 0 0 0 127 0" result="hardAlpha"/>
<feOffset dy="2"/>
<feGaussianBlur stdDeviation="1"/>
<feComposite in2="hardAlpha" operator="out"/>
<feColorMatrix type="matrix" values="0 0 0 0 0 0 0 0 0 0 0 0 0 0 0 0 0 0 0.05 0"/>
<feBlend mode="normal" in2="BackgroundImageFix" result="effect1_dropShadow_1131_9493"/>
<feBlend mode="normal" in="SourceGraphic" in2="effect1_dropShadow_1131_9493" result="shape"/>
</filter>
<clipPath id="clip0_1131_9493">
<rect width="20" height="20" fill="white" transform="translate(11 9)"/>
</clipPath>
</defs>
</svg>
