<svg width="42" height="42" viewBox="0 0 42 42" fill="none" xmlns="http://www.w3.org/2000/svg">
<g filter="url(#filter0_d_1131_9515)">
<rect x="2.5" y="0.5" width="37" height="37" rx="18.5" stroke="#ECEBF2"/>
<g clip-path="url(#clip0_1131_9515)">
<path fill-rule="evenodd" clip-rule="evenodd" d="M18.0483 26.6206C18.282 25.9543 18.4544 25.0914 18.4951 24.2435H23.7596C23.8092 25.0913 23.9969 25.9542 24.2403 26.6206H18.0483ZM11.9689 24.0234C12.3296 23.2189 13.1375 22.6585 14.0763 22.6585C15.015 22.6585 15.8228 23.2189 16.1835 24.0234C16.6366 23.5207 16.9124 22.8551 16.9124 22.1251C16.9124 20.5586 15.6426 19.2888 14.0762 19.2888C12.5097 19.2888 11.2399 20.5586 11.2399 22.1251C11.2399 22.8552 11.5158 23.5208 11.9689 24.0234ZM13.0094 20.9769C13.0094 20.3878 13.487 19.9102 14.0762 19.9102C14.6655 19.9102 15.1431 20.3878 15.1431 20.9769C15.1431 21.5661 14.6655 22.0437 14.0762 22.0437C13.487 22.0437 13.0094 21.5661 13.0094 20.9769ZM14.0762 18.6935C15.9713 18.6935 17.5078 20.2299 17.5078 22.1251C17.5078 24.0203 15.9713 25.5568 14.0762 25.5568C12.181 25.5568 10.6445 24.0203 10.6445 22.1251C10.6445 20.2299 12.181 18.6935 14.0762 18.6935ZM16.3773 27.216H25.9198C26.4104 27.216 26.8118 27.6174 26.8118 28.108C26.8118 28.5986 26.4104 29 25.9198 29H16.3773C15.8867 29 15.4853 28.5986 15.4853 28.108C15.4854 27.6174 15.8868 27.216 16.3773 27.216ZM30.2783 9C30.8726 9 31.3547 9.48203 31.3547 10.0767V20.4356H17.7325C17.0751 19.0137 15.6501 18.0981 14.0762 18.0981C12.8542 18.0981 11.7086 18.6479 10.9422 19.5961V10.4654C10.9422 9.65605 11.5983 9 12.4076 9H30.2783ZM20.3428 22.4885C20.1784 22.4885 20.0451 22.3552 20.0451 22.1908C20.0451 22.0264 20.1784 21.8931 20.3428 21.8931H21.9541C22.1185 21.8931 22.2518 22.0264 22.2518 22.1908C22.2518 22.3552 22.1185 22.4885 21.9541 22.4885H20.3428ZM31.3547 21.031H17.9523C18.1946 21.8908 18.1427 22.821 17.8048 23.6482H29.8893C30.6986 23.6482 31.3547 22.9922 31.3547 22.1828V21.031H31.3547ZM25.536 13.4383C26.2305 13.4383 26.8189 13.9574 26.9056 14.6449C26.9262 14.8074 27.0746 14.9224 27.237 14.9018C27.3995 14.8813 27.5146 14.7329 27.494 14.5704C27.37 13.5879 26.5355 12.8452 25.536 12.8452C25.3723 12.8452 25.2395 12.978 25.2395 13.1418C25.2395 13.3056 25.3723 13.4383 25.536 13.4383ZM28.9438 14.819C28.9438 12.9383 27.4167 11.4111 25.536 11.4111C25.3716 11.4111 25.2384 11.5444 25.2384 11.7088C25.2384 11.8732 25.3716 12.0065 25.536 12.0065C27.1 12.0065 28.3484 13.2732 28.3484 14.8189C28.3484 14.9833 28.4817 15.1166 28.6461 15.1166C28.8105 15.1166 28.9438 14.9833 28.9438 14.819ZM25.536 10.5735C27.8949 10.5735 29.7825 12.4866 29.7824 14.819C29.7824 14.9827 29.9152 15.1155 30.0789 15.1155C30.2427 15.1155 30.3755 14.9827 30.3755 14.819C30.3756 12.1612 28.2246 9.9781 25.536 9.9781C25.3716 9.9781 25.2384 10.1114 25.2384 10.2758C25.2384 10.4402 25.3716 10.5735 25.536 10.5735ZM12.5152 17.1344H19.925C20.0894 17.1344 20.2227 17.0011 20.2227 16.8367C20.2227 16.6723 20.0894 16.5391 19.925 16.5391H12.5152C12.3508 16.5391 12.2175 16.6723 12.2175 16.8367C12.2175 17.0011 12.3508 17.1344 12.5152 17.1344ZM12.5152 13.2073H19.925C20.0894 13.2073 20.2227 13.074 20.2227 12.9096C20.2227 12.7452 20.0894 12.612 19.925 12.612H12.5152C12.3508 12.612 12.2175 12.7452 12.2175 12.9096C12.2175 13.074 12.3508 13.2073 12.5152 13.2073ZM12.5152 15.1405H19.925C20.0894 15.1405 20.2227 15.0072 20.2227 14.8428C20.2227 14.6784 20.0894 14.5451 19.925 14.5451H12.5152C12.3508 14.5451 12.2175 14.6784 12.2175 14.8428C12.2175 15.0072 12.3508 15.1405 12.5152 15.1405ZM25.0061 16.5758L25.7406 17.3102L25.6769 14.5064L22.8731 14.4427L23.6075 15.1772L22.0693 16.7155L23.4678 18.114L25.0061 16.5758Z" fill="#3271BD"/>
</g>
</g>
<defs>
<filter id="filter0_d_1131_9515" x="0" y="0" width="42" height="42" filterUnits="userSpaceOnUse" color-interpolation-filters="sRGB">
<feFlood flood-opacity="0" result="BackgroundImageFix"/>
<feColorMatrix in="SourceAlpha" type="matrix" values="0 0 0 0 0 0 0 0 0 0 0 0 0 0 0 0 0 0 127 0" result="hardAlpha"/>
<feOffset dy="2"/>
<feGaussianBlur stdDeviation="1"/>
<feComposite in2="hardAlpha" operator="out"/>
<feColorMatrix type="matrix" values="0 0 0 0 0 0 0 0 0 0 0 0 0 0 0 0 0 0 0.05 0"/>
<feBlend mode="normal" in2="BackgroundImageFix" result="effect1_dropShadow_1131_9515"/>
<feBlend mode="normal" in="SourceGraphic" in2="effect1_dropShadow_1131_9515" result="shape"/>
</filter>
<clipPath id="clip0_1131_9515">
<rect width="20" height="20" fill="white" transform="translate(11 9)"/>
</clipPath>
</defs>
</svg>
