<svg width="112" height="102" viewBox="0 0 112 102" fill="none" xmlns="http://www.w3.org/2000/svg">
<mask id="path-1-outside-1_592_6425" maskUnits="userSpaceOnUse" x="0" y="0" width="112" height="102" fill="black">
<rect fill="white" width="112" height="102"/>
<path d="M10 22C10 15.3726 15.3726 10 22 10H90C96.6274 10 102 15.3726 102 22V102H10V22Z"/>
</mask>
<path d="M10 22C10 15.3726 15.3726 10 22 10H90C96.6274 10 102 15.3726 102 22V102H10V22Z" fill="#8CCCF9"/>
<path d="M0 22C0 9.84974 9.84974 0 22 0H90C102.15 0 112 9.84974 112 22H92C92 20.8954 91.1046 20 90 20H22C20.8954 20 20 20.8954 20 22H0ZM102 102H10H102ZM0 102V22C0 9.84974 9.84974 0 22 0V20C20.8954 20 20 20.8954 20 22V102H0ZM90 0C102.15 0 112 9.84974 112 22V102H92V22C92 20.8954 91.1046 20 90 20V0Z" fill="white" fill-opacity="0.4" mask="url(#path-1-outside-1_592_6425)"/>
<path d="M68.812 91.9998H76.1422V79.0142L68.812 71.9219V91.9998Z" fill="white"/>
<path d="M81.0151 91.9994H88.3454V88.4634L81.0151 81.3711V91.9994Z" fill="white"/>
<path d="M56.6089 91.9991H63.9391V68.3853L56.6089 61.293V91.9991Z" fill="white"/>
<path d="M32.2031 92.001H39.5333V47.1306L32.2031 40.0586V92.001Z" fill="white"/>
<path d="M44.4062 91.9997H51.7365V57.7575L44.4062 50.6855V91.9997Z" fill="white"/>
<path d="M20 92.0004H27.3092V36.5017L20 29.4297V92.0004Z" fill="white"/>
<path d="M58.2683 40.9721L59.9906 39.3057L58.9404 38.2896C58.5413 37.9035 58.4573 37.2938 58.7724 36.8264C59.3605 35.9323 59.7805 34.9365 60.0326 33.9001C60.1586 33.3717 60.6627 32.9856 61.2298 32.9856H62.721V30.6283H61.2298C60.6627 30.6283 60.1586 30.2422 60.0326 29.7138C59.7805 28.6774 59.3605 27.6816 58.7724 26.7875C58.4783 26.3201 58.5413 25.7104 58.9404 25.3243L59.9906 24.3082L58.2683 22.6418L57.2181 23.6579C56.819 24.044 56.1889 24.1253 55.7058 23.8205C54.7817 23.2515 53.7525 22.845 52.6813 22.6012C52.1353 22.4793 51.7362 21.9915 51.7362 21.4428V20H49.2788V21.4428C49.2788 21.9915 48.8797 22.4793 48.3336 22.6012C47.2624 22.845 46.2333 23.2515 45.3091 23.8205C44.826 24.105 44.1959 24.044 43.7969 23.6579L42.7467 22.6418L41.0244 24.3082L42.0746 25.3243C42.4736 25.7104 42.5577 26.3201 42.2426 26.7875C41.6545 27.6816 41.2344 28.6774 40.9824 29.7138C40.8564 30.2422 40.3523 30.6283 39.7852 30.6283H38.2939V32.9856H39.7852C40.3523 32.9856 40.8564 33.3717 40.9824 33.9001C41.2344 34.9365 41.6545 35.9323 42.2426 36.8264C42.5367 37.2938 42.4736 37.9035 42.0746 38.2896L41.0244 39.3057L42.7467 40.9721L43.7969 39.956C44.1959 39.5699 44.826 39.4886 45.3091 39.7934C46.2333 40.3624 47.2624 40.7688 48.3336 41.0127C48.8797 41.1346 49.2788 41.6224 49.2788 42.171V43.6139H51.7152V42.171C51.7152 41.6224 52.1143 41.1346 52.6603 41.0127C53.7315 40.7688 54.7607 40.3624 55.6848 39.7934C56.1679 39.5089 56.798 39.5699 57.1971 39.956L58.2683 40.9721ZM50.518 37.6799C47.1574 37.6799 44.406 35.0381 44.406 31.7663C44.406 28.4945 47.1364 25.8527 50.518 25.8527C53.8995 25.8527 56.63 28.4945 56.63 31.7663C56.609 35.0381 53.8785 37.6799 50.518 37.6799Z" fill="white"/>
<path d="M82.3603 67.208C82.4023 67.208 82.4443 67.208 82.4863 67.1877C82.5283 67.1877 82.5704 67.1673 82.5914 67.1673C82.6124 67.1673 82.6544 67.147 82.6754 67.147C82.6964 67.147 82.7174 67.1267 82.7174 67.1267C82.7384 67.1267 82.7594 67.1064 82.7804 67.1064C82.8014 67.1064 82.8014 67.086 82.8224 67.086C82.8224 67.086 82.8434 67.086 82.8434 67.0657C82.8644 67.0454 82.8854 67.0454 82.9064 67.0251C82.9064 67.0251 82.9274 67.0251 82.9274 67.0048C82.9484 66.9844 82.9694 66.9641 82.9904 66.9641C83.0744 66.9032 83.1374 66.8422 83.2005 66.7609C83.2215 66.7406 83.2215 66.7203 83.2425 66.7203C83.2425 66.7203 83.2425 66.6999 83.2635 66.6999C83.2635 66.6796 83.2845 66.6796 83.2845 66.6593C83.3055 66.639 83.3055 66.6186 83.3265 66.5983C83.3265 66.578 83.3475 66.578 83.3475 66.5577C83.3685 66.5374 83.3685 66.517 83.3685 66.4967C83.3685 66.4764 83.3895 66.4561 83.3895 66.4561C83.4105 66.4358 83.4105 66.4154 83.4105 66.3748C83.4315 66.3341 83.4315 66.3138 83.4315 66.2732C83.4315 66.2325 83.4525 66.1919 83.4525 66.1512C83.4525 66.1106 83.4525 66.07 83.4525 66.0293V60.1157C83.4525 59.4654 82.9064 58.937 82.2343 58.937C81.5622 58.937 81.0161 59.4654 81.0161 60.1157V63.1639L64.8014 47.4756C64.3183 47.0081 63.5622 47.0081 63.0791 47.4756C62.596 47.943 62.596 48.6745 63.0791 49.1419L79.2938 64.8303H76.1433C75.4712 64.8303 74.9251 65.3587 74.9251 66.009C74.9251 66.6593 75.4712 67.1877 76.1433 67.1877H82.2553C82.2763 67.208 82.3183 67.208 82.3603 67.208Z" fill="#EE4444"/>
<path d="M81.0151 28.2305C74.9661 28.2305 70.0303 33.0061 70.0303 38.8587C70.0303 44.7114 74.9661 49.487 81.0151 49.487C87.0641 49.487 91.9999 44.7114 91.9999 38.8587C91.9999 33.0061 87.0851 28.2305 81.0151 28.2305ZM79.7969 37.6801H82.2333C84.2496 37.6801 85.8879 39.2652 85.8879 41.2161C85.8879 43.167 84.2496 44.7521 82.2333 44.7521V45.9307C82.2333 46.581 81.6872 47.1094 81.0151 47.1094C80.343 47.1094 79.7969 46.581 79.7969 45.9307V44.7521H77.3605C76.6884 44.7521 76.1423 44.2237 76.1423 43.5734C76.1423 42.9231 76.6884 42.3947 77.3605 42.3947H82.2333C82.9054 42.3947 83.4515 41.8664 83.4515 41.2161C83.4515 40.5658 82.9054 40.0374 82.2333 40.0374H79.7969C77.7806 40.0374 76.1423 38.4523 76.1423 36.5014C76.1423 34.5505 77.7806 32.9654 79.7969 32.9654V31.7868C79.7969 31.1365 80.343 30.6081 81.0151 30.6081C81.6872 30.6081 82.2333 31.1365 82.2333 31.7868V32.9654H84.6697C85.3418 32.9654 85.8879 33.4938 85.8879 34.1441C85.8879 34.7944 85.3418 35.3228 84.6697 35.3228H79.7969C79.1248 35.3228 78.5787 35.8511 78.5787 36.5014C78.5787 37.1517 79.1248 37.6801 79.7969 37.6801Z" fill="#129C18"/>
</svg>
