<svg width="262" height="445" viewBox="0 0 262 445" fill="none" xmlns="http://www.w3.org/2000/svg">
<rect width="262" height="444.639" fill="black" fill-opacity="0.01"/>
<g filter="url(#filter1_i_537_7171)">
<path d="M0 8.88138C0 3.97634 3.97632 0 8.88136 0H253.119C258.024 0 262 3.97632 262 8.88136V212.423C262 212.826 261.776 213.197 261.419 213.385L256.662 215.888C250.261 219.257 250.357 228.456 256.827 231.691L261.399 233.978C261.767 234.162 262 234.538 262 234.95V435.758C262 440.663 258.024 444.639 253.119 444.639H8.88135C3.97632 444.639 0 440.663 0 435.758V234.907C0 234.518 0.207699 234.158 0.544694 233.964L4.91023 231.451C10.7668 228.079 10.8613 219.661 5.08196 216.159L0.523673 213.396C0.19857 213.199 0 212.847 0 212.467V8.88138Z" fill="#E3F5FF"/>
</g>
<path d="M11.8428 224.846H251.639" stroke="#3F93D4" stroke-width="1.48023" stroke-dasharray="4.44 4.44"/>
<rect x="15.22" y="15.2207" width="231.56" height="188.075" rx="7.60996" fill="#93D6FF"/>
<path fill-rule="evenodd" clip-rule="evenodd" d="M105.23 48.5723H109.004V69.9538H105.23V48.5723Z" fill="#3E629B"/>
<path fill-rule="evenodd" clip-rule="evenodd" d="M87.0439 48.5723H90.8172V69.9538H87.0439V48.5723Z" fill="#3E629B"/>
<path fill-rule="evenodd" clip-rule="evenodd" d="M80.5155 67.2695H115.949C117.454 67.2695 118.681 68.4969 118.681 70.0014V88.1638C118.681 89.6685 117.454 90.8957 115.949 90.8957H80.5155C79.0108 90.8957 77.7837 89.6685 77.7837 88.1638V70.0014C77.7837 68.4967 79.0108 67.2695 80.5155 67.2695Z" fill="#308EFC"/>
<path fill-rule="evenodd" clip-rule="evenodd" d="M82.7639 102.01H113.701V156.81H82.7639V102.01Z" fill="#308EFC"/>
<path fill-rule="evenodd" clip-rule="evenodd" d="M126.137 83.1445H70.329C69.4353 83.1445 68.6661 83.5318 68.134 84.2498C67.6017 84.9681 67.4551 85.8166 67.7155 86.6717L73.4546 105.537C73.8101 106.705 74.8464 107.473 76.0682 107.473H120.397C121.619 107.473 122.655 106.705 123.011 105.537L128.75 86.6715C129.01 85.8163 128.864 84.9678 128.332 84.2496C127.8 83.5318 127.03 83.1445 126.137 83.1445Z" fill="#3E629B"/>
<path fill-rule="evenodd" clip-rule="evenodd" d="M126.123 95.3091H70.3431L67.7153 86.6717C67.4552 85.8166 67.6018 84.9681 68.1339 84.2501C68.6659 83.5318 69.4351 83.1445 70.3288 83.1445H77.784H118.681H126.136C127.03 83.1445 127.799 83.5318 128.332 84.2501C128.864 84.9681 129.01 85.8166 128.75 86.6717L126.123 95.3091Z" fill="#A4D4FF"/>
<path fill-rule="evenodd" clip-rule="evenodd" d="M69.761 93.3965L70.9248 97.2212H125.541L126.704 93.3965H69.761Z" fill="#38A8FC"/>
<path fill-rule="evenodd" clip-rule="evenodd" d="M115.962 83.1445H112.095L110.288 95.025L114.068 95.5929L115.962 83.1445ZM100.146 83.1445H96.3211V95.3088H100.146V83.1445ZM84.3714 83.1445H80.5049L82.3985 95.5929L86.1786 95.025L84.3714 83.1445Z" fill="#38A8FC"/>
<path fill-rule="evenodd" clip-rule="evenodd" d="M107.117 52.2017C109.115 52.2017 110.744 50.5722 110.744 48.5745C110.744 46.5768 109.115 44.9473 107.117 44.9473C105.119 44.9473 103.49 46.5768 103.49 48.5745C103.49 50.5722 105.119 52.2017 107.117 52.2017Z" fill="#3E629B"/>
<path d="M89.7591 52.0954C91.7082 51.6346 92.9148 49.681 92.4541 47.7318C91.9933 45.7827 90.0397 44.5761 88.0905 45.0368C86.1414 45.4976 84.9348 47.4512 85.3955 49.4004C85.8563 51.3495 87.8099 52.5561 89.7591 52.0954Z" fill="#3E629B"/>
<path fill-rule="evenodd" clip-rule="evenodd" d="M101.88 159.152H94.1663V126.539H101.88V159.152ZM92.2797 162.925H103.767C104.809 162.925 105.654 162.081 105.654 161.039V124.652C105.654 123.61 104.809 122.766 103.767 122.766H92.2797C91.2377 122.766 90.3931 123.61 90.3931 124.652V161.039C90.3931 162.081 91.2377 162.925 92.2797 162.925Z" fill="#C2E6FF"/>
<path fill-rule="evenodd" clip-rule="evenodd" d="M69.5529 154.291H152.06C153.544 154.291 154.755 155.502 154.755 156.986V171.62C154.755 173.104 153.544 174.315 152.06 174.315H69.5529C68.0684 174.315 66.8577 173.104 66.8577 171.62V156.986C66.8577 155.502 68.0684 154.291 69.5529 154.291Z" fill="#F4F6F8"/>
<path fill-rule="evenodd" clip-rule="evenodd" d="M143.396 163.715C144.438 163.715 145.283 162.87 145.283 161.828C145.283 160.786 144.438 159.941 143.396 159.941H134.923C133.881 159.941 133.037 160.786 133.037 161.828C133.037 162.87 133.881 163.715 134.923 163.715H143.396ZM86.6904 163.715C87.7323 163.715 88.577 162.87 88.577 161.828C88.577 160.786 87.7323 159.941 86.6904 159.941H78.2175C77.1755 159.941 76.3308 160.786 76.3308 161.828C76.3308 162.87 77.1755 163.715 78.2175 163.715H86.6904ZM105.592 163.715C106.634 163.715 107.479 162.87 107.479 161.828C107.479 160.786 106.634 159.941 105.592 159.941H97.1194C96.0775 159.941 95.2328 160.786 95.2328 161.828C95.2328 162.87 96.0775 163.715 97.1194 163.715H105.592ZM124.494 163.715C125.536 163.715 126.381 162.87 126.381 161.828C126.381 160.786 125.536 159.941 124.494 159.941H116.021C114.979 159.941 114.135 160.786 114.135 161.828C114.135 162.87 114.979 163.715 116.021 163.715H124.494Z" fill="#A4D4FF"/>
<path d="M165.359 106.683C182.407 106.683 196.227 92.8623 196.227 75.814C196.227 58.7657 182.407 44.9453 165.359 44.9453C148.31 44.9453 134.49 58.7657 134.49 75.814C134.49 92.8623 148.31 106.683 165.359 106.683Z" fill="#2A6DBF"/>
<path fill-rule="evenodd" clip-rule="evenodd" d="M154.136 54.3661C155.056 53.8858 156.191 54.2424 156.671 55.162C157.151 56.0819 156.795 57.2168 155.875 57.6971C152.569 59.4309 149.793 62.0517 147.86 65.2466C145.996 68.3278 144.923 71.9442 144.923 75.8134C144.923 81.4569 147.21 86.5662 150.908 90.2646C154.607 93.9626 159.716 96.2501 165.36 96.2501C171.003 96.2501 176.113 93.9624 179.811 90.2646C183.509 86.5665 185.796 81.4569 185.796 75.8134C185.796 71.9442 184.723 68.328 182.859 65.2466C180.926 62.0517 178.15 59.4309 174.844 57.6971C173.924 57.2168 173.568 56.0819 174.048 55.162C174.529 54.2421 175.664 53.8858 176.583 54.3661C180.513 56.4274 183.804 59.5288 186.087 63.301C188.297 66.9543 189.569 71.2367 189.569 75.8132C189.569 82.4983 186.859 88.5507 182.478 92.932C178.097 97.313 172.045 100.023 165.36 100.023C158.674 100.023 152.622 97.313 148.241 92.932C143.859 88.5507 141.15 82.4983 141.15 75.8132C141.15 71.2367 142.422 66.9543 144.632 63.301C146.915 59.529 150.206 56.4274 154.136 54.3661ZM157.997 61.9924C155.486 63.3328 153.383 65.3361 151.923 67.7683C150.509 70.1257 149.695 72.8786 149.695 75.8134C149.695 80.139 151.449 84.0551 154.283 86.8896C157.118 89.7244 161.034 91.4779 165.36 91.4779C169.685 91.4779 173.601 89.7244 176.436 86.8896C179.271 84.0548 181.024 80.1387 181.024 75.8134C181.024 72.8786 180.21 70.1257 178.796 67.7683C177.336 65.3361 175.233 63.3328 172.722 61.9924C171.806 61.5041 170.668 61.8507 170.18 62.7662C169.692 63.6821 170.038 64.8202 170.954 65.3086C172.86 66.3263 174.458 67.8491 175.568 69.6988C176.637 71.4793 177.251 73.5708 177.251 75.8132C177.251 79.097 175.92 82.0701 173.768 84.2217C171.616 86.3735 168.644 87.7044 165.36 87.7044C162.076 87.7044 159.103 86.3735 156.951 84.2217C154.8 82.0701 153.469 79.097 153.469 75.8132C153.469 73.5708 154.083 71.4793 155.151 69.6988C156.262 67.8491 157.859 66.3261 159.766 65.3086C160.682 64.8202 161.028 63.6818 160.539 62.7662C160.051 61.8507 158.913 61.5041 157.997 61.9924Z" fill="white"/>
<path fill-rule="evenodd" clip-rule="evenodd" d="M166.693 77.1482C165.957 77.8848 164.762 77.8848 164.026 77.1482C163.289 76.4116 163.289 75.2171 164.026 74.4805L182.245 56.2614C182.981 55.5248 184.176 55.5248 184.912 56.2614C185.649 56.998 185.649 58.1925 184.912 58.9291L166.693 77.1482Z" fill="#FFEC99"/>
<path fill-rule="evenodd" clip-rule="evenodd" d="M170.592 75.8145C170.592 72.9247 168.249 70.582 165.359 70.582C162.47 70.582 160.127 72.9247 160.127 75.8145C160.127 78.7043 162.47 81.0472 165.359 81.0472C168.249 81.047 170.592 78.7043 170.592 75.8145Z" fill="#FFEC99"/>
<defs>
<filter id="filter1_i_537_7171" x="0" y="0" width="262" height="444.639" filterUnits="userSpaceOnUse" color-interpolation-filters="sRGB">
<feFlood flood-opacity="0" result="BackgroundImageFix"/>
<feBlend mode="normal" in="SourceGraphic" in2="BackgroundImageFix" result="shape"/>
<feColorMatrix in="SourceAlpha" type="matrix" values="0 0 0 0 0 0 0 0 0 0 0 0 0 0 0 0 0 0 127 0" result="hardAlpha"/>
<feOffset/>
<feGaussianBlur stdDeviation="3.80498"/>
<feComposite in2="hardAlpha" operator="arithmetic" k2="-1" k3="1"/>
<feColorMatrix type="matrix" values="0 0 0 0 0.166587 0 0 0 0 0.526358 0 0 0 0 0.75 0 0 0 0.55 0"/>
<feBlend mode="normal" in2="shape" result="effect1_innerShadow_537_7171"/>
</filter>
</defs>
</svg>
