<svg width="112" height="102" viewBox="0 0 112 102" fill="none" xmlns="http://www.w3.org/2000/svg">
<mask id="path-1-outside-1_592_6489" maskUnits="userSpaceOnUse" x="0" y="0" width="112" height="102" fill="black">
<rect fill="white" width="112" height="102"/>
<path d="M10 22C10 15.3726 15.3726 10 22 10H90C96.6274 10 102 15.3726 102 22V102H10V22Z"/>
</mask>
<path d="M10 22C10 15.3726 15.3726 10 22 10H90C96.6274 10 102 15.3726 102 22V102H10V22Z" fill="#8CCCF9"/>
<path d="M0 22C0 9.84974 9.84974 0 22 0H90C102.15 0 112 9.84974 112 22H92C92 20.8954 91.1046 20 90 20H22C20.8954 20 20 20.8954 20 22H0ZM102 102H10H102ZM0 102V22C0 9.84974 9.84974 0 22 0V20C20.8954 20 20 20.8954 20 22V102H0ZM90 0C102.15 0 112 9.84974 112 22V102H92V22C92 20.8954 91.1046 20 90 20V0Z" fill="white" fill-opacity="0.4" mask="url(#path-1-outside-1_592_6489)"/>
<path fill-rule="evenodd" clip-rule="evenodd" d="M67.3504 37.8194L66.8031 45.0771C63.5475 45.6594 60.5216 46.9136 57.8679 48.6914L58.0214 45.3392C58.0652 44.3863 57.2873 43.6052 56.2915 43.6052C55.291 43.6052 54.4532 44.3862 54.4213 45.3392L54.2083 51.7089C49.8822 56.0639 47.2044 62.094 47.2044 68.7571C47.2044 73.9092 48.8058 78.6826 51.5318 82.596C51.2144 82.6198 50.8933 82.6421 50.5682 82.6627C48.6566 82.7838 46.6173 82.8494 44.5 82.8494C42.3826 82.8494 40.3433 82.7839 38.4317 82.6627C32.1597 82.2649 27.2643 81.267 25.5055 80.0143C26.2068 81.2754 29.9132 82.3528 35.1436 82.9474C37.9093 83.2617 41.101 83.441 44.5 83.441C47.1315 83.441 49.6388 83.3335 51.9203 83.1391C53.5941 85.4055 55.6542 87.3621 58.0009 88.9117C54.5327 89.5844 49.7641 90 44.5 90C33.897 90 25.3016 88.3146 25.3016 86.2355H25.2932C24.5966 77.0056 23.9022 67.7701 23.208 58.5405C22.6887 51.6368 22.1668 44.7271 21.6471 37.8182C23.2849 38.5583 25.2516 39.0212 26.9994 39.364C29.5945 39.8728 32.2542 40.1891 34.8877 40.4076C38.0819 40.6723 41.2952 40.7882 44.5 40.7882C47.7047 40.7882 50.918 40.6724 54.1122 40.4076C56.7457 40.1891 59.4054 39.8728 62.0005 39.364C63.7474 39.0215 65.713 38.5588 67.3504 37.8194ZM39.6882 22H49.312C50.1806 22 50.9695 22.3588 51.5407 22.9369C52.1119 23.515 52.4666 24.3135 52.4666 25.1925V29.867C52.4666 30.1003 51.9681 30.2894 51.3533 30.2894C50.7385 30.2894 50.2401 30.1003 50.2401 29.867V25.1925C50.2401 24.9353 50.1353 24.7008 49.9666 24.53C49.7978 24.3592 49.566 24.2532 49.312 24.2532H39.6882C39.4342 24.2532 39.2023 24.3592 39.0336 24.53C38.8648 24.7008 38.7601 24.9354 38.7601 25.1925V29.867C38.7601 30.1003 38.2616 30.2894 37.6468 30.2894C37.032 30.2894 36.5336 30.1003 36.5336 29.867V25.1925C36.5336 24.3135 36.8882 23.5149 37.4594 22.9369C38.0306 22.3587 38.8196 22 39.6882 22ZM44.5 25.9594C42.6573 25.9594 40.8624 25.9994 39.1358 26.0751V29.8669C39.1358 30.532 38.1299 30.6696 37.6469 30.6696C37.164 30.6696 36.1579 30.532 36.1579 29.8669V26.2453C30.5434 26.6441 25.8837 27.4337 23.0342 28.4465C22.98 28.4658 22.9264 28.4853 22.8735 28.5047C22.8336 28.5194 22.7939 28.5341 22.7548 28.5489C22.7053 28.5676 22.6563 28.5863 22.608 28.6051C22.5687 28.6203 22.5299 28.6357 22.4913 28.6511C22.4448 28.6698 22.3988 28.6883 22.3536 28.707C22.3142 28.7233 22.2754 28.7397 22.2369 28.7561C22.1926 28.775 22.1488 28.7938 22.1056 28.8129C22.0641 28.8311 22.0231 28.8496 21.9826 28.8681C21.9462 28.8847 21.9104 28.9013 21.875 28.9179C21.8304 28.9388 21.7864 28.96 21.7432 28.9812C21.7125 28.9961 21.6824 29.0113 21.6526 29.0263C21.6101 29.0478 21.5681 29.0693 21.5272 29.0909C21.4998 29.1054 21.4728 29.1199 21.4461 29.1345C21.4056 29.1565 21.366 29.1785 21.3272 29.2007C21.3018 29.2151 21.2767 29.2297 21.2519 29.2442C21.2116 29.268 21.1721 29.2919 21.1335 29.3158C21.1136 29.3281 21.0939 29.3405 21.0745 29.353C21.0323 29.3799 20.9911 29.407 20.9512 29.4342C20.9365 29.4442 20.9222 29.4541 20.9079 29.4642C20.8665 29.4931 20.8263 29.522 20.7877 29.5511L20.7553 29.5759C20.7161 29.6061 20.6783 29.6365 20.642 29.6669L20.6157 29.6892C20.579 29.7207 20.5439 29.7521 20.5105 29.784L20.4896 29.8039C20.4551 29.8372 20.4224 29.8706 20.3916 29.9041L20.3772 29.9196C20.3451 29.9552 20.3148 29.991 20.2867 30.0269L20.278 30.0382C20.2499 30.0745 20.2238 30.111 20.1999 30.1475L20.1932 30.1579C20.1696 30.1947 20.148 30.2316 20.1287 30.2686L20.1244 30.277C20.1052 30.3145 20.0881 30.352 20.0733 30.3897L20.0701 30.398C20.0555 30.4362 20.0431 30.4745 20.033 30.5129L20.0313 30.519C20.0212 30.5585 20.0135 30.5981 20.0084 30.6378L20.008 30.6407C20.0027 30.6815 20 30.7224 20 30.7635C20.0001 33.4169 30.969 35.5678 44.5 35.5678C44.8805 35.5678 47.9142 35.4951 47.9938 35.5193C36.0511 36.9288 23.284 35.239 20 32.3143V35.045C20 37.6982 30.969 39.8491 44.5 39.8491C58.031 39.8491 69 37.6982 69 35.045V30.7635C69 28.6846 62.2659 26.9144 52.8423 26.2453V29.8669C52.8423 30.532 51.8363 30.6696 51.3533 30.6696C50.8703 30.6696 49.8644 30.532 49.8644 29.8669V26.0752C48.1378 25.9994 46.343 25.9594 44.5 25.9594ZM32.69 43.6052C31.694 43.6052 30.917 44.3864 30.9601 45.3393C31.1881 50.3808 31.4229 55.4223 31.6521 60.4583C31.8811 65.4942 32.1028 70.5359 32.3347 75.5717C32.3786 76.5247 33.1389 77.3057 34.0225 77.3057C34.9061 77.3057 35.6059 76.5245 35.5747 75.5717C35.4096 70.5356 35.2381 65.4942 35.0698 60.4583C34.9015 55.4223 34.7252 50.3808 34.56 45.3393C34.5288 44.3865 33.6904 43.6052 32.69 43.6052ZM44.4906 43.6052C43.4948 43.6052 42.6854 44.3864 42.6907 45.3393C42.718 50.3808 42.7537 55.4223 42.7842 60.4583C42.8145 65.4942 42.8416 70.5357 42.8729 75.5717C42.8788 76.5245 43.607 77.3057 44.4906 77.3057C44.4906 77.3057 44.4906 77.3057 44.4953 77.3057C45.3743 77.3057 46.1024 76.5246 46.1083 75.5717C46.1398 70.5357 46.1715 65.4942 46.2018 60.4583C46.2322 55.4223 46.2593 50.3808 46.2907 45.3393C46.2966 44.3864 45.4865 43.6052 44.4953 43.6052C44.4906 43.6052 44.4906 43.6052 44.4906 43.6052Z" fill="url(#paint0_linear_592_6489)"/>
<path fill-rule="evenodd" clip-rule="evenodd" d="M71 46.8496C82.598 46.8496 92 56.7331 92 68.9251C92 81.1171 82.598 91.0006 71 91.0006C59.402 91.0006 50 81.1171 50 68.9251C50 56.7331 59.402 46.8496 71 46.8496ZM79.5214 63.7533C79.2189 63.2024 78.5427 63.012 78.0186 63.3299L71.9324 67.0238V54.7675C71.9324 54.2284 71.5129 53.7873 71 53.7873C70.4871 53.7873 70.0676 54.2284 70.0676 54.7675V67.1882C69.4918 67.5305 69.103 68.1801 69.103 68.9251C69.103 70.0264 69.9523 70.9192 71 70.9192C71.9869 70.9192 72.7977 70.1268 72.8884 69.1144L79.1188 65.333C79.6428 65.015 79.824 64.3042 79.5214 63.7533ZM89.2693 70.0288H87.95C87.3725 70.0288 86.9 69.5321 86.9 68.9251C86.9 68.318 87.3725 67.8213 87.95 67.8213H89.2693C89.1149 64.9533 88.3631 62.2535 87.1424 59.8572L86.5 60.2471C86.2138 60.4208 85.8444 60.3168 85.6791 60.0159C85.5139 59.7151 85.6129 59.3268 85.8991 59.1531L86.5403 58.7639C85.0577 56.2637 83.0445 54.1473 80.6661 52.5888L80.2959 53.2629C80.1306 53.5638 79.7612 53.6678 79.475 53.4941C79.1888 53.3204 79.0899 52.9321 79.2551 52.6312L79.626 51.9559C77.3464 50.6726 74.7782 49.8823 72.0501 49.7201V51.107C72.0501 51.714 71.5775 52.2107 71.0001 52.2107C70.4226 52.2107 69.95 51.714 69.95 51.107V49.7201C67.2218 49.8824 64.6537 50.6726 62.374 51.9559L62.745 52.6312C62.9102 52.9321 62.8113 53.3204 62.5251 53.4941C62.2388 53.6677 61.8695 53.5638 61.7042 53.263L61.334 52.5889C58.9557 54.1473 56.9423 56.2637 55.4598 58.764L56.101 59.1532C56.3872 59.3269 56.4862 59.7152 56.321 60.016C56.1557 60.3169 55.7863 60.421 55.5001 60.2473L54.8577 59.8573C53.637 62.2536 52.8851 64.9534 52.7308 67.8213H54.0501C54.6277 67.8213 55.1001 68.318 55.1001 68.925C55.1001 69.532 54.6276 70.0288 54.0501 70.0288H52.7308C52.8852 72.8967 53.637 75.5965 54.8577 77.9928L55.5001 77.6028C55.7863 77.4292 56.1557 77.5331 56.321 77.834C56.4862 78.1348 56.3872 78.5231 56.101 78.6968L55.4598 79.086C56.9424 81.5862 58.9556 83.7026 61.3341 85.2611L61.7043 84.587C61.8696 84.2861 62.2389 84.1821 62.5251 84.3558C62.8113 84.5295 62.9103 84.9179 62.7451 85.2187L62.3742 85.8941C64.6537 87.1772 67.222 87.9676 69.9501 88.1299V86.743C69.9501 86.1359 70.4226 85.6393 71.0001 85.6393C71.5776 85.6393 72.0501 86.136 72.0501 86.743V88.1299C74.7783 87.9676 77.3465 87.1773 79.6261 85.8941L79.2552 85.2187C79.09 84.9179 79.1889 84.5296 79.4751 84.356C79.7613 84.1823 80.1307 84.2863 80.2959 84.5871L80.6661 85.2612C83.0445 83.7027 85.0579 81.5863 86.5404 79.0861L85.8991 78.6969C85.6129 78.5232 85.514 78.1349 85.6792 77.8341C85.8444 77.5332 86.2138 77.4292 86.5 77.6029L87.1425 77.9929C88.363 75.5965 89.1149 72.8968 89.2693 70.0288Z" fill="#EE4444"/>
<defs>
<linearGradient id="paint0_linear_592_6489" x1="60.0755" y1="73.7576" x2="31.4237" y2="40.639" gradientUnits="userSpaceOnUse">
<stop stop-color="#0A83E6"/>
<stop offset="1" stop-color="#0A83E6"/>
</linearGradient>
</defs>
</svg>
