<svg width="53" height="53" viewBox="0 0 53 53" fill="none" xmlns="http://www.w3.org/2000/svg">
<g clip-path="url(#clip0_857_232)">
<path d="M34.2781 28.2498L35.3539 28.4641C35.4354 30.0728 36.5968 31.4218 38.1756 31.7413C39.7544 32.0609 41.3491 31.2697 42.0496 29.8193C42.7502 28.3688 42.3787 26.6279 41.147 25.5899L52.9124 1.26845C53.1249 0.829237 52.9411 0.300902 52.5018 0.0883873C52.0626 -0.124127 51.5342 0.0597139 51.3217 0.499027L39.5643 24.8038C37.9863 24.4825 36.3924 25.2774 35.6998 26.7311L34.6231 26.5168C34.1446 26.4215 33.6794 26.7322 33.5841 27.2107C33.4888 27.6893 33.7995 28.1545 34.2781 28.2498ZM37.1354 27.9215L37.1368 27.9181V27.9102C37.3068 27.0896 38.0292 26.5009 38.8672 26.5C39.6163 26.4979 40.2857 26.9674 40.5391 27.6723C40.7925 28.3772 40.575 29.1654 39.996 29.6406C39.4171 30.1158 38.6017 30.1757 37.9596 29.7898C37.3175 29.4039 36.9875 28.6559 37.1354 27.9215Z" fill="white"/>
<path d="M49.2081 47.9582C48.8623 47.6186 48.3074 47.6212 47.9647 47.9638C47.622 48.3065 47.6195 48.8614 47.9591 49.2072L49.9845 51.2327H45.0503V50.3494C45.0503 49.8615 44.6549 49.4661 44.167 49.4661C43.6791 49.4661 43.2837 49.8615 43.2837 50.3494V51.2327H41.517V50.3494C41.517 49.8615 41.1215 49.4661 40.6337 49.4661C40.1459 49.4661 39.7505 49.8615 39.7505 50.3494V51.2327H37.9838V50.3494C37.9838 49.8615 37.5884 49.4661 37.1005 49.4661C36.6126 49.4661 36.2172 49.8615 36.2172 50.3494V51.2327H34.4505V50.3494C34.4505 49.8615 34.0551 49.4661 33.5673 49.4661C33.0794 49.4661 32.684 49.8615 32.684 50.3494V51.2327H30.9173V50.3494C30.9173 49.8615 30.5219 49.4661 30.034 49.4661C29.5462 49.4661 29.1507 49.8615 29.1507 50.3494V51.2327H27.3841V50.3494C27.3841 49.8615 26.9886 49.4661 26.5008 49.4661C26.0129 49.4661 25.6175 49.8615 25.6175 50.3494V51.2327H23.8508V50.3494C23.8508 49.8615 23.4554 49.4661 22.9675 49.4661C22.4797 49.4661 22.0842 49.8615 22.0842 50.3494V51.2327H20.3176V50.3494C20.3176 49.8615 19.9221 49.4661 19.4343 49.4661C18.9464 49.4661 18.551 49.8615 18.551 50.3494V51.2327H16.7843V50.3494C16.7843 49.8615 16.3888 49.4661 15.901 49.4661C15.4132 49.4661 15.0178 49.8615 15.0178 50.3494V51.2327H13.2511V50.3494C13.2511 49.8615 12.8557 49.4661 12.3678 49.4661C11.8799 49.4661 11.4845 49.8615 11.4845 50.3494V51.2327H9.71753V50.3494C9.71753 49.8615 9.322 49.4661 8.83424 49.4661C8.34648 49.4661 7.95096 49.8615 7.95096 50.3494V51.2327H6.18428V50.3494C6.18428 49.8615 5.78886 49.4661 5.301 49.4661C4.81314 49.4661 4.41771 49.8615 4.41771 50.3494V51.2327H2.20355L12.7717 25.568C12.9301 25.5952 13.0902 25.6113 13.2509 25.6164C14.4468 25.6147 15.5604 25.0074 16.2094 24.003L18.2722 24.6883C18.7349 24.8409 19.2338 24.5902 19.3874 24.1278C19.541 23.6654 19.2914 23.166 18.8295 23.0114L16.7598 22.3238C16.7655 22.2428 16.7841 22.1656 16.7841 22.0832C16.7924 20.4184 15.6375 18.9738 14.0118 18.6153C12.3861 18.2569 10.7307 19.0817 10.038 20.5954C9.34529 22.1092 9.80313 23.9012 11.1371 24.897L1.76765 47.6506V37.9829H3.53432C4.02219 37.9829 4.41761 37.5875 4.41761 37.0996C4.41761 36.6118 4.02219 36.2163 3.53432 36.2163H1.76765V34.4497H3.53432C4.02219 34.4497 4.41761 34.0542 4.41761 33.5664C4.41761 33.0785 4.02219 32.6831 3.53432 32.6831H1.76765V30.9163H3.53432C4.02219 30.9163 4.41761 30.5209 4.41761 30.033C4.41761 29.5452 4.02219 29.1497 3.53432 29.1497H1.76765V27.3831H3.53432C4.02219 27.3831 4.41761 26.9876 4.41761 26.4998C4.41761 26.0119 4.02219 25.6165 3.53432 25.6165H1.76765V23.8498H3.53432C4.02219 23.8498 4.41761 23.4544 4.41761 22.9665C4.41761 22.4787 4.02219 22.0833 3.53432 22.0833H1.76765V20.3165H3.53432C4.02219 20.3165 4.41761 19.9211 4.41761 19.4332C4.41761 18.9453 4.02219 18.5499 3.53432 18.5499H1.76765V16.7832H3.53432C4.02219 16.7832 4.41761 16.3877 4.41761 15.9C4.41761 15.4121 4.02219 15.0167 3.53432 15.0167H1.76765V13.25H3.53432C4.02219 13.25 4.41761 12.8545 4.41761 12.3667C4.41761 11.8789 4.02219 11.4834 3.53432 11.4834H1.76765V9.71664H3.53432C4.02219 9.71664 4.41761 9.32112 4.41761 8.83336C4.41761 8.3456 4.02219 7.95007 3.53432 7.95007H1.76765V3.01587L3.79311 5.04123C4.13895 5.38086 4.69378 5.37827 5.03652 5.03564C5.37925 4.69301 5.38174 4.13807 5.04211 3.79223L1.50907 0.25919C1.25608 0.00765146 0.876809 -0.0671891 0.54722 0.0692423C0.217631 0.205674 0.00221873 0.526774 0.000976562 0.883483V52.116L0.00170116 52.1195C0.00211522 52.2354 0.0251988 52.3501 0.0699169 52.4572C0.0952778 52.5044 0.12509 52.5491 0.158732 52.5908C0.186888 52.6437 0.220426 52.6935 0.258933 52.7393C0.34071 52.8212 0.437806 52.8862 0.544632 52.9306L0.547945 52.9328C0.65446 52.9769 0.768636 52.9996 0.883951 52.9997L0.88685 52.9993H52.1169C52.4738 52.998 52.7951 52.7828 52.9321 52.4533C53.0681 52.1232 52.9926 51.7438 52.7408 51.4909L49.2081 47.9582ZM11.5195 21.7312C11.6868 20.908 12.4107 20.3165 13.2508 20.3165C13.9651 20.3141 14.6106 20.742 14.8864 21.401C15.1622 22.06 15.014 22.8202 14.5111 23.3273C14.008 23.8344 13.249 23.9887 12.5879 23.7183L12.5801 23.7131C12.5739 23.7106 12.5675 23.7118 12.5613 23.7095C11.7878 23.3816 11.3522 22.5545 11.5195 21.7312Z" fill="white"/>
<path d="M25.6173 11.8369C24.6015 12.8969 22.5964 15.2466 22.1724 17.6668H29.0623C28.6383 15.2466 26.6331 12.8969 25.6173 11.8369Z" fill="white"/>
<path d="M26.9246 42.3994H24.3101C24.6168 43.3767 25.0567 44.307 25.6173 45.1642C26.178 44.307 26.6179 43.3766 26.9246 42.3994Z" fill="white"/>
<path d="M33.5672 33.0032L30.9172 29.8232V37.6176L33.5672 40.2676V33.0032Z" fill="white"/>
<path d="M17.6675 40.2676L20.3174 37.6176V29.8232L17.6675 33.0032V40.2676Z" fill="white"/>
<path d="M28.6029 38.8662H22.6316L23.515 40.6329H27.7195L28.6029 38.8662Z" fill="white"/>
<path d="M29.1506 34.4502H22.084V37.1002H29.1506V34.4502Z" fill="white"/>
<path d="M29.1506 19.4336H22.084V32.6834H29.1506V19.4336ZM26.5006 26.5002H24.7339C24.2461 26.5002 23.8507 26.1048 23.8507 25.6169C23.8507 25.129 24.2461 24.7336 24.7339 24.7336H26.5006C26.9885 24.7336 27.3839 25.129 27.3839 25.6169C27.3839 26.1048 26.9885 26.5002 26.5006 26.5002ZM26.5006 22.9668H24.7339C24.2461 22.9668 23.8507 22.5713 23.8507 22.0836C23.8507 21.5957 24.2461 21.2003 24.7339 21.2003H26.5006C26.9885 21.2003 27.3839 21.5958 27.3839 22.0836C27.384 22.5714 26.9885 22.9668 26.5006 22.9668Z" fill="white"/>
</g>
<defs>
<clipPath id="clip0_857_232">
<rect width="53" height="53" fill="white"/>
</clipPath>
</defs>
</svg>
