<svg width="53" height="53" viewBox="0 0 53 53" fill="none" xmlns="http://www.w3.org/2000/svg">
<path d="M51.4473 0H45.1328C44.2746 0 43.5801 0.694486 43.5801 1.55273V3.10547H30.8722C30.229 1.30202 28.5217 0 26.5 0C24.4783 0 22.771 1.30202 22.1278 3.10547H9.41992V1.55273C9.41992 0.694486 8.72544 0 7.86719 0H1.55273C0.694486 0 0 0.694486 0 1.55273V7.76367C0 8.62192 0.694486 9.31641 1.55273 9.31641H7.86719C8.72544 9.31641 9.41992 8.62192 9.41992 7.76367V6.19023H15.7969C10.4082 9.55667 6.85501 15.4694 6.43029 22.0918C4.56721 22.7016 3.20898 24.4359 3.20898 26.5C3.20898 29.0686 5.29855 31.1582 7.86719 31.1582C10.4358 31.1582 12.5254 29.0686 12.5254 26.5C12.5254 24.5187 11.2769 22.8342 9.52965 22.162C10.0594 14.7787 15.2112 8.55577 22.3773 6.78027C23.1523 8.27887 24.6996 9.31641 26.5 9.31641C28.3004 9.31641 29.8477 8.27887 30.6227 6.78027C37.7888 8.55567 42.9406 14.7786 43.4704 22.1619C41.7231 22.8342 40.4746 24.5187 40.4746 26.5C40.4746 29.0686 42.5642 31.1582 45.1328 31.1582C47.7015 31.1582 49.791 29.0686 49.791 26.5C49.791 24.4359 48.4328 22.7016 46.5697 22.0918C46.145 15.4694 42.5918 9.57737 37.2031 6.21094H43.5801V7.76367C43.5801 8.62192 44.2746 9.31641 45.1328 9.31641H51.4473C52.3055 9.31641 53 8.62192 53 7.76367V1.55273C53 0.694486 52.3055 0 51.4473 0Z" fill="white"/>
<path d="M37.0637 51.0741C36.2516 48.5888 33.9117 46.6855 31.1582 46.6855H21.8418C19.0883 46.6855 16.7484 48.5888 15.9362 51.0741C15.6231 52.0323 16.4383 53 17.4465 53H35.5535C36.5616 53 37.3769 52.0323 37.0637 51.0741Z" fill="white"/>
<path d="M40.2138 31.85L28.0527 13.6084V28.3391C29.8562 28.9822 31.1582 30.6896 31.1582 32.7113C31.1582 35.2799 29.0687 37.3695 26.5 37.3695C23.9314 37.3695 21.8418 35.2799 21.8418 32.7113C21.8418 30.6896 23.1438 28.9822 24.9473 28.3391V13.6084L12.7863 31.85C12.3753 32.4656 12.4572 33.286 12.9804 33.8092C15.8309 36.6597 17.6529 40.3319 18.3561 44.271C19.4348 43.8334 20.6079 43.5804 21.8418 43.5804H31.1582C32.3921 43.5804 33.5653 43.8333 34.6439 44.2708C35.3471 40.3315 37.1692 36.6597 40.0197 33.8092C40.5428 33.286 40.6247 32.4656 40.2138 31.85Z" fill="white"/>
<path d="M26.5 31.1582C25.6433 31.1582 24.9473 31.8542 24.9473 32.7109C24.9473 33.5676 25.6433 34.2637 26.5 34.2637C27.3567 34.2637 28.0527 33.5676 28.0527 32.7109C28.0527 31.8542 27.3567 31.1582 26.5 31.1582Z" fill="white"/>
</svg>
