<svg width="41" height="41" viewBox="0 0 41 41" fill="none" xmlns="http://www.w3.org/2000/svg">
<path fill-rule="evenodd" clip-rule="evenodd" d="M20.1825 6.72916C20.1825 7.08465 19.8895 7.38239 19.5396 7.38239C19.1897 7.38239 18.8967 7.08465 18.8967 6.71473C18.8967 6.07594 18.6587 5.76377 18.1419 5.73489C18.0868 5.73489 18.03 5.73489 17.9749 5.73489C17.9607 5.73489 17.9465 5.73489 17.9323 5.73489C17.4705 5.79083 17.0372 6.09038 17.0087 6.41699V6.44586C16.9111 7.19833 18.03 7.65306 18.2538 7.73787C18.632 7.88043 19.1773 8.10779 19.5822 8.49034C20.0991 8.97394 20.282 9.61273 20.0991 10.2948C19.8327 11.3468 19.1347 11.9008 18.3941 12.0849V12.6389C18.3941 12.9943 18.101 13.2921 17.7511 13.2921C17.4013 13.2921 17.1082 12.9943 17.1082 12.6389V12.0289C16.1989 11.7168 15.627 10.8506 15.6536 9.81303C15.6678 9.45755 15.9609 9.17424 16.325 9.18868C16.6749 9.20311 16.9537 9.50085 16.9395 9.87077C16.9111 10.5096 17.3444 10.7947 17.7085 10.8506C17.7369 10.8506 17.7511 10.8506 17.7778 10.865C17.792 10.865 17.792 10.865 17.8062 10.865C18.2111 10.8939 18.6729 10.6666 18.8416 9.98446C18.8967 9.78596 18.9819 9.43048 17.7938 8.97575C16.3534 8.43621 15.5702 7.44194 15.7105 6.29067C15.7939 5.43896 16.4511 4.82724 17.2343 4.571V3.94665C17.2343 3.59116 17.5274 3.29342 17.8772 3.29342C18.2271 3.29342 18.5202 3.59116 18.5202 3.94665V4.47175C19.3585 4.64138 20.1967 5.2946 20.1825 6.72916ZM9.08228 7.04315V25.6943C9.08228 26.8871 10.0467 27.8669 11.2206 27.8669H27.4252C27.0203 27.3129 26.7681 26.6308 26.7681 25.8928V21.2047V7.04315V0.323242H9.08228V7.04315ZM16.1989 19.5284C16.5488 19.5284 16.8418 19.8261 16.8418 20.1816C16.8418 20.5371 16.5488 20.8348 16.1989 20.8348H11.5581C11.194 20.8348 10.9152 20.5371 10.9152 20.1816C10.9152 19.8261 11.2082 19.5284 11.5581 19.5284H16.1989ZM11.6131 23.5776H16.2539C16.6038 23.5776 16.8969 23.8754 16.8969 24.2309C16.8969 24.5863 16.6038 24.8841 16.2539 24.8841H11.6131C11.249 24.8841 10.9702 24.5863 10.9702 24.2309C10.9702 23.8754 11.249 23.5776 11.6131 23.5776ZM19.6941 15.4665H24.3349C24.699 15.4665 24.9778 15.7642 24.9778 16.1197C24.9778 16.4752 24.6848 16.7729 24.3349 16.7729H19.6941C19.3442 16.7729 19.0512 16.4752 19.0512 16.1197C19.037 15.7642 19.33 15.4665 19.6941 15.4665ZM19.7367 19.5284H24.3775C24.7416 19.5284 25.0205 19.8261 25.0205 20.1816C25.0205 20.5371 24.7274 20.8348 24.3775 20.8348H19.7367C19.3869 20.8348 19.0938 20.5371 19.0938 20.1816C19.092 19.8135 19.3869 19.5284 19.7367 19.5284ZM19.7918 23.5776H24.4326C24.7967 23.5776 25.0755 23.8754 25.0755 24.2309C25.0755 24.5863 24.7825 24.8841 24.4326 24.8841H19.7918C19.4419 24.8841 19.1489 24.5863 19.1489 24.2309C19.1489 23.8754 19.4419 23.5776 19.7918 23.5776ZM11.5012 15.4665H16.142C16.4919 15.4665 16.785 15.7642 16.785 16.1197C16.785 16.4752 16.4919 16.7729 16.142 16.7729H11.5012C11.1514 16.7729 10.8583 16.4752 10.8583 16.1197C10.8583 15.7642 11.1514 15.4665 11.5012 15.4665Z" fill="white"/>
<path fill-rule="evenodd" clip-rule="evenodd" d="M28.0553 7.69642V20.5371H32.586C32.95 20.5371 33.2289 20.8349 33.2289 21.1904V25.8784C33.2289 27.6973 31.7743 29.159 30 29.159H11.2095C9.3216 29.159 7.78354 27.5963 7.78354 25.6781V7.68018H0.5V33.746H13.7954H13.8097H27.1761H27.1903H40.5V7.69642H28.0553Z" fill="white"/>
<path fill-rule="evenodd" clip-rule="evenodd" d="M28.0552 21.8438V25.8786C28.0552 26.9721 28.9219 27.8527 29.9982 27.8527C31.0744 27.8527 31.9412 26.9721 31.9412 25.8786V21.8438H28.0552Z" fill="white"/>
<path fill-rule="evenodd" clip-rule="evenodd" d="M26.3787 38.1941H14.6479H8.97169C8.39803 38.1941 7.92383 38.6777 7.92383 39.2588V40.3234H33.1028V39.2443C33.1028 38.6615 32.6268 38.1797 32.0549 38.1797L26.3787 38.1941Z" fill="white"/>
<path fill-rule="evenodd" clip-rule="evenodd" d="M26.2809 35.0684H14.7473C14.9143 35.6079 15.0688 36.2196 15.1949 36.8873H25.8476C25.9595 36.2196 26.098 35.6079 26.2809 35.0684Z" fill="white"/>
</svg>
