<svg width="44" height="31" viewBox="0 0 44 31" fill="none" xmlns="http://www.w3.org/2000/svg">
<path fill-rule="evenodd" clip-rule="evenodd" d="M2.61869 25.0646V2.75193C2.61869 1.23693 3.93818 0 5.54187 0H9.612C11.2258 0 12.5352 1.23693 12.5352 2.75193V25.0646C12.4743 25.0646 12.4134 25.0646 12.3525 25.0646H2.80138C2.74048 25.0646 2.67958 25.0646 2.61869 25.0646ZM30.7848 21.258L22.1573 12.6953C21.3352 11.8707 21.1626 10.7009 21.731 9.70368C22.4415 8.46675 23.69 7.28735 24.6238 6.59697C26.4 5.29292 28.501 4.51624 30.7848 4.31488V21.258ZM43.4012 31H29.445C29.1202 31 28.8461 30.7507 28.8461 30.4343V28.3631C28.8461 26.9057 30.1047 25.7167 31.6475 25.7167H41.1986C42.7414 25.7167 44 26.9057 44 28.3631V30.4343C44 30.7507 43.7361 31 43.4012 31ZM31.4648 25.0646V2.75193C31.4648 1.23693 32.7843 0 34.388 0H38.4581C40.072 0 41.3813 1.23693 41.3813 2.75193V25.0646C41.3204 25.0646 41.2595 25.0646 41.1986 25.0646H31.6475C31.5866 25.0646 31.5257 25.0646 31.4648 25.0646ZM36.418 23.3195C37.3213 23.3195 38.0521 22.6195 38.0521 21.7662C38.0521 20.9128 37.3213 20.2224 36.418 20.2224C35.5146 20.2224 34.7737 20.9128 34.7737 21.7662C34.7737 22.6195 35.5146 23.3195 36.418 23.3195ZM36.418 20.8648C36.9458 20.8648 37.3721 21.2676 37.3721 21.7662C37.3721 22.2648 36.9458 22.6675 36.418 22.6675C35.8902 22.6675 35.4639 22.2648 35.4639 21.7662C35.4639 21.2676 35.8902 20.8648 36.418 20.8648ZM36.418 18.8225C37.3213 18.8225 38.0521 18.1225 38.0521 17.2691C38.0521 16.4157 37.3213 15.7157 36.418 15.7157C35.5146 15.7157 34.7737 16.4157 34.7737 17.2691C34.7737 18.1225 35.5146 18.8225 36.418 18.8225ZM36.418 16.3678C36.9458 16.3678 37.3721 16.7705 37.3721 17.2691C37.3721 17.7677 36.9458 18.1704 36.418 18.1704C35.8902 18.1704 35.4639 17.7677 35.4639 17.2691C35.4639 16.7705 35.8902 16.3678 36.418 16.3678ZM37.5243 13.9802C38.1536 13.9802 38.6713 13.4912 38.6713 12.8967V2.83823C38.6713 2.23415 38.1536 1.74513 37.5243 1.74513H35.332C34.6925 1.74513 34.1749 2.23415 34.1749 2.83823V12.8967C34.1749 13.4912 34.6925 13.9802 35.332 13.9802H37.5243ZM35.0681 2.47386V2.39715H37.5243C37.7781 2.39715 37.9811 2.59852 37.9811 2.83823V12.8967C37.9811 13.1364 37.7781 13.3378 37.5243 13.3378H35.332C35.0782 13.3378 34.8651 13.1364 34.8651 12.8967V2.83823C34.8651 2.6944 34.9463 2.56016 35.0681 2.47386ZM13.2254 4.31488C15.499 4.50665 17.6102 5.29292 19.3762 6.59697C20.0563 7.09558 20.8987 7.85308 21.5788 8.70646C21.4164 8.93659 21.2641 9.16672 21.1322 9.39685C20.4521 10.5858 20.6145 11.9954 21.528 13.0022L13.2254 21.2484V4.31488ZM14.555 31H0.598847C0.274048 31 0 30.7507 0 30.4343V28.3631C0 26.9057 1.25859 25.7167 2.80138 25.7167H12.3525C13.8953 25.7167 15.1539 26.9057 15.1539 28.3631V30.4343C15.1539 30.7507 14.8798 31 14.555 31ZM7.59216 23.3195C8.4955 23.3195 9.23645 22.6195 9.23645 21.7662C9.23645 20.9128 8.4955 20.2224 7.59216 20.2224C6.68881 20.2224 5.94787 20.9128 5.94787 21.7662C5.94787 22.6195 6.68881 23.3195 7.59216 23.3195ZM7.59216 20.8648C8.1098 20.8648 8.54625 21.2676 8.54625 21.7662C8.54625 22.2648 8.1098 22.6675 7.59216 22.6675C7.06436 22.6675 6.63806 22.2648 6.63806 21.7662C6.63806 21.2676 7.06436 20.8648 7.59216 20.8648ZM7.59216 18.8225C8.4955 18.8225 9.2263 18.1225 9.23645 17.2691C9.23645 16.4157 8.4955 15.7157 7.59216 15.7157C6.67866 15.7157 5.94787 16.4157 5.94787 17.2691C5.94787 18.1225 6.68881 18.8225 7.59216 18.8225ZM7.59216 16.3678C8.1098 16.3678 8.54625 16.7705 8.54625 17.2691C8.54625 17.7677 8.1098 18.1704 7.59216 18.1704C7.06436 18.1704 6.63806 17.7677 6.63806 17.2691C6.63806 16.7705 7.06436 16.3678 7.59216 16.3678ZM8.6782 13.9802C9.3075 13.9802 9.82514 13.4912 9.82514 12.8967V2.83823C9.82514 2.23415 9.3075 1.74513 8.6782 1.74513H6.48581C5.84637 1.74513 5.32872 2.23415 5.32872 2.83823V12.8967C5.32872 13.4912 5.84637 13.9802 6.48581 13.9802H8.6782ZM6.22191 2.47386V2.39715H8.6782C8.93195 2.39715 9.13495 2.59852 9.13495 2.83823V12.8967C9.13495 13.1364 8.93195 13.3378 8.6782 13.3378H6.48581C6.23206 13.3378 6.01892 13.1364 6.01892 12.8967V2.83823C6.01892 2.6944 6.10012 2.56016 6.22191 2.47386Z" fill="white"/>
</svg>
