<svg width="33" height="41" viewBox="0 0 33 41" fill="none" xmlns="http://www.w3.org/2000/svg">
<path fill-rule="evenodd" clip-rule="evenodd" d="M13.365 31.4238V40.0722H18.5912V31.4238H13.365Z" fill="#A1CFF3"/>
<path fill-rule="evenodd" clip-rule="evenodd" d="M21.7827 31.4238V35.2759H27.0089V31.4238H21.7827Z" fill="#A1CFF3"/>
<path fill-rule="evenodd" clip-rule="evenodd" d="M30.2747 27.4688H9.22095V40.0735H12.5204V30.9434C12.5204 30.6787 12.7103 30.4618 12.9338 30.4618H19.0038C19.2357 30.4618 19.4256 30.6787 19.4256 30.9434V40.0735H30.2747V27.4688ZM21.3608 30.4702H27.4307C27.6626 30.4702 27.8442 30.687 27.8442 30.9518V35.7577C27.8442 36.0225 27.6542 36.2394 27.4223 36.2394H21.3524C21.1205 36.2394 20.9305 36.0225 20.9305 35.7577V30.9518C20.9389 30.6787 21.1289 30.4702 21.3608 30.4702Z" fill="white"/>
<path d="M9.06371 18.2123L7.28841 26.0531C7.24309 26.2533 7.39528 26.4438 7.60055 26.4438H31.9147C32.1223 26.4438 32.275 26.2492 32.2256 26.0476L30.3023 18.2067C30.2672 18.0635 30.1389 17.9629 29.9915 17.9629H9.37584C9.22632 17.9629 9.09672 18.0664 9.06371 18.2123Z" fill="white"/>
<path fill-rule="evenodd" clip-rule="evenodd" d="M0.314941 0.333316V36.8344H8.39452V27.4779H6.63358C6.50135 27.4779 6.38591 27.412 6.30301 27.2886C6.2201 27.1747 6.19596 27.0142 6.2285 26.8728L8.40292 17.3941C8.45224 17.1868 8.61805 17.0358 8.808 17.0358H14.3322V0.32373L0.314941 0.333316ZM12.6783 15.4482H9.33692C9.10499 15.4482 8.91504 15.2314 8.91504 14.9666V11.1528C8.91504 10.888 9.10499 10.6711 9.33692 10.6711H12.6773C12.9092 10.6711 13.0991 10.888 13.0991 11.1528V14.9666C13.0918 15.241 12.9018 15.4482 12.6783 15.4482ZM5.72372 22.4635C5.72372 22.7283 5.53377 22.9452 5.30185 22.9452H1.96885C1.73692 22.9452 1.54698 22.7283 1.54698 22.4635V18.6498C1.54698 18.385 1.73692 18.1681 1.96885 18.1681H5.30919C5.54112 18.1681 5.73106 18.385 5.73106 18.6498L5.72372 22.4635ZM12.6783 7.96207H9.33692C9.10499 7.96207 8.91504 7.7452 8.91504 7.48041V3.66543C8.91504 3.40063 9.10499 3.18376 9.33692 3.18376H12.6773C12.9092 3.18376 13.0991 3.40063 13.0991 3.66543V7.47921C13.0918 7.744 12.9018 7.96207 12.6783 7.96207ZM5.31024 15.4482H1.96885C1.73692 15.4482 1.54698 15.2314 1.54698 14.9666V11.1528C1.54698 10.888 1.73692 10.6711 1.96885 10.6711H5.30919C5.54112 10.6711 5.73106 10.888 5.73106 11.1528V14.9666C5.72372 15.241 5.54112 15.4482 5.31024 15.4482ZM5.31024 7.96207H1.96885C1.73692 7.96207 1.54698 7.7452 1.54698 7.48041V3.66543C1.54698 3.40063 1.73692 3.18376 1.96885 3.18376H5.30919C5.54112 3.18376 5.73106 3.40063 5.73106 3.66543V7.47921C5.72372 7.744 5.54112 7.96207 5.31024 7.96207Z" fill="white"/>
<path fill-rule="evenodd" clip-rule="evenodd" d="M19.0881 15.4211C19.0881 15.6859 18.8981 15.9027 18.6746 15.9027C18.4427 15.9027 18.2527 15.6859 18.2527 15.4211V4.27928C18.2527 4.01449 18.4427 3.79762 18.6746 3.79762C18.9065 3.79762 19.0881 4.01449 19.0881 4.27928V15.4211ZM16.9042 4.27928V15.4199C16.9042 15.6847 16.7143 15.9015 16.4907 15.9015C16.2588 15.9015 16.0689 15.6847 16.0689 15.4199V4.27928C16.0689 4.01449 16.2588 3.79762 16.4823 3.79762C16.7143 3.79882 16.9042 4.01569 16.9042 4.27928ZM15.1685 2.65576V17.0446H26.5642V2.65576H15.1685ZM25.2483 15.8932C25.0163 15.8932 24.8264 15.6763 24.8264 15.4115V4.2709C24.8264 4.0061 25.0163 3.78923 25.2483 3.78923C25.4802 3.78923 25.6701 4.0061 25.6701 4.2709V15.4115C25.6617 15.6847 25.4802 15.8932 25.2483 15.8932ZM23.057 15.8932C22.8251 15.8932 22.6352 15.6763 22.6352 15.4115V4.2709C22.6352 4.0061 22.8251 3.78923 23.057 3.78923C23.289 3.78923 23.4789 4.0061 23.4789 4.2709V15.4115C23.4705 15.6847 23.289 15.8932 23.057 15.8932ZM20.8658 15.8932C20.6339 15.8932 20.444 15.6763 20.444 15.4115V4.2709C20.444 4.0061 20.6339 3.78923 20.8658 3.78923C21.0978 3.78923 21.2877 4.0061 21.2877 4.2709V15.4115C21.2793 15.6847 21.0978 15.8932 20.8658 15.8932Z" fill="#A1CFF3"/>
<path fill-rule="evenodd" clip-rule="evenodd" d="M9.75122 4.14746V7.00869H12.2573V4.14746H9.75122Z" fill="#A1CFF3"/>
<path fill-rule="evenodd" clip-rule="evenodd" d="M2.38232 4.14746V7.00869H4.88837V4.14746H2.38232Z" fill="#A1CFF3"/>
<path fill-rule="evenodd" clip-rule="evenodd" d="M2.38232 11.6348V14.496H4.88837V11.6348H2.38232Z" fill="#A1CFF3"/>
<path fill-rule="evenodd" clip-rule="evenodd" d="M2.38232 19.1318V21.9919H4.88837V19.1318H2.38232Z" fill="#A1CFF3"/>
<path fill-rule="evenodd" clip-rule="evenodd" d="M9.75122 11.6348V14.496H12.2573V11.6348H9.75122Z" fill="#A1CFF3"/>
</svg>
