<svg width="53" height="53" viewBox="0 0 53 53" fill="none" xmlns="http://www.w3.org/2000/svg">
<path d="M17.3906 26.5V28.1562H20.7031V26.5C20.7031 25.5866 19.9603 24.8438 19.0469 24.8438C18.1335 24.8438 17.3906 25.5866 17.3906 26.5Z" fill="white"/>
<path d="M28.9844 26.5C28.9844 25.5866 28.2415 24.8438 27.3281 24.8438H25.6719V28.1562H27.3281C28.2415 28.1562 28.9844 27.4134 28.9844 26.5Z" fill="white"/>
<path d="M43.8906 34.7812C47.5435 34.7812 50.5156 31.8091 50.5156 28.1562C50.5156 24.5034 47.5435 21.5312 43.8906 21.5312C42.7553 21.5312 41.6315 21.8277 40.6394 22.3884L39.957 22.7734L39.5347 22.1126C38.3066 20.193 36.2205 19.0469 33.9531 19.0469C32.2397 19.0469 30.6116 19.7036 29.3695 20.8961L28.5355 21.6969L28.0461 20.6493C26.4155 17.1604 22.8836 14.9062 19.0469 14.9062C13.8554 14.9062 9.50605 18.9641 9.14498 24.1448L9.08288 25.0392L8.19595 24.9059C7.91273 24.8636 7.67672 24.8438 7.45312 24.8438C4.71286 24.8438 2.48438 27.0722 2.48438 29.8125C2.48438 32.5528 4.71286 34.7812 7.45312 34.7812H43.8906ZM43.8906 23.1875C46.6309 23.1875 48.8594 25.416 48.8594 28.1562H47.2031C47.2031 26.3294 45.7175 24.8438 43.8906 24.8438V23.1875ZM32.2969 31.4688H33.9531V24.8438H32.2969V23.1875H37.2656V24.8438H35.6094V31.4688H37.2656V33.125H32.2969V31.4688ZM24.0156 23.1875H27.3281C29.155 23.1875 30.6406 24.6732 30.6406 26.5C30.6406 28.3268 29.155 29.8125 27.3281 29.8125H25.6719V33.125H24.0156V23.1875ZM22.3594 26.5V33.125H20.7031V29.8125H17.3906V33.125H15.7344V26.5C15.7344 24.6732 17.22 23.1875 19.0469 23.1875C20.8737 23.1875 22.3594 24.6732 22.3594 26.5ZM19.0469 16.5625V18.2188C15.394 18.2188 12.4219 21.1909 12.4219 24.8438H10.7656C10.7656 20.2775 14.4806 16.5625 19.0469 16.5625Z" fill="white"/>
<path d="M26.5 46.375C20.834 46.375 16.2006 41.995 15.7766 36.4375H11.5938V37.4967L13.4935 38.1302L13.597 38.5832C13.9249 40.0117 14.4897 41.3715 15.2748 42.6252L15.5215 43.0194L14.6247 44.8148L17.2937 47.4839L19.0891 46.587L19.4833 46.8338C20.7371 47.6197 22.0969 48.1836 23.5254 48.5116L23.9784 48.6151L24.6127 50.5156H28.3881L29.0216 48.6159L29.4746 48.5124C30.9031 48.1845 32.2629 47.6197 33.5167 46.8346L33.9109 46.5878L35.7063 47.4847L38.3753 44.8156L37.4785 43.0203L37.7252 42.6261C38.5111 41.3723 39.0751 40.0125 39.403 38.584L39.5065 38.131L41.4062 37.4967V36.4375H37.2234C36.7994 41.995 32.166 46.375 26.5 46.375Z" fill="white"/>
<path d="M26.4996 43.0625C30.3355 43.0625 33.4915 40.1632 33.9039 36.4375H19.0953C19.5077 40.1632 22.6637 43.0625 26.4996 43.0625Z" fill="white"/>
<path d="M10.7656 4.14062H2.48438V12.4219H10.7656V4.14062ZM8.28125 9.9375H4.96875V6.625H8.28125V9.9375Z" fill="white"/>
<path d="M50.4946 6.625H42.2134V14.9062H50.4946V6.625ZM48.0094 12.4219H44.6969V9.10938H48.0094V12.4219Z" fill="white"/>
<path d="M35.6094 2.48438H27.3281V10.7656H35.6094V2.48438ZM33.125 8.28125H29.8125V4.96875H33.125V8.28125Z" fill="white"/>
<path d="M17.3906 13.3817C17.933 13.3022 18.4846 13.25 19.0469 13.25V7.45312H12.4219V9.10938H17.3906V13.3817Z" fill="white"/>
<path d="M32.2969 17.5637V12.4219H30.6406V18.0871C31.1715 17.8535 31.7263 17.6805 32.2969 17.5637Z" fill="white"/>
<path d="M47.2031 20.5715V16.5625H45.5469V20.0423C46.1233 20.159 46.6764 20.3404 47.2031 20.5715Z" fill="white"/>
<path d="M43.0625 39.75H49.6875V41.4062H43.0625V39.75Z" fill="white"/>
<path d="M43.0625 43.0625H49.6875V44.7188H43.0625V43.0625Z" fill="white"/>
<path d="M43.0625 46.375H49.6875V48.0312H43.0625V46.375Z" fill="white"/>
<path d="M4.14062 39.75H10.7656V41.4062H4.14062V39.75Z" fill="white"/>
<path d="M4.14062 43.0625H10.7656V44.7188H4.14062V43.0625Z" fill="white"/>
<path d="M4.14062 46.375H10.7656V48.0312H4.14062V46.375Z" fill="white"/>
</svg>
