<svg width="46" height="41" viewBox="0 0 46 41" fill="none" xmlns="http://www.w3.org/2000/svg">
<path d="M16.2703 18.6802H8.14372L5.84399 24.9868H16.2703V18.6802Z" fill="white"/>
<path d="M0.00195312 41H16.2693V34.6934H2.30168L0.00195312 41Z" fill="white"/>
<path d="M42.9905 34.6934H29.1921V41H45.1491L42.9905 34.6934Z" fill="white"/>
<path d="M29.1921 24.9868H39.689L37.5304 18.6802H29.1921V24.9868Z" fill="white"/>
<path d="M40.2684 26.6798H28.3465C27.8809 26.6798 27.5 26.2989 27.5 25.8333V18.6802H25.1438C25.0733 18.7789 25.0027 18.8777 24.9181 18.9765C24.8757 19.0329 24.8334 19.0893 24.7911 19.1458C24.7064 19.2586 24.6359 19.3574 24.5512 19.4703C24.4102 19.6537 24.2832 19.8371 24.1562 20.0064C24.0998 20.0769 24.0433 20.1616 23.9869 20.2321C23.9163 20.3309 23.8458 20.4155 23.7894 20.5002C23.5918 20.7683 23.4084 21.0222 23.2673 21.2339C23.1121 21.4596 22.8441 21.6007 22.576 21.6007C22.2938 21.6007 22.0399 21.4596 21.8847 21.2339C21.8141 21.121 21.7295 21.0081 21.6448 20.8952C21.5884 20.8106 21.5179 20.7259 21.4614 20.6413C21.3909 20.5566 21.3344 20.472 21.2639 20.3732C20.9535 19.9641 20.6008 19.4844 20.2199 18.9765C20.1493 18.8777 20.0788 18.7789 19.9941 18.6802H17.9625V25.8333C17.9625 26.2989 17.5815 26.6798 17.1159 26.6798H5.22228L2.90845 33.0005H17.1018C17.5674 33.0005 17.9484 33.3815 17.9484 33.8471V41.0002H27.5V33.8471C27.5 33.3815 27.8809 33.0005 28.3465 33.0005H42.427L40.2684 26.6798Z" fill="white"/>
<path d="M21.0948 17.3396L21.3346 17.65C21.4052 17.7488 21.4898 17.8475 21.5604 17.9463C21.9272 18.426 22.2658 18.8916 22.5621 19.2866C22.8584 18.8775 23.197 18.426 23.5638 17.9463C23.6767 17.7911 23.7895 17.6359 23.9165 17.4807C26.315 14.2921 29.9127 9.39642 29.9127 7.35065C29.9127 3.30144 26.6113 0 22.5621 0C18.5129 0 15.2114 3.30144 15.2114 7.35065C15.2114 9.35409 18.6822 14.1087 21.0807 17.2973C21.0807 17.3114 21.0807 17.3255 21.0948 17.3396ZM18.8515 6.92739C18.8515 4.88162 20.5163 3.21679 22.5621 3.21679C24.6078 3.21679 26.2727 4.88162 26.2727 6.92739C26.2727 8.97315 24.6078 10.638 22.5621 10.638C20.5163 10.638 18.8515 8.97315 18.8515 6.92739Z" fill="white"/>
</svg>
