<svg width="53" height="53" viewBox="0 0 53 53" fill="none" xmlns="http://www.w3.org/2000/svg">
<path d="M44.4873 1.65625H3.50342C3.04795 1.65625 2.67529 2.02891 2.67529 2.48438V46.8305C2.67529 47.2942 3.04795 47.6586 3.50342 47.6586H7.67717V50.5156C7.67717 50.9711 8.04982 51.3438 8.50529 51.3438H49.4975C49.9529 51.3438 50.3256 50.9711 50.3256 50.5156V6.16125C50.3256 5.70578 49.9529 5.33313 49.4975 5.33313H45.3154V2.48438C45.3154 2.02891 44.9428 1.65625 44.4873 1.65625ZM8.50529 46.0023H4.33154V3.3125H43.6592V46.0023H8.50529Z" fill="white"/>
<path d="M18.2188 17.6637C18.2271 17.4401 18.1443 17.2248 17.9869 17.0674C17.8296 16.9018 17.6143 16.819 17.3907 16.819H12.8029V12.1152C12.8029 11.6515 12.4302 11.2871 11.9748 11.2871C8.52976 11.2871 5.72241 14.0862 5.72241 17.5312C5.72241 20.9762 8.52976 23.7835 11.9748 23.7835C15.3535 23.7835 18.1526 21.0341 18.2188 17.6637Z" fill="white"/>
<path d="M15.1213 15.4528H20.5456C20.9762 15.4528 21.3406 15.1132 21.3737 14.6826V14.517C21.3737 11.072 18.5663 8.26465 15.1213 8.26465C14.6659 8.26465 14.2932 8.6373 14.2932 9.09277V14.6246C14.2932 15.0801 14.6659 15.4528 15.1213 15.4528Z" fill="white"/>
<path d="M27.3276 15.1953H23.2781C22.8207 15.1953 22.45 15.5661 22.45 16.0234V25.9444C22.45 26.4017 22.8207 26.7725 23.2781 26.7725H27.3276C27.785 26.7725 28.1557 26.4017 28.1557 25.9444V16.0234C28.1557 15.5661 27.785 15.1953 27.3276 15.1953Z" fill="white"/>
<path d="M30.4658 26.7733H34.5071C34.9625 26.7733 35.3352 26.4006 35.3352 25.9452V12.8359C35.3352 12.3805 34.9625 12.0078 34.5071 12.0078H30.4658C30.0021 12.0078 29.6377 12.3805 29.6377 12.8359V25.9452C29.6377 26.4006 30.0021 26.7733 30.4658 26.7733Z" fill="white"/>
<path d="M41.6887 8.82031H37.6475C37.1901 8.82031 36.8193 9.19108 36.8193 9.64844V25.9459C36.8193 26.4033 37.1901 26.7741 37.6475 26.7741H41.6887C42.1461 26.7741 42.5168 26.4033 42.5168 25.9459V9.64844C42.5168 9.19108 42.1461 8.82031 41.6887 8.82031Z" fill="white"/>
<path d="M8.29907 30.6992C8.29907 31.1563 8.66924 31.5273 9.1272 31.5273H21.4373C21.8952 31.5273 22.2654 31.1563 22.2654 30.6992C22.2654 30.2421 21.8952 29.8711 21.4373 29.8711H9.1272C8.66924 29.8711 8.29907 30.2421 8.29907 30.6992Z" fill="white"/>
<path d="M38.1207 34.0703H9.1272C8.66924 34.0703 8.29907 34.4413 8.29907 34.8984C8.29907 35.3556 8.66924 35.7266 9.1272 35.7266H38.1207C38.5786 35.7266 38.9488 35.3556 38.9488 34.8984C38.9488 34.4413 38.5786 34.0703 38.1207 34.0703Z" fill="white"/>
<path d="M38.1207 38.2705H9.1272C8.66924 38.2705 8.29907 38.6415 8.29907 39.0986C8.29907 39.5558 8.66924 39.9268 9.1272 39.9268H38.1207C38.5786 39.9268 38.9488 39.5558 38.9488 39.0986C38.9488 38.6415 38.5786 38.2705 38.1207 38.2705Z" fill="white"/>
</svg>
