<svg width="39" height="35" viewBox="0 0 39 35" fill="none" xmlns="http://www.w3.org/2000/svg">
<path d="M31.9163 13.3011V13.6359H31.3045C31.0839 13.6359 30.8959 13.7959 30.8607 14.0139C30.7772 14.5342 30.5689 15.0352 30.2595 15.4632C30.1303 15.6425 30.1497 15.8886 30.3061 16.045L30.7385 16.4774L30.5021 16.7139L30.0697 16.2806C29.9141 16.125 29.6671 16.1048 29.4887 16.2349C29.0607 16.5442 28.5588 16.7525 28.0394 16.8352C27.8206 16.8703 27.6606 17.0593 27.6606 17.2799V17.8916H27.3257V17.2799C27.3257 17.0593 27.1658 16.8703 26.9478 16.8352C26.4275 16.7525 25.9265 16.5442 25.4985 16.2349C25.3192 16.1057 25.0731 16.125 24.9175 16.2806L24.4842 16.7139L24.2487 16.4774L24.6811 16.045C24.8367 15.8886 24.8569 15.6416 24.7268 15.4632C24.4183 15.0352 24.21 14.5333 24.1265 14.0139C24.0914 13.7959 23.9033 13.6359 23.6818 13.6359H23.0701V13.3011H23.6818C23.9033 13.3011 24.0914 13.1411 24.1265 12.9223C24.21 12.402 24.4183 11.901 24.7268 11.4738C24.856 11.2945 24.8367 11.0484 24.6811 10.892L24.2487 10.4596L24.4842 10.2231L24.9175 10.6556C25.0731 10.812 25.3201 10.8322 25.4985 10.7021C25.9265 10.3928 26.4284 10.1845 26.9478 10.1019C27.1658 10.0667 27.3257 9.87773 27.3257 9.65713V9.04541H27.6606V9.65713C27.6606 9.87773 27.8206 10.0667 28.0394 10.1019C28.5597 10.1845 29.0607 10.3928 29.4887 10.7021C29.668 10.8313 29.9132 10.812 30.0697 10.6556L30.5021 10.2231L30.7385 10.4596L30.3061 10.892C30.1497 11.0484 30.1294 11.2954 30.2595 11.4738C30.5689 11.901 30.7772 12.4028 30.8607 12.9223C30.8959 13.1411 31.0839 13.3011 31.3045 13.3011H31.9163ZM30.1347 13.4681C30.1347 12.0108 28.95 10.827 27.4927 10.827C26.0364 10.827 24.8516 12.0108 24.8516 13.4681C24.8516 14.9253 26.0364 16.1092 27.4927 16.1092C28.95 16.1092 30.1347 14.9253 30.1347 13.4681Z" fill="white"/>
<path d="M1.75205 26.1663C1.0208 26.1663 0.425781 25.5713 0.425781 24.8409V21.814H38.2188V24.8409C38.2188 25.5713 37.6237 26.1663 36.8925 26.1663H1.75205Z" fill="white"/>
<path d="M38.2188 1.54063V20.9152H0.425781V1.54063C0.425781 0.809376 1.0208 0.214356 1.75205 0.214356H36.8925C37.6237 0.213478 38.2188 0.808497 38.2188 1.54063ZM34.4298 2.78692C34.4298 2.53818 34.2285 2.33692 33.9798 2.33692H21.008C20.7593 2.33692 20.558 2.53818 20.558 2.78692C20.558 3.03565 20.7593 3.23692 21.008 3.23692H33.9798C34.2276 3.23604 34.4298 3.03477 34.4298 2.78692ZM34.4298 5.89824C34.4298 5.64951 34.2285 5.44824 33.9798 5.44824H21.008C20.7593 5.44824 20.558 5.64951 20.558 5.89824C20.558 6.14697 20.7593 6.34824 21.008 6.34824H33.9798C34.2276 6.34824 34.4298 6.14609 34.4298 5.89824ZM32.817 14.0861V12.8513C32.817 12.6025 32.6166 12.4013 32.367 12.4013H31.6709C31.5698 12.0049 31.4107 11.6217 31.2024 11.2692L31.6955 10.7771C31.779 10.6927 31.8265 10.5784 31.8265 10.4589C31.8265 10.3394 31.779 10.2251 31.6955 10.1416L30.8228 9.26885C30.647 9.09219 30.3622 9.09219 30.1864 9.26885L29.6934 9.76104C29.3409 9.55186 28.9586 9.39365 28.5613 9.29258V8.59649C28.5613 8.34775 28.3601 8.14649 28.1113 8.14649H26.8765C26.6277 8.14649 26.4265 8.34775 26.4265 8.59649V9.29258C26.031 9.39453 25.6469 9.55274 25.2944 9.76104L24.8022 9.26885C24.6265 9.09219 24.3417 9.09219 24.1659 9.26885L23.2932 10.1416C23.2088 10.2251 23.1604 10.3394 23.1604 10.4589C23.1604 10.5784 23.2079 10.6927 23.2932 10.7771L23.7854 11.2692C23.5762 11.6217 23.418 12.004 23.3169 12.4013H22.6208C22.3721 12.4013 22.1708 12.6025 22.1708 12.8513V14.0861C22.1708 14.3349 22.3721 14.5361 22.6208 14.5361H23.3169C23.4188 14.9325 23.5771 15.3157 23.7854 15.6682L23.2932 16.1604C23.2088 16.2447 23.1604 16.359 23.1604 16.4785C23.1604 16.5972 23.2079 16.7123 23.2932 16.7958L24.1659 17.6686C24.3417 17.8452 24.6265 17.8452 24.8022 17.6686L25.2944 17.1764C25.6469 17.3855 26.0301 17.5438 26.4265 17.6448V18.3409C26.4265 18.5897 26.6277 18.7909 26.8765 18.7909H28.1113C28.3601 18.7909 28.5613 18.5897 28.5613 18.3409V17.6448C28.9577 17.5429 29.3409 17.3847 29.6934 17.1764L30.1864 17.6686C30.3622 17.8452 30.647 17.8452 30.8228 17.6686L31.6955 16.7958C31.779 16.7123 31.8265 16.5972 31.8265 16.4785C31.8265 16.359 31.779 16.2447 31.6955 16.1604L31.2024 15.6682C31.4116 15.3157 31.5707 14.9334 31.6709 14.5361H32.367C32.6166 14.5353 32.817 14.334 32.817 14.0861ZM18.0865 12.1183C18.0865 11.8695 17.8853 11.6683 17.6365 11.6683H4.66475C4.41602 11.6683 4.21475 11.8695 4.21475 12.1183C4.21475 12.367 4.41602 12.5683 4.66475 12.5683H17.6365C17.8853 12.5683 18.0865 12.367 18.0865 12.1183ZM18.0865 15.2305C18.0865 14.9817 17.8853 14.7805 17.6365 14.7805H4.66475C4.41602 14.7805 4.21475 14.9817 4.21475 15.2305C4.21475 15.4792 4.41602 15.6805 4.66475 15.6805H17.6365C17.8853 15.6805 18.0865 15.4783 18.0865 15.2305ZM18.0865 18.3418C18.0865 18.0931 17.8853 17.8918 17.6365 17.8918H4.66475C4.41602 17.8918 4.21475 18.0931 4.21475 18.3418C4.21475 18.5905 4.41602 18.7918 4.66475 18.7918H17.6365C17.8853 18.7918 18.0865 18.5905 18.0865 18.3418ZM16.4746 6.14697C16.4746 6.00723 16.4096 5.87627 16.2988 5.79102L13.8265 3.88467C13.6296 3.73262 13.3466 3.76865 13.1954 3.96553C13.0434 4.1624 13.0803 4.44541 13.2763 4.59658L15.2872 6.14785L13.2763 7.69912C13.0803 7.85117 13.0434 8.1333 13.1954 8.33106C13.2833 8.44531 13.4169 8.50596 13.5514 8.50596C13.648 8.50596 13.7438 8.4752 13.8256 8.41279L16.2979 6.50557C16.4096 6.41943 16.4746 6.28672 16.4746 6.14697ZM12.4861 2.90381C12.5503 2.66387 12.4079 2.4169 12.168 2.35186C11.928 2.2877 11.6811 2.43008 11.6169 2.67002L9.81514 9.3919C9.7501 9.63184 9.89336 9.87881 10.1324 9.94385C10.172 9.95352 10.2106 9.95879 10.2493 9.95879C10.4479 9.95879 10.6299 9.8252 10.6835 9.62481L12.4861 2.90381ZM9.025 4.5957C9.22187 4.44453 9.25791 4.1624 9.10674 3.96465C8.95469 3.76777 8.67256 3.73174 8.4748 3.88379L6.00244 5.79014C5.8917 5.87539 5.82666 6.00723 5.82666 6.14609C5.82666 6.28496 5.8917 6.41768 6.00244 6.50205L8.4748 8.40928C8.55654 8.47256 8.6541 8.50244 8.74902 8.50244C8.88437 8.50244 9.01709 8.4418 9.10586 8.32754C9.25703 8.13067 9.221 7.84766 9.02412 7.69561L7.01318 6.14434L9.025 4.5957Z" fill="white"/>
<path d="M25.3228 31.0737C27.1369 31.0737 28.6398 32.436 28.8622 34.1921H9.78198C10.0043 32.4369 11.5073 31.0737 13.3213 31.0737H25.3228Z" fill="white"/>
<path d="M27.4926 11.7271C28.4523 11.7271 29.2346 12.5084 29.2346 13.4682C29.2346 14.4279 28.4523 15.2093 27.4926 15.2093C26.5328 15.2093 25.7515 14.4279 25.7515 13.4682C25.7515 12.5084 26.5328 11.7271 27.4926 11.7271Z" fill="white"/>
<path d="M21.7227 27.0664H16.9194V30.1733H21.7227V27.0664Z" fill="white"/>
</svg>
