<svg width="45" height="39" viewBox="0 0 45 39" fill="none" xmlns="http://www.w3.org/2000/svg">
<path d="M32.1861 36.1539H29.2951C28.4937 36.1539 27.8182 35.5558 27.7207 34.7601L27.536 33.2437H17.1082L16.9229 34.7601C16.826 35.5558 16.1505 36.1539 15.3491 36.1539H12.4581C11.8624 36.1539 11.3843 36.589 11.3843 37.1256V38.028C11.3843 38.5647 11.8624 38.9999 12.4581 38.9999H32.1861C32.7778 38.9999 33.2599 38.5647 33.2599 38.028V37.1256C33.2599 36.589 32.7778 36.1539 32.1861 36.1539Z" fill="#126DB4"/>
<path d="M43.7096 1.55859H25.8925H21.3532H0.935692C0.417612 1.55859 0.00195312 1.97491 0.00195312 2.48867V32.5427C0.00195312 33.0568 0.417594 33.4735 0.935692 33.4735H43.7096C44.2229 33.4735 44.6429 33.0568 44.6429 32.5427V2.48867C44.6429 1.97491 44.2229 1.55859 43.7096 1.55859Z" fill="#DAEFFF"/>
<path d="M42.7182 28.9374H1.93042V3.63232H21.3529H25.8923H42.7182V28.9374Z" fill="#4A97D3"/>
<path d="M7.2937 0.76449C7.2937 0.342962 7.63674 0 8.05837 0H36.5855C37.0069 0 37.3498 0.342944 37.3498 0.76449V26.1014C37.3498 26.523 37.0069 26.8659 36.5855 26.8659H8.05837C7.63674 26.8659 7.2937 26.523 7.2937 26.1014V0.76449Z" fill="white"/>
<path d="M14.8062 7.14133C14.3699 6.9095 14.0272 6.58676 13.778 6.17289C13.5286 5.75914 13.4041 5.29045 13.4041 4.76699C13.4041 4.24352 13.5286 3.77496 13.778 3.36108C14.0272 2.94732 14.3699 2.62447 14.8062 2.39266C15.2424 2.16083 15.7347 2.04492 16.2832 2.04492C16.7618 2.04492 17.193 2.12976 17.5769 2.29917C17.9608 2.46871 18.2799 2.71304 18.5341 3.03204L17.5919 3.88456C17.2528 3.47582 16.8415 3.27133 16.358 3.27133C16.0738 3.27133 15.8207 3.33373 15.5989 3.45829C15.377 3.58296 15.205 3.7587 15.0829 3.9855C14.9607 4.21241 14.8997 4.47287 14.8997 4.76697C14.8997 5.06121 14.9607 5.32165 15.0829 5.54845C15.205 5.77536 15.377 5.9511 15.5989 6.07566C15.8207 6.20033 16.0738 6.26261 16.358 6.26261C16.8415 6.26261 17.2528 6.05826 17.5919 5.6494L18.5341 6.50191C18.2799 6.82102 17.9608 7.06535 17.5769 7.23478C17.193 7.40421 16.7618 7.48903 16.2832 7.48903C15.7347 7.48906 15.2424 7.37316 14.8062 7.14133Z" fill="#4A97D3"/>
<path d="M21.48 5.99324H20.6724V7.38419H19.1917V2.14941H21.5847C22.0583 2.14941 22.4696 2.22794 22.8186 2.38496C23.1675 2.542 23.4367 2.76636 23.6262 3.05802C23.8156 3.34966 23.9104 3.6925 23.9104 4.08627C23.9104 4.46521 23.8218 4.79554 23.6449 5.07715C23.4679 5.35886 23.2149 5.57946 22.8859 5.73896L24.0151 7.38418H22.4297L21.48 5.99324ZM22.183 3.51795C22.0284 3.38334 21.799 3.31604 21.4949 3.31604H20.6724V4.84907H21.4949C21.799 4.84907 22.0284 4.78306 22.183 4.65092C22.3374 4.51886 22.4148 4.33064 22.4148 4.08629C22.4148 3.84209 22.3374 3.65255 22.183 3.51795Z" fill="#4A97D3"/>
<path d="M29.4528 7.38418L29.4378 4.60975L28.0918 6.86819H27.4337L26.0951 4.68454V7.3842H24.7266V2.14941H25.9455L27.7852 5.17064L29.5799 2.14941H30.7989L30.8138 7.3842H29.4528V7.38418Z" fill="#4A97D3"/>
<path d="M17.9064 21.4023H14.5513V25.3717H17.9064V21.4023Z" fill="#4A98D4"/>
<path d="M34.1503 17.6318H30.7952V25.3716H34.1503V17.6318Z" fill="#4A98D4"/>
<path d="M21.9686 18.5132H18.6135V25.3716H21.9686V18.5132Z" fill="#4A98D4"/>
<path d="M26.0292 20.1509H22.6741V25.3714H26.0292V20.1509Z" fill="#4A98D4"/>
<path d="M30.0898 22.5508H26.7346V25.3712H30.0898V22.5508Z" fill="#4A98D4"/>
<path d="M13.8459 20.5996H10.4907V25.3718H13.8459V20.5996Z" fill="#4A98D4"/>
<path d="M17.2787 14.5825C16.373 16.1512 14.3673 16.6885 12.7985 15.7829C11.2298 14.8772 10.6922 12.8712 11.5979 11.3025C12.5035 9.73374 14.5095 9.19642 16.0783 10.1021C17.647 11.0077 18.1846 13.0137 17.2787 14.5825Z" fill="#9CD4FF"/>
<path d="M13.0471 13.0974C12.7664 13.19 12.5767 13.4523 12.5767 13.7479V14.6198H16.298V13.7479C16.298 13.4523 16.1083 13.19 15.8275 13.0974L15.0335 12.8356H14.9969C15.2236 12.6467 15.3703 12.3458 15.3703 12.0068C15.3703 11.4348 14.9526 11.0151 14.4374 11.0151C13.9221 11.0151 13.5044 11.4348 13.5044 12.0068C13.5044 12.3458 13.6511 12.6467 13.8778 12.8356H13.8412L13.0471 13.0974Z" fill="#4A98D4"/>
<path d="M33.049 14.5825C32.1433 16.1512 30.1375 16.6885 28.5688 15.7829C27 14.8772 26.4625 12.8712 27.3681 11.3025C28.2738 9.73374 30.2798 9.19642 31.8485 10.1021C33.4173 11.0077 33.9548 13.0137 33.049 14.5825Z" fill="#9CD4FF"/>
<path d="M28.8174 13.0974C28.5366 13.19 28.3469 13.4523 28.3469 13.7479V14.6198H32.0683V13.7479C32.0683 13.4523 31.8786 13.19 31.5978 13.0974L30.8038 12.8356H30.7672C30.9939 12.6467 31.1405 12.3458 31.1405 12.0068C31.1405 11.4348 30.7228 11.0151 30.2076 11.0151C29.6924 11.0151 29.2747 11.4348 29.2747 12.0068C29.2747 12.3458 29.4214 12.6467 29.6481 12.8356H29.6115L28.8174 13.0974Z" fill="#4A98D4"/>
<path d="M25.6369 14.8557C24.5803 16.6859 22.2403 17.3128 20.4101 16.2561C18.5799 15.1995 17.9527 12.8592 19.0093 11.029C20.0659 9.19881 22.4063 8.57193 24.2365 9.62854C26.0666 10.6851 26.6938 13.0255 25.6369 14.8557Z" fill="#4A98D4"/>
<path d="M20.7003 13.1231C20.3727 13.2311 20.1514 13.5371 20.1514 13.882V14.8993H24.493V13.882C24.493 13.5371 24.2716 13.2311 23.9441 13.1231L23.0177 12.8177H22.975C23.2395 12.5973 23.4106 12.2463 23.4106 11.8508C23.4106 11.1834 22.9233 10.6938 22.3222 10.6938C21.7211 10.6938 21.2338 11.1834 21.2338 11.8508C21.2338 12.2462 21.4049 12.5973 21.6694 12.8177H21.6266L20.7003 13.1231Z" fill="white"/>
</svg>
