<svg width="112" height="102" viewBox="0 0 112 102" fill="none" xmlns="http://www.w3.org/2000/svg">
<mask id="path-1-outside-1_592_6442" maskUnits="userSpaceOnUse" x="0" y="0" width="112" height="102" fill="black">
<rect fill="white" width="112" height="102"/>
<path d="M10 22C10 15.3726 15.3726 10 22 10H90C96.6274 10 102 15.3726 102 22V102H10V22Z"/>
</mask>
<path d="M10 22C10 15.3726 15.3726 10 22 10H90C96.6274 10 102 15.3726 102 22V102H10V22Z" fill="#8CCCF9"/>
<path d="M0 22C0 9.84974 9.84974 0 22 0H90C102.15 0 112 9.84974 112 22H92C92 20.8954 91.1046 20 90 20H22C20.8954 20 20 20.8954 20 22H0ZM102 102H10H102ZM0 102V22C0 9.84974 9.84974 0 22 0V20C20.8954 20 20 20.8954 20 22V102H0ZM90 0C102.15 0 112 9.84974 112 22V102H92V22C92 20.8954 91.1046 20 90 20V0Z" fill="white" fill-opacity="0.4" mask="url(#path-1-outside-1_592_6442)"/>
<path d="M91.9891 79.9121C91.8437 82.7443 89.7097 85 87.1139 85H24.8956C22.3007 85 20.162 82.7443 20.0156 79.9121H91.9891Z" fill="#515151"/>
<path d="M88.5463 31.4092V69.8605C88.5463 70.7335 87.9042 71.4415 87.1186 71.4415H24.9003C24.1147 71.4415 23.4801 70.7398 23.4707 69.8751V31.4134C23.4707 30.5769 24.0911 29.8281 24.9003 29.8281H87.1186C87.9051 29.8281 88.5463 30.5361 88.5463 31.4092Z" fill="#508EFE"/>
<path d="M87.1096 26H24.8923C22.1954 26 20 28.427 20 31.4106V73.0648C20 76.0473 22.1954 78.4743 24.8923 78.4743H87.1096C89.8064 78.4743 92 76.0484 92 73.0648V31.4106C92 28.428 89.8064 26 87.1096 26ZM23.4617 31.4106C23.4617 30.5835 24.0802 29.8274 24.8923 29.8274H87.1096C87.8971 29.8274 88.5392 30.5375 88.5392 31.4106V69.8598C88.5392 70.7328 87.8971 71.4408 87.1096 71.4408H24.8923C24.1076 71.4408 23.4711 70.7391 23.4636 69.8755C23.4636 69.8702 23.4626 69.864 23.4626 69.8598L23.4617 31.4106Z" fill="#515151"/>
<path d="M82.5492 29.8281L41.4808 71.4415H24.9003C24.1147 71.4415 23.4801 70.7398 23.4707 69.8751V63.2928L71.9063 29.8281H82.5492Z" fill="#84B0FF"/>
<path d="M70.2434 67.9995H41.2081C38.8841 67.9995 37 66.1154 37 63.7914V37.2081C37 34.8841 38.8841 33 41.2081 33H70.2434C72.5674 33 74.4515 34.8841 74.4515 37.2081V63.7914C74.4515 66.1154 72.5674 67.9995 70.2434 67.9995Z" fill="#F6F9F9"/>
<path d="M42.7873 67.9994H41.2086C38.8839 67.9994 37 66.1156 37 63.7916V37.2086C37 34.8846 38.8839 33 41.2086 33H42.7873C40.4626 33 38.5787 34.8846 38.5787 37.2086V63.7916C38.5787 66.1156 40.4626 67.9994 42.7873 67.9994Z" fill="#DAE7EF"/>
<path d="M58.2085 39.7656L60.2146 53.1516L58.2085 65.7383H41.2084C40.1331 65.7383 39.2612 64.8664 39.2612 63.7911V42.1499C39.2612 40.8334 40.329 39.7656 41.6455 39.7656H58.2085Z" fill="#30579D"/>
<path d="M72.1904 42.1499V63.7911C72.1904 64.8664 71.3185 65.7383 70.2432 65.7383H58.2075V39.7656H69.8061C71.1226 39.7656 72.1904 40.8334 72.1904 42.1499Z" fill="#9DC6FB"/>
<path d="M40.639 37.8366C41.4002 37.8366 42.0172 37.2195 42.0172 36.4583C42.0172 35.6971 41.4002 35.0801 40.639 35.0801C39.8778 35.0801 39.2607 35.6971 39.2607 36.4583C39.2607 37.2195 39.8778 37.8366 40.639 37.8366Z" fill="#E28086"/>
<path d="M45.0198 37.8366C45.781 37.8366 46.3981 37.2195 46.3981 36.4583C46.3981 35.6971 45.781 35.0801 45.0198 35.0801C44.2587 35.0801 43.6416 35.6971 43.6416 36.4583C43.6416 37.2195 44.2587 37.8366 45.0198 37.8366Z" fill="#E28086"/>
<path d="M49.4022 37.8366C50.1634 37.8366 50.7804 37.2195 50.7804 36.4583C50.7804 35.6971 50.1634 35.0801 49.4022 35.0801C48.641 35.0801 48.0239 35.6971 48.0239 36.4583C48.0239 37.2195 48.641 37.8366 49.4022 37.8366Z" fill="#E28086"/>
<path d="M44.0678 44.3002H42.0461C41.734 44.3002 41.481 44.0472 41.481 43.7351C41.481 43.4229 41.734 43.1699 42.0461 43.1699H44.0678C44.3799 43.1699 44.633 43.4229 44.633 43.7351C44.633 44.0472 44.3799 44.3002 44.0678 44.3002Z" fill="#F6F9F9"/>
<path d="M55.7267 44.3002H52.4919C52.1798 44.3002 51.9268 44.0472 51.9268 43.7351C51.9268 43.4229 52.1798 43.1699 52.4919 43.1699H55.7267C56.0388 43.1699 56.2918 43.4229 56.2918 43.7351C56.2918 44.0472 56.0388 44.3002 55.7267 44.3002Z" fill="#E28086"/>
<path d="M50.8749 44.3002H45.7531C45.441 44.3002 45.188 44.0472 45.188 43.7351C45.188 43.4229 45.441 43.1699 45.7531 43.1699H50.8749C51.187 43.1699 51.44 43.4229 51.44 43.7351C51.44 44.0472 51.187 44.3002 50.8749 44.3002Z" fill="#C0E3A0"/>
<path d="M47.3701 47.4584H42.0461C41.734 47.4584 41.481 47.2054 41.481 46.8933C41.481 46.5811 41.734 46.3281 42.0461 46.3281H47.3701C47.6822 46.3281 47.9352 46.5811 47.9352 46.8933C47.9352 47.2054 47.6822 47.4584 47.3701 47.4584Z" fill="#F6F9F9"/>
<path d="M55.7275 47.4584H54.1101C53.7979 47.4584 53.5449 47.2054 53.5449 46.8933C53.5449 46.5811 53.7979 46.3281 54.1101 46.3281H55.7275C56.0396 46.3281 56.2926 46.5811 56.2926 46.8933C56.2926 47.2054 56.0396 47.4584 55.7275 47.4584Z" fill="#E28086"/>
<path d="M52.4923 47.4584H49.0554C48.7433 47.4584 48.4902 47.2054 48.4902 46.8933C48.4902 46.5811 48.7433 46.3281 49.0554 46.3281H52.4923C52.8045 46.3281 53.0575 46.5811 53.0575 46.8933C53.0575 47.2054 52.8045 47.4584 52.4923 47.4584Z" fill="#C0E3A0"/>
<path d="M44.0678 50.6146H42.0461C41.734 50.6146 41.481 50.3616 41.481 50.0495C41.481 49.7374 41.734 49.4844 42.0461 49.4844H44.0678C44.3799 49.4844 44.633 49.7374 44.633 50.0495C44.633 50.3616 44.3799 50.6146 44.0678 50.6146Z" fill="#F6F9F9"/>
<path d="M55.7267 50.6146H52.4919C52.1798 50.6146 51.9268 50.3616 51.9268 50.0495C51.9268 49.7374 52.1798 49.4844 52.4919 49.4844H55.7267C56.0388 49.4844 56.2918 49.7374 56.2918 50.0495C56.2918 50.3616 56.0388 50.6146 55.7267 50.6146Z" fill="#E28086"/>
<path d="M50.8749 50.6146H45.7531C45.441 50.6146 45.188 50.3616 45.188 50.0495C45.188 49.7374 45.441 49.4844 45.7531 49.4844H50.8749C51.187 49.4844 51.44 49.7374 51.44 50.0495C51.44 50.3616 51.187 50.6146 50.8749 50.6146Z" fill="#C0E3A0"/>
<path d="M43.2591 53.7729H42.0461C41.734 53.7729 41.481 53.5198 41.481 53.2077C41.481 52.8956 41.734 52.6426 42.0461 52.6426H43.2591C43.5712 52.6426 43.8242 52.8956 43.8242 53.2077C43.8243 53.5198 43.5712 53.7729 43.2591 53.7729Z" fill="#F6F9F9"/>
<path d="M55.7271 53.7729H49.3923C49.0802 53.7729 48.8271 53.5198 48.8271 53.2077C48.8271 52.8956 49.0802 52.6426 49.3923 52.6426H55.7271C56.0393 52.6426 56.2923 52.8956 56.2923 53.2077C56.2923 53.5198 56.0393 53.7729 55.7271 53.7729Z" fill="#E28086"/>
<path d="M47.7755 53.7729H44.945C44.6329 53.7729 44.3799 53.5198 44.3799 53.2077C44.3799 52.8956 44.6329 52.6426 44.945 52.6426H47.7755C48.0876 52.6426 48.3406 52.8956 48.3406 53.2077C48.3406 53.5198 48.0876 53.7729 47.7755 53.7729Z" fill="#C0E3A0"/>
<path d="M43.057 56.9291H42.0461C41.734 56.9291 41.481 56.6761 41.481 56.364C41.481 56.0518 41.734 55.7988 42.0461 55.7988H43.057C43.3691 55.7988 43.6221 56.0518 43.6221 56.364C43.6221 56.6761 43.3691 56.9291 43.057 56.9291Z" fill="#F6F9F9"/>
<path d="M55.7275 56.9291H54.1101C53.7979 56.9291 53.5449 56.6761 53.5449 56.364C53.5449 56.0518 53.7979 55.7988 54.1101 55.7988H55.7275C56.0396 55.7988 56.2926 56.0518 56.2926 56.364C56.2926 56.6761 56.0396 56.9291 55.7275 56.9291Z" fill="#E28086"/>
<path d="M52.493 56.9291H44.7429C44.4308 56.9291 44.1777 56.6761 44.1777 56.364C44.1777 56.0518 44.4308 55.7988 44.7429 55.7988H52.4929C52.805 55.7988 53.058 56.0518 53.058 56.364C53.058 56.6761 52.8051 56.9291 52.493 56.9291Z" fill="#C0E3A0"/>
<path d="M62.811 55.5145C62.6664 55.5145 62.5217 55.4593 62.4114 55.349L60.2153 53.1529C60.1093 53.047 60.0498 52.9032 60.0498 52.7533C60.0498 52.6035 60.1093 52.4597 60.2153 52.3537L62.4114 50.1577C62.6321 49.937 62.9899 49.937 63.2106 50.1577C63.4314 50.3784 63.4314 50.7362 63.2106 50.957L61.4142 52.7534L63.2106 54.5498C63.4314 54.7705 63.4314 55.1283 63.2106 55.349C63.1002 55.4594 62.9556 55.5145 62.811 55.5145Z" fill="#30579D"/>
<path d="M67.4719 55.5146C67.3273 55.5146 67.1826 55.4594 67.0723 55.349C66.8515 55.1284 66.8515 54.7705 67.0723 54.5498L68.8687 52.7534L67.0723 50.957C66.8515 50.7363 66.8515 50.3785 67.0723 50.1577C67.293 49.937 67.6508 49.937 67.8716 50.1577L70.0676 52.3537C70.1736 52.4597 70.2332 52.6035 70.2332 52.7533C70.2332 52.9032 70.1736 53.047 70.0676 53.1529L67.8716 55.349C67.7612 55.4594 67.6165 55.5146 67.4719 55.5146Z" fill="#30579D"/>
<path d="M64.3045 56.7755C64.2628 56.7755 64.2204 56.7709 64.178 56.7612C63.8738 56.6915 63.6835 56.3884 63.7531 56.0842L65.3352 49.1697C65.4048 48.8654 65.7079 48.6751 66.0122 48.7449C66.3164 48.8145 66.5067 49.1176 66.4371 49.4219L64.855 56.3363C64.795 56.5981 64.5621 56.7755 64.3045 56.7755Z" fill="#30579D"/>
</svg>
