<svg width="112" height="102" viewBox="0 0 112 102" fill="none" xmlns="http://www.w3.org/2000/svg">
<mask id="path-1-outside-1_592_6406" maskUnits="userSpaceOnUse" x="0" y="0" width="112" height="102" fill="black">
<rect fill="white" width="112" height="102"/>
<path d="M10 22C10 15.3726 15.3726 10 22 10H90C96.6274 10 102 15.3726 102 22V102H10V22Z"/>
</mask>
<path d="M10 22C10 15.3726 15.3726 10 22 10H90C96.6274 10 102 15.3726 102 22V102H10V22Z" fill="#8CCCF9"/>
<path d="M0 22C0 9.84974 9.84974 0 22 0H90C102.15 0 112 9.84974 112 22H92C92 20.8954 91.1046 20 90 20H22C20.8954 20 20 20.8954 20 22H0ZM102 102H10H102ZM0 102V22C0 9.84974 9.84974 0 22 0V20C20.8954 20 20 20.8954 20 22V102H0ZM90 0C102.15 0 112 9.84974 112 22V102H92V22C92 20.8954 91.1046 20 90 20V0Z" fill="white" fill-opacity="0.4" mask="url(#path-1-outside-1_592_6406)"/>
<path fill-rule="evenodd" clip-rule="evenodd" d="M49.2223 79.6148L45.7577 88.3237C45.5681 88.8713 45.8103 89.482 46.3579 89.7243C46.4843 89.7874 46.6001 89.7874 46.7265 89.7874C47.0951 89.7874 47.5163 89.482 47.7585 89.1135H67.1876C67.3035 89.5452 67.7352 89.7874 68.1564 89.7874C68.2828 89.7874 68.4618 89.7243 68.5882 89.7243C69.1358 89.482 69.4307 88.8713 69.1884 88.3237L65.7239 79.6148C65.4816 79.0672 64.8709 78.7618 64.3233 79.0145C62.3224 79.0145 49.8015 78.309 49.2223 79.6148Z" fill="#2862CB"/>
<path fill-rule="evenodd" clip-rule="evenodd" d="M89.2814 81.0779H25.6023C22.4958 81.0779 20 78.5821 20 75.4756V34.6902C20 31.5837 22.4958 29.0879 25.6023 29.0879H89.2814C92.3879 29.0879 94.8837 31.5837 94.8837 34.6902V75.4756C94.8837 78.5821 92.3248 81.0779 89.2814 81.0779Z" fill="#508EFE"/>
<path fill-rule="evenodd" clip-rule="evenodd" d="M90.4918 72.7369V34.6895C90.4918 34.0051 89.9652 33.4785 89.2807 33.4785H25.6017C24.9172 33.4785 24.3906 34.0051 24.3906 34.6895V72.7369H90.4918Z" fill="#CFE8FF"/>
<path fill-rule="evenodd" clip-rule="evenodd" d="M76.0118 89.7861H38.8701C38.2593 89.7861 37.7749 89.3017 37.7749 88.6909C37.7749 88.0801 38.2593 87.5957 38.8701 87.5957H76.0118C76.6226 87.5957 77.107 88.0801 77.107 88.6909C77.107 89.3017 76.6226 89.7861 76.0118 89.7861Z" fill="#508EFE"/>
<path fill-rule="evenodd" clip-rule="evenodd" d="M85.4371 31.1731V24.0859C85.4371 21.8323 83.6047 20 81.3512 20H33.6472C31.3936 20 29.5718 21.8323 29.5718 24.0859V31.1731L61.1112 36.5753L85.4371 31.1731Z" fill="#84B0FF"/>
<path fill-rule="evenodd" clip-rule="evenodd" d="M37.8497 26.6866H35.238C34.6273 26.6866 34.1323 26.1916 34.1323 25.5808C34.1323 24.9806 34.6905 24.5488 35.238 24.5488H37.8497C38.4604 24.5488 38.9554 25.0332 38.9554 25.644C38.9554 26.2548 38.4604 26.6866 37.8497 26.6866Z" fill="#F92D2D"/>
<path fill-rule="evenodd" clip-rule="evenodd" d="M44.6724 26.6872H42.0608C41.45 26.6872 40.9551 26.1923 40.9551 25.5815C40.9551 24.9813 41.45 24.4863 42.0608 24.4863H44.6724C45.2832 24.4863 45.7781 24.9813 45.7781 25.5815C45.7781 26.1923 45.2832 26.6872 44.6724 26.6872Z" fill="#51FF1C"/>
<path fill-rule="evenodd" clip-rule="evenodd" d="M51.4976 26.6872H48.886C48.2752 26.6872 47.7803 26.1923 47.7803 25.5815C47.7803 24.9813 48.2752 24.4863 48.886 24.4863H51.4976C52.1084 24.4863 52.6033 24.9813 52.6033 25.5815C52.6033 26.1923 52.0452 26.6872 51.4976 26.6872Z" fill="#E4F225"/>
<path fill-rule="evenodd" clip-rule="evenodd" d="M81.4143 68.1997H33.6472C31.3936 68.1997 29.5718 66.3674 29.5718 64.177V31.1738H85.4371V64.1138C85.5003 66.3674 83.6679 68.1997 81.4143 68.1997Z" fill="white"/>
<path fill-rule="evenodd" clip-rule="evenodd" d="M57.4386 59.7511C56.4545 59.7511 55.5168 59.3482 54.8427 58.6818L54.1298 57.9611H53.0992C51.0845 57.9611 49.4262 56.3029 49.4262 54.2882V53.2653L48.7133 52.5447C48.0392 51.8705 47.6362 50.9329 47.6362 49.9488C47.6362 48.9647 48.0392 48.0271 48.7133 47.3529L49.4262 46.64V45.6094C49.4262 43.5947 51.0845 41.9365 53.0992 41.9365H54.1298L54.8427 41.2236C55.5168 40.5494 56.4545 40.1465 57.4386 40.1465C58.4304 40.1465 59.368 40.5494 60.0344 41.2236L60.7551 41.9365H61.7857C63.8004 41.9365 65.4509 43.5947 65.4509 45.6094V46.64L66.1715 47.3529C66.8457 48.0271 67.2486 48.9647 67.2486 49.9488C67.2486 50.9329 66.8457 51.8705 66.1715 52.5447L65.4509 53.2653V54.2882C65.4509 56.3029 63.8004 57.9611 61.7857 57.9611H60.7551L60.0344 58.6818C59.368 59.3482 58.4304 59.7511 57.4386 59.7511Z" fill="#EE4444"/>
<path fill-rule="evenodd" clip-rule="evenodd" d="M57.5833 53.3582C57.018 53.3582 56.5518 52.9135 56.5518 52.3528V44.31C56.5518 43.7494 57.018 43.3047 57.5833 43.3047C58.1587 43.3047 58.6149 43.7494 58.6149 44.31V52.4108C58.5653 52.9135 58.1587 53.3582 57.5833 53.3582Z" fill="white"/>
<path fill-rule="evenodd" clip-rule="evenodd" d="M57.5833 57.264C57.018 57.264 56.5518 56.8193 56.5518 56.2586V55.8139C56.5518 55.2533 57.018 54.8086 57.5833 54.8086C58.1587 54.8086 58.6149 55.2533 58.6149 55.8139V56.3166C58.5653 56.8193 58.1587 57.264 57.5833 57.264Z" fill="white"/>
</svg>
