<svg width="414" height="255" viewBox="0 0 414 255" fill="none" xmlns="http://www.w3.org/2000/svg">
<g opacity="0.6">
<path d="M66.9763 28.0627L66.9877 28.1248L83.7764 40.4965L83.6008 40.3762L84.1159 40.7469L86.3223 42.3728C86.2532 42.3287 86.0407 42.178 85.6056 41.8602C87.198 43.0574 87.0271 42.8907 88.3933 43.9239C88.5436 44.0388 88.4744 43.99 88.3332 43.8879L89.9009 45.0289C89.5914 44.811 90.1503 45.2466 89.1921 44.5336C91.9892 46.6225 93.7278 47.8398 94.7727 48.6463L94.5374 48.4757C97.4516 50.611 96.2247 49.6933 96.6459 49.9802L98.467 51.3221L99.7954 52.3606L100.189 52.6155C100.591 52.9125 101.384 53.4999 101.233 53.4024C102.735 54.4851 100.983 53.2028 101.857 53.8245C103.78 55.2735 107.192 57.7404 107.61 58.1048C108.312 58.5954 105.768 56.7266 107.837 58.2328C108.407 58.7131 110.226 59.9829 111.983 61.3052C111.431 60.9297 109.763 59.6842 111.522 61.0077C112.604 61.7522 114.957 63.5507 116.449 64.6404C116.491 64.6498 117.302 65.2433 118.415 66.063C119.529 66.8828 120.945 67.929 122.197 68.8445C122.035 68.7388 126.893 72.3281 129.213 74.053L129.142 74.008C129.606 74.307 132.002 76.0807 133.751 77.3608C133.674 77.3299 133.357 77.1059 132.407 76.4177L134.049 77.6272C134.44 77.9021 134.955 78.2741 136.021 79.055L135.598 78.7752C137.784 80.3841 140.01 81.989 142.815 84.0771C142.929 84.1406 141.875 83.3336 142.108 83.4816L143.634 84.6057C143.58 84.5761 143.413 84.4618 143.011 84.1689C143.266 84.3549 143.924 84.8283 144.435 85.2119L143.239 84.3575C144.516 85.3101 143.915 84.8336 144.939 85.5899C144.911 85.5925 145.691 86.1608 145.539 86.0665C145.277 85.8756 144.649 85.4012 144.254 85.1193C145.407 85.973 146.798 87.0116 147.254 87.3647C147.157 87.2805 147.263 87.341 148.109 87.9617C150.295 89.5705 148.849 88.5339 150.12 89.4821C150.654 89.8597 152.043 90.8998 152.09 90.9005C152.729 91.3719 152.843 91.4713 153.087 91.6603C154.222 92.482 158.37 95.5494 157.107 94.5823L156.818 94.3667C156.872 94.4063 156.936 94.4531 157.003 94.5018C160.72 97.207 164.697 100.191 168.379 102.889L168.37 102.894C170.569 104.502 173.258 106.489 174.834 107.625C175.483 108.104 176.36 108.77 176.078 108.576C177.759 109.806 177.951 109.935 180.369 111.736C178.676 110.508 180.946 112.178 178.636 110.473C180.813 112.087 181.301 112.465 183.652 114.167C182.846 113.602 185.282 115.405 186.322 116.162L184.8 115.02C185.967 115.876 186.985 116.628 188.02 117.393L187.448 117.01C191.374 119.944 194.658 122.271 197.693 124.539C197.132 124.139 196.74 123.86 196.39 123.611L195.784 123.167L195.276 122.797L196.344 123.578C195.601 123.048 195.023 122.63 193.349 121.405C192.807 121.003 192.832 121.003 193.445 121.458C191.682 120.147 192.004 120.428 189.698 118.714L190.593 119.353C188.569 117.861 188.727 117.988 187.605 117.186C186.328 116.259 183.767 114.353 183.477 114.111C183.199 113.924 182.083 113.126 180.892 112.242C180.735 112.115 181.171 112.429 181.391 112.587C178.012 110.079 176.346 108.912 174.027 107.174C173.982 107.13 173.832 107.014 173.64 106.87C176.091 108.675 178.106 110.159 178.289 110.296C178.268 110.251 176.141 108.68 177.87 109.912C177.583 109.705 177.263 109.473 176.92 109.225C176.806 109.138 176.675 109.036 176.695 109.045L176.587 108.985C174.87 107.744 172.668 106.151 171.009 104.92C170.907 104.842 170.808 104.766 170.733 104.706L170.953 104.865C170.465 104.503 170.027 104.183 169.613 103.883C168.939 103.382 168.511 103.064 167.862 102.586C167.619 102.382 165.375 100.742 164.292 99.9442C164.371 100.034 162.986 99.01 164.238 99.9575C164.2 99.9274 164.567 100.197 165.202 100.663C165.365 100.782 165.557 100.923 165.665 101C165.644 100.985 165.618 100.967 165.59 100.948C166.301 101.471 167.229 102.153 168.283 102.927C167.423 102.311 166.524 101.663 165.332 100.768C164.77 100.375 164.151 99.9412 163.804 99.6953C162.335 98.5693 159.486 96.4476 159.096 96.1333C155.784 93.7134 151.302 90.4086 149.204 88.9255C148.26 88.2393 148.128 88.1162 147.779 87.8503C148.324 88.2451 148.969 88.721 149.266 88.9303C147.381 87.559 143.694 84.8354 143.232 84.5383C140.868 82.7792 144.576 85.488 141.318 83.097L141.761 83.4104C135.497 78.7333 131.466 75.9356 124.635 70.8318C124.869 71.0067 125.006 71.1105 125.073 71.1648C116.988 65.1761 108.377 58.9132 100.406 52.986C98.1388 51.3051 97.8846 51.1452 96.4923 50.1411L96.0109 49.7521L93.6288 48.0392C90.2597 45.589 87.8359 43.6902 83.5645 40.6024L84.1062 41.0245C82.5796 39.8965 79.2623 37.4733 79.5255 37.64C79.3679 37.5282 79.017 37.2901 78.4235 36.8413L78.3826 36.7928L74.6197 34.0548C71.7143 31.9033 75.097 34.3336 70.8522 31.2061C69.6075 30.2956 67.5269 28.7942 66.9862 28.4145C66.9694 28.3574 66.9579 28.3472 66.9571 28.394C66.8369 28.31 66.8145 28.2974 66.9307 28.3854C66.9391 28.3916 66.9484 28.3984 66.957 28.4048C66.9571 28.415 66.9577 28.427 66.9586 28.4413L66.8626 28.376L66.959 28.4463C66.9592 28.4493 66.9595 28.4526 66.9597 28.4558C66.899 28.4112 66.8656 28.3866 66.8602 28.3826L66.8657 28.4172C66.7518 28.3505 66.6943 28.3248 66.8747 28.4733L66.8844 28.5343L83.6795 40.9493L83.5041 40.8284L84.0191 41.2002L86.2264 42.832C86.1572 42.7876 85.9444 42.6364 85.5092 42.3174C87.1019 43.5184 86.9314 43.3516 88.2978 44.3881C88.448 44.5033 88.3788 44.4543 88.2376 44.3519L89.8059 45.4969C89.4962 45.2781 90.0551 45.715 89.0967 44.9998C91.8944 47.0957 93.6342 48.3178 94.6791 49.1266L94.4434 48.9555C97.3585 51.0983 96.1316 50.1775 96.5528 50.4655L98.3746 51.8121L99.703 52.8537L100.097 53.1099C100.499 53.4078 101.293 53.9973 101.141 53.8993C102.644 54.986 100.891 53.6992 101.766 54.3233C103.689 55.7772 107.102 58.2528 107.52 58.618C108.223 59.1105 105.678 57.2352 107.748 58.7469C108.317 59.2282 110.138 60.5031 111.895 61.8299C111.343 61.4528 109.674 60.2031 111.433 61.531C112.516 62.2784 114.869 64.0825 116.362 65.1761C116.404 65.1859 117.215 65.7813 118.329 66.6038C119.443 67.4263 120.86 68.4763 122.112 69.3949C121.95 69.2887 126.81 72.8903 129.13 74.6211L129.06 74.5758C129.523 74.8762 131.92 76.656 133.67 77.9404C133.593 77.9091 133.275 77.6844 132.326 76.9936L133.968 78.2074C134.359 78.4833 134.874 78.8566 135.941 79.6403L135.518 79.3594C137.704 80.9738 139.931 82.5845 142.737 84.6797C142.851 84.7434 141.797 83.9342 142.03 84.0827L143.556 85.2105C143.502 85.1807 143.335 85.0662 142.933 84.772C143.188 84.9589 143.846 85.4338 144.358 85.8186L143.161 84.9611C144.438 85.9169 143.838 85.4391 144.861 86.1978C144.834 86.2003 145.614 86.7706 145.461 86.6756C145.199 86.484 144.571 86.008 144.176 85.7251C145.329 86.5817 146.721 87.6238 147.177 87.9781C147.08 87.8939 147.186 87.9546 148.033 88.5774C150.219 90.1919 148.772 89.1514 150.043 90.1029C150.578 90.4821 151.967 91.5253 152.015 91.5264C152.654 91.9995 152.768 92.099 153.011 92.2887C154.147 93.1134 158.297 96.1912 157.033 95.221L156.744 95.0047C156.798 95.0445 156.863 95.0914 156.929 95.1403C160.648 97.8551 164.625 100.849 168.309 103.557L168.299 103.561C170.5 105.175 173.189 107.168 174.765 108.309C175.415 108.789 176.292 109.458 176.01 109.263C177.691 110.497 177.884 110.627 180.302 112.434C178.608 111.201 180.879 112.878 178.568 111.166C180.746 112.786 181.235 113.165 183.586 114.873C182.78 114.306 185.217 116.115 186.257 116.875L184.735 115.729C185.902 116.587 186.92 117.343 187.955 118.11L187.383 117.726C191.832 121.061 195.458 123.615 198.831 126.187C200.02 127.039 196.413 124.38 197.479 125.137C199.53 126.658 201.652 128.282 202.295 128.757C205.101 130.853 204.937 130.654 207.876 132.841C207.504 132.553 207.16 132.262 209.363 133.878C211.417 135.401 211.871 135.789 210.57 134.838C210.077 134.475 209.84 134.296 209.863 134.308C209.197 133.821 208.325 133.181 209.133 133.794L209.404 133.981C210.419 134.745 213.246 136.833 212.575 136.36C213.902 137.329 213.455 136.99 212.583 136.34C214.92 138.081 216.387 139.149 218.924 141.037C218.495 140.713 218.103 140.407 218.532 140.724C222.505 143.678 220.292 141.999 222.99 143.987C224.515 145.136 222.425 143.62 225.145 145.612C226.797 146.848 225.484 145.9 224.822 145.421C227.303 147.229 229.436 148.85 230.847 149.897L229.541 148.943C230.322 149.514 230.959 149.985 231.609 150.465L230.874 149.895C231.255 150.179 231.608 150.442 231.863 150.632C232.118 150.822 232.276 150.941 232.266 150.94C233.06 151.509 231.678 150.46 233.249 151.597C234.264 152.361 236.359 153.88 236.699 154.168C233.819 152.028 236.396 153.972 234.968 152.928C235.349 153.209 235.777 153.527 236.255 153.883C236.369 153.971 236.144 153.809 235.934 153.656C238.992 155.948 237.357 154.666 240.537 157.018C240.126 156.735 241.261 157.592 241.782 157.972C240.5 157.025 241.18 157.493 242.36 158.35C244.394 159.869 244.58 159.979 245.647 160.77L244.431 159.863C244.851 160.153 245.869 160.909 247.292 161.954C247.329 161.986 247.216 161.905 247.059 161.791C248.542 162.875 250.307 164.235 252.265 165.661C253.28 166.425 252.351 165.763 253.243 166.432C255.718 168.235 255.905 168.428 258.504 170.327C257.766 169.754 257.633 169.662 259.467 170.991L255.2 167.856L257.947 169.847C256.661 168.896 255.228 167.854 254.459 167.281C255.769 168.227 255.633 168.133 255.025 167.661C256.771 168.993 258.521 170.221 260.546 171.746L260.463 171.752C263.511 174.036 265.907 175.742 269.873 178.691L268.6 177.738C269.142 178.111 271.053 179.548 272.343 180.49C272.216 180.419 273.017 181.019 273.561 181.436C273.5 181.374 276.467 183.586 276.843 183.817L278.606 185.151C281.808 187.53 282.286 187.806 285.366 190.091C284.429 189.423 285.825 190.471 283.754 188.958C284.269 189.339 284.758 189.7 285.119 189.968C285.482 190.235 285.718 190.406 285.729 190.406C286.325 190.862 288.592 192.492 289.532 193.208C289.969 193.521 290.118 193.608 291.273 194.463C291.346 194.52 291.33 194.512 291.305 194.495C291.564 194.678 292.992 195.728 292.077 195.028C295.224 197.426 300.939 201.574 303.679 203.661C305.927 205.317 308.635 207.312 310.675 208.815C310.542 208.724 310.665 208.819 310.28 208.532C313.085 210.628 312.03 209.761 315.223 212.145C316.846 213.381 313.517 210.903 314.532 211.668C314.952 212.053 318.398 214.515 320.537 216.141L320.014 215.758C321.652 216.995 324.04 218.706 326.728 220.698C326.728 220.698 326.595 220.607 326.709 220.695C328.56 222.026 332.047 224.59 334.638 226.495C333.823 225.922 333.457 225.638 333.939 226.024C335.1 226.878 333.615 225.736 335.932 227.441C336.68 228.01 338.346 229.255 338.557 229.443L336.373 227.83C337.478 228.689 339.2 229.919 340.348 230.775L340.196 230.68C343.544 233.15 343.605 233.149 347.202 235.811L346.834 235.526C348.814 236.944 348.474 236.763 350.446 238.187L351.024 238.661C352.325 239.611 355.582 241.986 357.911 243.699C356.582 242.75 353.855 240.752 352.164 239.522C353.45 240.473 356.535 242.749 357.211 243.227C356.692 242.847 356.035 242.373 355.526 241.99C357.115 243.128 359.196 244.649 361.758 246.544C361.614 246.464 362.154 246.875 363.03 247.53C363.469 247.856 363.991 248.244 364.553 248.662C365.185 249.13 365.862 249.631 366.536 250.13C366.467 249.674 366.398 249.22 366.336 248.806C366.409 248.86 366.481 248.914 366.554 248.967C366.464 248.451 366.375 247.938 366.295 247.481C366.049 247.3 365.813 247.125 365.59 246.96C365.409 246.825 365.238 246.697 365.078 246.578C364.76 246.34 364.491 246.137 364.287 245.98C359.742 242.678 355.294 239.368 350.008 235.495C351.861 236.923 348.465 234.365 348.768 234.658C347.545 233.765 347.074 233.418 346.961 233.331L347.219 233.523C347.109 233.441 347.047 233.395 346.953 233.325L346.953 233.325L343.241 230.559C342.364 229.895 344.417 231.406 344.308 231.311C341.615 229.33 343.187 230.458 341.409 229.135C341.767 229.423 340.461 228.476 338.928 227.342L341.081 228.954C337.304 226.221 337.844 226.52 334.037 223.764L335.244 224.627C333.292 223.209 328.059 219.355 326.132 217.999C325.79 217.739 325.341 217.39 326.2 218.016C321.547 214.594 315.819 210.46 312.212 207.778L312.57 208.024C311.7 207.391 311.048 206.94 309.966 206.129C310.025 206.164 310.321 206.372 309.919 206.076C309.458 205.744 307.604 204.407 306.456 203.555L307.445 204.261C302.911 200.913 300.462 199.186 296.651 196.401C296.664 196.385 295.778 195.719 294.666 194.892C293.555 194.065 292.218 193.078 291.327 192.42L291.392 192.46C286.106 188.576 282.398 185.904 277.495 182.327C274.473 180.054 267.207 174.756 262.331 171.148C263.076 171.703 262.198 171.09 261.328 170.457C260.185 169.608 258.149 168.159 258.345 168.256L258.753 168.557C257.903 167.888 255.543 166.168 253.704 164.818L253.383 164.643C248.598 161.044 240.766 155.42 238.164 153.431C236.999 152.591 235.56 151.536 234.405 150.703L234.477 150.724C231.262 148.357 229.657 147.175 225.679 144.264L226.497 144.841C224.254 143.194 223.636 142.837 221.567 141.32L220.959 140.825C217.046 137.955 213.098 135.016 209.218 132.214C209.284 132.255 209.403 132.328 210.037 132.792C208.261 131.488 203.295 127.815 203.525 128.041C203.434 127.967 203.211 127.8 202.894 127.566C202.481 127.261 201.911 126.844 201.276 126.382C200.006 125.457 198.476 124.349 197.416 123.581L197.755 123.797C195.959 122.521 195.899 122.488 193.405 120.669C192.863 120.268 192.888 120.268 193.501 120.722C191.738 119.415 192.061 119.696 189.755 117.988L190.65 118.624C188.627 117.137 188.785 117.264 187.663 116.465C186.387 115.541 183.826 113.642 183.536 113.4C183.258 113.214 182.143 112.419 180.953 111.538C180.795 111.411 181.231 111.724 181.451 111.882C178.073 109.382 176.408 108.22 174.09 106.488C174.045 106.444 173.895 106.328 173.703 106.184C176.153 107.983 178.168 109.462 178.35 109.598C178.329 109.554 176.203 107.988 177.93 109.215C176.18 107.953 173.185 105.805 171.073 104.241C170.971 104.163 170.872 104.088 170.796 104.028L171.016 104.186C170.528 103.825 170.09 103.506 169.677 103.208C169.003 102.708 168.575 102.391 167.926 101.915C167.683 101.712 165.44 100.077 164.358 99.2821C164.437 99.3722 163.052 98.3515 164.304 99.2959C164.265 99.2656 164.633 99.534 165.268 99.9986C165.431 100.117 165.623 100.257 165.731 100.335C165.709 100.32 165.684 100.302 165.656 100.283C166.367 100.804 167.294 101.483 168.348 102.256C167.488 101.641 166.59 100.996 165.398 100.103C164.836 99.712 164.218 99.2802 163.87 99.0353C162.402 97.9128 159.553 95.7982 159.164 95.4848C155.852 93.0735 151.372 89.7801 149.275 88.3025C148.332 87.6188 148.199 87.4958 147.851 87.2307C148.396 87.6242 149.041 88.0983 149.337 88.3068C147.453 86.9402 143.767 84.2262 143.305 83.9303C140.942 82.1772 144.648 84.8764 141.391 82.4937L141.834 82.8059C135.571 78.1442 131.543 75.3575 124.713 70.2702C124.947 70.4451 125.085 70.5488 125.152 70.6031C117.07 64.6348 108.462 58.3943 100.493 52.4871C98.2265 50.8117 97.9726 50.6527 96.581 49.6523L96.0995 49.2644L93.7185 47.5577C90.3508 45.1163 87.9268 43.2231 83.6574 40.1465L84.1991 40.5674C82.673 39.4432 79.3567 37.0285 79.6197 37.1946C79.4621 37.0832 79.1117 36.8463 78.5183 36.3987L78.4773 36.3503L74.7159 33.6221C71.8114 31.478 75.1924 33.8992 70.949 30.7826C69.7041 29.8749 67.6233 28.3779 67.084 28.0007C67.0655 27.9419 67.0538 27.9316 67.0543 27.9801C66.9351 27.8971 66.9133 27.8848 67.029 27.9721C67.0372 27.9782 67.0463 27.9848 67.0545 27.9909C67.055 28.0014 67.0559 28.0139 67.0571 28.0283L66.9612 27.9633L67.0576 28.0335C67.058 28.0366 67.0583 28.0398 67.0586 28.0431C66.9977 27.9983 66.964 27.9738 66.9586 27.9697L66.9651 28.005C66.8512 27.9383 66.793 27.9124 66.9763 28.0627ZM166.307 101.446C166.286 101.431 166.242 101.401 166.221 101.386C166.292 101.432 166.372 101.485 166.511 101.583C167.232 102.109 167.472 102.292 167.568 102.37C167.228 102.12 166.83 101.829 166.307 101.446ZM166.372 100.778C166.351 100.764 166.308 100.734 166.286 100.719C166.357 100.765 166.437 100.818 166.576 100.915C167.297 101.44 167.536 101.622 167.633 101.7C167.292 101.451 166.894 101.16 166.372 100.778ZM209.42 133.106C210.943 134.232 211.585 134.735 211.285 134.533C210.835 134.204 210.385 133.876 209.936 133.55C209.921 133.538 209.916 133.533 209.92 133.535C209.679 133.359 209.411 133.163 209.205 133.014C209.284 133.065 209.453 133.179 209.987 133.57C209.436 133.164 208.577 132.53 207.663 131.854C207.623 131.809 207.969 132.045 209.42 133.106ZM260.588 170.845C259.545 170.082 258.32 169.201 258.298 169.157C259.03 169.69 259.787 170.244 260.588 170.845ZM223.677 143.674C223.064 143.244 222.433 142.799 221.52 142.128L221.035 141.733C221.588 142.131 221.362 141.946 223.043 143.181C223.67 143.652 223.686 143.674 223.677 143.674ZM89.0211 44.3665C88.9254 44.2943 88.8548 44.2406 88.8053 44.2023L89.7442 44.8942C89.5179 44.7293 89.2786 44.5547 89.0211 44.3665ZM197.54 124.396C198.593 125.174 199.664 125.98 200.545 126.643C200.048 126.281 199.533 125.906 199.037 125.545C199.725 126.03 196.529 123.68 197.54 124.396ZM197.698 124.543C198.071 124.822 198.441 125.101 198.808 125.379C198.282 124.996 197.784 124.635 197.361 124.327L197.698 124.543ZM67.0018 28.4778L67.1502 28.5861C67.1828 28.604 67.216 28.6223 67.2177 28.6177L67.0001 28.4698L66.9993 28.465C66.9962 28.4517 66.993 28.44 66.9901 28.4293C67.627 28.8995 68.5556 29.5933 68.5966 29.6412L67.1499 28.5861C67.1326 28.5767 67.1118 28.5648 67.0893 28.5515C67.0575 28.5282 67.0285 28.5068 67.0035 28.4883L67.0018 28.4778ZM88.9259 44.833C88.83 44.7605 88.7595 44.7067 88.7099 44.6683L89.6494 45.3629C89.423 45.1972 89.1836 45.0219 88.9259 44.833ZM156.919 95.1335L156.924 95.1367C156.924 95.1367 156.923 95.1366 156.919 95.1335ZM67.1014 28.0649L67.2493 28.1725C67.282 28.1903 67.3149 28.2085 67.3167 28.2039L67.0995 28.0567L67.0984 28.051C67.095 28.0378 67.0918 28.0265 67.0887 28.0156C67.7254 28.4842 68.6541 29.1759 68.6952 29.2237L67.2492 28.1723C67.2318 28.1629 67.2113 28.1511 67.1887 28.1379C67.1573 28.1149 67.1285 28.0939 67.1033 28.0754L67.1014 28.0649Z" fill="url(#paint0_linear_592_6269)"/>
<path d="M364.38 249.875C364.135 249.692 363.9 249.516 363.677 249.35C363.497 249.214 363.326 249.086 363.168 248.966C362.851 248.727 362.583 248.522 362.38 248.364C357.85 245.041 353.417 241.712 348.15 237.815C349.996 239.252 346.612 236.678 346.913 236.972C345.694 236.073 345.225 235.725 345.113 235.637L345.37 235.83C345.26 235.748 345.198 235.701 345.105 235.631L345.105 235.631L341.406 232.849C340.531 232.18 342.577 233.701 342.469 233.605C339.786 231.612 341.352 232.747 339.58 231.416C339.937 231.706 338.635 230.753 337.108 229.611L339.253 231.233C335.489 228.483 336.028 228.785 332.233 226.012L333.437 226.881C331.491 225.453 326.276 221.576 324.355 220.21C324.015 219.95 323.567 219.599 324.423 220.228C319.786 216.785 314.077 212.626 310.483 209.928L310.84 210.175C309.973 209.538 309.323 209.084 308.245 208.268C308.303 208.304 308.599 208.513 308.198 208.215C307.738 207.88 305.89 206.536 304.746 205.678L305.732 206.389C301.214 203.02 298.773 201.282 294.975 198.48C294.987 198.464 294.105 197.794 292.997 196.962C291.89 196.13 290.557 195.137 289.67 194.475L289.734 194.516C284.467 190.608 280.771 187.919 275.885 184.32C272.873 182.034 265.632 176.702 260.773 173.073C261.515 173.631 260.64 173.014 259.773 172.376C258.634 171.522 256.604 170.065 256.8 170.163L257.207 170.465C256.36 169.792 254.009 168.062 252.176 166.703L251.855 166.527C247.087 162.906 239.281 157.246 236.689 155.246C235.528 154.401 234.094 153.34 232.942 152.502L233.014 152.522C229.811 150.141 228.211 148.952 224.246 146.023L225.062 146.604C222.827 144.946 222.21 144.586 220.148 143.06L219.543 142.563C215.643 139.675 211.709 136.718 207.842 133.899C207.908 133.94 208.026 134.014 208.659 134.48C206.889 133.168 201.94 129.473 202.168 129.7C202.077 129.626 201.855 129.457 201.539 129.222C201.128 128.915 200.56 128.496 199.927 128.03C198.662 127.1 197.136 125.985 196.08 125.212L196.418 125.43C194.627 124.145 194.567 124.112 192.082 122.282C191.542 121.879 191.567 121.879 192.178 122.335C190.421 121.021 190.743 121.303 188.445 119.584L189.337 120.224C187.321 118.728 187.478 118.856 186.36 118.052C185.088 117.123 182.536 115.212 182.248 114.969C181.97 114.781 180.858 113.981 179.672 113.094C179.515 112.967 179.95 113.282 180.169 113.441C176.803 110.926 175.143 109.756 172.834 108.013C172.789 107.969 172.639 107.853 172.448 107.708C174.89 109.518 176.897 111.006 177.08 111.144C177.059 111.099 174.94 109.524 176.662 110.758C174.917 109.489 171.932 107.327 169.827 105.753C169.726 105.675 169.627 105.599 169.552 105.539L169.771 105.698C169.285 105.335 168.848 105.014 168.436 104.714C167.765 104.212 167.338 103.892 166.692 103.413C166.45 103.209 164.214 101.565 163.136 100.765C163.214 100.855 161.834 99.8279 163.081 100.778C163.044 100.748 163.411 101.018 164.042 101.485C164.205 101.604 164.396 101.746 164.503 101.823C164.482 101.808 164.456 101.79 164.429 101.771C165.137 102.295 166.062 102.979 167.112 103.756C166.254 103.137 165.359 102.488 164.171 101.59C163.611 101.196 162.995 100.762 162.649 100.515C161.186 99.3863 158.347 97.2588 157.96 96.9438C154.659 94.5176 150.194 91.2039 148.104 89.7169C147.164 89.029 147.032 88.9055 146.685 88.6389C147.228 89.0347 147.871 89.512 148.166 89.7218C146.288 88.3466 142.615 85.6159 142.155 85.318C139.799 83.5543 143.493 86.2703 140.247 83.8729L140.689 84.1871C134.448 79.4971 130.432 76.6917 123.625 71.5731C123.859 71.7497 123.997 71.8544 124.064 71.9088C116.009 65.9043 107.43 59.6247 99.4893 53.6817C97.2307 51.9962 96.9773 51.8359 95.5902 50.8292L95.1108 50.439L92.7376 48.7216C89.3811 46.265 86.9666 44.3612 82.7112 41.2651L83.2508 41.6883C81.7298 40.5573 78.4249 38.1278 78.6873 38.2949C78.5303 38.183 78.1806 37.9441 77.5894 37.494L77.5488 37.4455L73.8001 34.7003C70.9056 32.5431 74.2758 34.98 70.0469 31.8441C68.8063 30.9306 66.7322 29.4243 66.1946 29.0446C66.1768 28.9858 66.165 28.9755 66.1651 29.0237C66.0461 28.9401 66.0245 28.9278 66.1399 29.0156C66.1481 29.0217 66.1572 29.0283 66.1654 29.0344C66.1658 29.0449 66.1665 29.0573 66.1676 29.0718L66.072 29.0064L66.1681 29.0771C66.1684 29.0803 66.1686 29.0834 66.1691 29.0867C66.1085 29.0418 66.075 29.017 66.0695 29.0131L66.0755 29.0483C65.9611 28.9807 65.903 28.9547 66.0855 29.1056L66.0963 29.1675L82.827 41.6147L82.652 41.4935L83.1653 41.8664L85.3642 43.5024C85.2953 43.458 85.0833 43.3062 84.6496 42.9864C86.2362 44.1906 86.0664 44.0234 87.4276 45.0626C87.5774 45.1781 87.5082 45.129 87.3677 45.0264L88.9301 46.1744C88.6214 45.955 89.1783 46.3932 88.2235 45.6759C91.0107 47.7773 92.7437 49.0027 93.7847 49.8138L93.5502 49.6423C96.4544 51.7907 95.232 50.8674 95.652 51.1564L97.4668 52.5068L98.79 53.551L99.1828 53.8079C99.5827 54.1066 100.374 54.6977 100.223 54.5994C101.72 55.6891 99.9737 54.3989 100.846 55.0246C102.762 56.4825 106.162 58.9646 106.578 59.3307C107.278 59.8246 104.742 57.9443 106.805 59.46C107.372 59.9426 109.186 61.2207 110.936 62.551C110.386 62.1729 108.724 60.9199 110.476 62.2512C111.554 63.0007 113.899 64.8094 115.387 65.906C115.428 65.9159 116.236 66.5129 117.346 67.3377C118.456 68.1625 119.867 69.215 121.115 70.1362C120.953 70.0298 125.795 73.6408 128.106 75.3762L128.036 75.3307C128.498 75.6319 130.886 77.4164 132.629 78.7043C132.552 78.6729 132.236 78.4477 131.29 77.755L132.926 78.972C133.316 79.2487 133.829 79.6229 134.891 80.4087L134.47 80.1269C136.648 81.7456 138.867 83.3606 141.662 85.4614C141.775 85.5254 140.725 84.7139 140.958 84.863L142.478 85.9939C142.424 85.9639 142.258 85.849 141.857 85.5542C142.112 85.7415 142.767 86.2176 143.276 86.6037L142.084 85.7439C143.356 86.7021 142.759 86.2231 143.778 86.9839C143.75 86.9863 144.528 87.5581 144.375 87.463C144.114 87.271 143.488 86.7937 143.095 86.51C144.244 87.3688 145.63 88.4138 146.084 88.7689C145.988 88.6845 146.094 88.7454 146.937 89.3698C149.115 90.9885 147.674 89.9452 148.94 90.8991C149.472 91.2793 150.856 92.3254 150.904 92.3265C151.541 92.8007 151.654 92.9006 151.897 93.0908C153.028 93.9176 157.162 97.0036 155.904 96.031L155.615 95.8141C155.669 95.8538 155.733 95.9009 155.8 95.9499C159.504 98.672 163.467 101.673 167.136 104.389L167.127 104.393C169.319 106.011 171.999 108.01 173.569 109.153C174.216 109.635 175.09 110.306 174.808 110.11C176.484 111.348 176.675 111.477 179.085 113.289C177.397 112.054 179.659 113.734 177.357 112.019C179.527 113.643 180.013 114.023 182.356 115.735C181.552 115.166 183.98 116.98 185.016 117.742L183.5 116.593C184.663 117.454 185.678 118.211 186.709 118.981L186.139 118.595C190.57 121.939 194.184 124.501 197.543 127.079C198.728 127.933 195.134 125.267 196.196 126.026C197.796 127.22 199.437 128.476 200.383 129.194C200.238 129.087 200.088 128.976 199.933 128.863C198.667 127.929 197.141 126.81 196.085 126.034L196.423 126.253C194.631 124.964 194.571 124.93 192.085 123.094C191.545 122.689 191.57 122.689 192.181 123.147C190.424 121.828 190.745 122.111 188.447 120.387L189.339 121.029C187.322 119.528 187.479 119.656 186.361 118.849C185.088 117.916 182.536 115.999 182.248 115.755C181.97 115.567 180.858 114.764 179.672 113.874C179.515 113.747 179.95 114.063 180.168 114.222C176.802 111.699 175.141 110.524 172.831 108.776C172.786 108.732 172.636 108.615 172.445 108.47C174.888 110.286 176.896 111.779 177.078 111.917C177.058 111.873 174.938 110.292 176.661 111.531C174.916 110.257 171.93 108.087 169.824 106.508C169.722 106.43 169.624 106.354 169.548 106.293L169.767 106.453C169.281 106.089 168.844 105.767 168.432 105.466C167.76 104.962 167.334 104.641 166.687 104.16C166.445 103.956 164.209 102.306 163.13 101.503C163.208 101.593 161.828 100.562 163.075 101.516C163.037 101.485 163.404 101.756 164.036 102.225C164.199 102.345 164.39 102.486 164.497 102.564C164.476 102.549 164.451 102.531 164.423 102.512C165.132 103.038 166.056 103.724 167.106 104.504C166.249 103.883 165.353 103.232 164.165 102.331C163.605 101.935 162.989 101.499 162.642 101.251C161.179 100.119 158.339 97.9845 157.952 97.6685C154.65 95.2336 150.184 91.9086 148.092 90.416C147.152 89.7255 147.02 89.6019 146.673 89.3345C147.216 89.7317 147.859 90.2104 148.155 90.4213C146.276 89.0412 142.602 86.3012 142.141 86.0018C139.785 84.2322 143.481 86.9577 140.234 84.552L140.676 84.8675C134.432 80.1613 130.414 77.3448 123.603 72.2082C123.839 72.3863 123.977 72.4917 124.045 72.5466C115.988 66.5217 107.406 60.2199 99.463 54.2568C97.2036 52.5656 96.9501 52.4044 95.5623 51.3942L95.083 51.0029L92.7088 49.2793C89.351 46.814 86.9365 44.9044 82.6794 41.7972L83.219 42.2217C81.6976 41.0868 78.3916 38.6486 78.6543 38.8167C78.4971 38.7042 78.1474 38.4645 77.556 38.0128L77.5154 37.9643L73.7652 35.2093C70.8698 33.0447 74.2415 35.4905 70.0114 32.3438C68.771 31.4277 66.6972 29.9168 66.1581 29.5347C66.1417 29.4774 66.1303 29.4675 66.129 29.5141C66.0092 29.4296 65.9869 29.4168 66.1026 29.5052C66.111 29.5114 66.1202 29.5183 66.1288 29.5247C66.1288 29.5349 66.1291 29.547 66.1301 29.5612L66.0344 29.4955L66.1305 29.5663C66.1306 29.5693 66.1307 29.5724 66.131 29.5757C66.0704 29.5307 66.0372 29.5059 66.0317 29.502L66.0369 29.5366C65.9232 29.4693 65.8657 29.4433 66.0454 29.5926L66.0545 29.6535L82.7914 42.144L82.6163 42.0223L83.1297 42.3965L85.3292 44.038C85.2602 43.9934 85.0482 43.8412 84.6143 43.5201C86.2013 44.7284 86.0316 44.5607 87.393 45.6033C87.5428 45.7192 87.4735 45.6698 87.3329 45.5668L88.896 46.7189C88.5873 46.4987 89.144 46.9381 88.189 46.2184C90.9767 48.3267 92.7109 49.5568 93.7518 50.3703L93.5171 50.1982C96.4222 52.354 95.1997 51.4278 95.6198 51.7179L97.4353 53.0728L98.7583 54.1201L99.1516 54.3782C99.5516 54.678 100.342 55.271 100.191 55.1723C101.689 56.2659 99.9426 54.9712 100.815 55.5991C102.731 57.0616 106.133 59.5527 106.548 59.9195C107.249 60.4153 104.712 58.5286 106.776 60.0496C107.343 60.5334 109.157 61.8165 110.908 63.1511C110.357 62.7715 108.695 61.5144 110.447 62.8501C111.527 63.6025 113.871 65.417 115.359 66.5172C115.401 66.5272 116.21 67.1263 117.32 67.9539C118.43 68.7816 119.842 69.8378 121.09 70.762C120.927 70.6551 125.771 74.2786 128.083 76.0196L128.012 75.9739C128.475 76.2765 130.863 78.067 132.607 79.3593C132.53 79.3276 132.214 79.1015 131.267 78.4064L132.903 79.6274C133.294 79.9053 133.807 80.2809 134.87 81.0693L134.448 80.7863C136.627 82.4105 138.847 84.0314 141.642 86.1391C141.756 86.2035 140.706 85.3893 140.939 85.5392L142.459 86.674C142.405 86.6438 142.239 86.5285 141.838 86.2326C142.092 86.4205 142.748 86.8985 143.257 87.2856L142.065 86.4226C143.337 87.3841 142.739 86.9036 143.759 87.6671C143.731 87.6693 144.509 88.2431 144.357 88.1476C144.095 87.9549 143.47 87.476 143.076 87.1913C144.225 88.053 145.612 89.1013 146.066 89.4576C145.97 89.3729 146.076 89.4343 146.919 90.0608C149.098 91.6851 147.656 90.6381 148.923 91.5952C149.455 91.9767 150.84 93.0264 150.887 93.0277C151.524 93.5036 151.637 93.6036 151.88 93.7944C153.012 94.6241 157.147 97.7207 155.888 96.745L155.6 96.5275C155.654 96.5676 155.718 96.6148 155.785 96.664C159.491 99.3957 163.454 102.407 167.125 105.132L167.115 105.136C169.308 106.76 171.989 108.765 173.559 109.913C174.207 110.396 175.08 111.069 174.799 110.873C176.475 112.115 176.666 112.245 179.077 114.063C177.388 112.822 179.651 114.509 177.348 112.787C179.519 114.417 180.005 114.798 182.349 116.516C181.545 115.946 183.973 117.766 185.01 118.53L183.493 117.378C184.657 118.241 185.672 119.001 186.703 119.774L186.132 119.387C190.565 122.742 194.18 125.313 197.541 127.899C198.726 128.757 195.131 126.082 196.194 126.843C198.238 128.374 200.352 130.007 200.992 130.485C203.788 132.593 203.626 132.394 206.554 134.594C206.183 134.304 205.841 134.012 208.037 135.638C210.083 137.17 210.535 137.56 209.239 136.603C208.747 136.238 208.512 136.057 208.534 136.07C207.871 135.58 207.001 134.936 207.807 135.553L208.077 135.741C209.088 136.509 211.906 138.61 211.237 138.134C212.56 139.11 212.113 138.768 211.244 138.112C213.573 139.865 215.035 140.94 217.564 142.84C217.136 142.513 216.746 142.205 217.173 142.525C221.133 145.497 218.928 143.808 221.616 145.808C223.136 146.963 221.053 145.438 223.763 147.443C225.41 148.686 224.101 147.732 223.441 147.25C225.913 149.069 228.039 150.699 229.445 151.753L228.143 150.793C228.921 151.367 229.557 151.842 230.204 152.325L229.472 151.751C229.852 152.037 230.204 152.301 230.458 152.492C230.712 152.684 230.869 152.804 230.86 152.803C231.651 153.375 230.273 152.32 231.84 153.464C232.851 154.233 234.939 155.761 235.278 156.051C232.408 153.898 234.975 155.852 233.552 154.803C233.933 155.086 234.359 155.405 234.834 155.763C234.948 155.852 234.724 155.688 234.515 155.534C237.561 157.841 235.933 156.552 239.102 158.917C238.693 158.633 239.824 159.495 240.342 159.878C239.065 158.924 239.742 159.396 240.919 160.258C242.945 161.786 243.131 161.897 244.194 162.692L242.982 161.78C243.401 162.072 244.415 162.832 245.834 163.884C245.87 163.916 245.759 163.836 245.604 163.722C247.081 164.813 248.839 166.18 250.789 167.613C251.8 168.382 250.875 167.716 251.764 168.389C254.23 170.203 254.416 170.396 257.006 172.307C256.271 171.731 256.138 171.639 257.966 172.976L253.714 169.821L256.452 171.824C255.171 170.867 253.742 169.819 252.976 169.243C254.282 170.194 254.146 170.1 253.54 169.625C255.28 170.965 257.025 172.201 259.043 173.735L258.959 173.741C261.996 176.039 264.385 177.755 268.336 180.722L267.068 179.764C267.608 180.139 269.513 181.584 270.798 182.532C270.671 182.46 271.469 183.064 272.012 183.483C271.951 183.421 274.908 185.646 275.282 185.88L277.039 187.221C280.23 189.615 280.706 189.893 283.776 192.191C282.842 191.52 284.233 192.574 282.169 191.052C282.682 191.434 283.169 191.798 283.53 192.067C283.891 192.336 284.126 192.509 284.137 192.509C284.731 192.966 286.991 194.607 287.926 195.327C288.362 195.643 288.511 195.73 289.662 196.591C289.735 196.648 289.719 196.639 289.694 196.623C289.952 196.807 291.375 197.863 290.463 197.159C293.599 199.571 299.294 203.745 302.025 205.844C304.265 207.51 306.963 209.517 308.996 211.03C308.864 210.938 308.986 211.034 308.603 210.745C311.399 212.853 310.347 211.981 313.529 214.379C315.146 215.623 311.829 213.131 312.84 213.899C313.258 214.286 316.693 216.764 318.824 218.399L318.303 218.015C319.935 219.258 322.315 220.98 324.994 222.985C324.994 222.985 324.862 222.893 324.975 222.982C326.82 224.321 330.294 226.901 332.877 228.817C332.065 228.241 331.7 227.955 332.18 228.343C333.337 229.202 331.857 228.054 334.167 229.769C334.912 230.341 336.572 231.594 336.782 231.783L334.605 230.16C335.706 231.023 337.422 232.261 338.567 233.123L338.414 233.027C341.752 235.512 341.813 235.512 345.397 238.189L345.03 237.903C347.004 239.33 346.664 239.147 348.629 240.58L349.206 241.056C350.502 242.013 353.748 244.402 356.069 246.125C354.744 245.171 352.026 243.16 350.341 241.922C351.623 242.879 354.697 245.169 355.372 245.65C354.854 245.268 354.2 244.791 353.692 244.405C355.276 245.551 357.35 247.081 359.903 248.987C359.758 248.906 360.296 249.321 361.17 249.979C361.607 250.307 362.127 250.697 362.688 251.118C363.317 251.589 363.992 252.093 364.663 252.595C364.597 252.128 364.531 251.664 364.471 251.242C364.523 251.281 364.575 251.32 364.626 251.358C364.54 250.843 364.455 250.331 364.38 249.875ZM165.143 102.27C165.122 102.256 165.078 102.226 165.057 102.211C165.127 102.257 165.207 102.31 165.345 102.408C166.064 102.936 166.303 103.119 166.399 103.197C166.06 102.947 165.663 102.654 165.143 102.27ZM165.138 103.013C165.116 102.998 165.073 102.968 165.052 102.953C165.122 102.999 165.202 103.053 165.34 103.151C166.059 103.681 166.298 103.864 166.394 103.943C166.055 103.692 165.658 103.398 165.138 103.013ZM208.036 134.79C210.082 136.317 210.534 136.706 209.238 135.753C208.747 135.389 208.511 135.209 208.534 135.221C208.122 134.918 207.63 134.555 207.51 134.472C206.632 133.817 205.559 133.016 204.605 132.307C205.088 132.66 205.684 133.099 206.554 133.751C206.183 133.461 205.841 133.17 208.036 134.79ZM217.17 141.655C221.129 144.617 218.924 142.933 221.612 144.927C222.879 145.887 221.641 144.989 222.768 145.824C221.995 145.277 221.297 144.788 220.16 143.944L219.554 143.445C218.772 142.864 217.988 142.28 217.204 141.694C216.972 141.515 216.872 141.433 217.17 141.655ZM242.972 160.845C243.39 161.135 244.404 161.893 245.822 162.941C245.859 162.973 245.747 162.893 245.591 162.779C246.127 163.173 246.7 163.603 247.306 164.061C246.02 163.105 244.699 162.127 243.432 161.19L242.972 160.845ZM346.964 238.179C345.745 237.277 345.276 236.928 345.163 236.839L345.42 237.033C345.31 236.95 345.249 236.903 345.155 236.833L344.994 236.711C344.999 236.715 345.004 236.718 345.009 236.722C345.055 236.757 345.103 236.794 345.155 236.833C345.128 236.811 345.139 236.818 345.176 236.843C346.144 237.543 346.505 237.822 346.947 238.159C346.949 238.162 346.954 238.169 346.964 238.179ZM312.096 212.22C312.346 212.404 312.645 212.627 313.011 212.9C312.698 212.668 312.392 212.441 312.096 212.22ZM258.992 172.762C257.904 171.959 256.669 171.062 256.823 171.14L257.231 171.443C257.064 171.31 256.837 171.135 256.568 170.93C257.352 171.506 258.164 172.105 259.027 172.759L258.992 172.762ZM232.958 153.418L233.002 153.43C233.69 153.941 234.424 154.484 234.877 154.828C234.213 154.338 233.548 153.848 232.958 153.418ZM208.416 135.149C208.735 135.389 209.13 135.686 209.526 135.982C208.966 135.569 208.407 135.158 207.85 134.75C207.906 134.786 208.001 134.846 208.416 135.149ZM208.053 134.877L208.077 134.893C208.112 134.92 208.151 134.949 208.191 134.979C208.146 134.946 208.1 134.912 208.053 134.877ZM294.864 199.429C295.788 200.116 296.732 200.817 297.641 201.493C296.812 200.885 295.953 200.253 295.01 199.555C295.013 199.551 294.961 199.506 294.864 199.429ZM66.2106 29.1091L66.3581 29.2175C66.3907 29.2354 66.4238 29.254 66.4256 29.2492L66.2092 29.1012L66.2081 29.0955C66.2048 29.0825 66.2015 29.0709 66.1985 29.0603C66.8331 29.5318 67.7584 30.2276 67.7993 30.2757L66.3582 29.2178C66.3409 29.2083 66.3204 29.1965 66.2979 29.1832C66.2666 29.16 66.2379 29.1387 66.213 29.1203L66.2106 29.1091ZM88.0532 45.5087C87.9577 45.436 87.8875 45.3821 87.8382 45.3436L88.7736 46.0397C88.5482 45.8737 88.3099 45.6983 88.0532 45.5087ZM66.1735 29.5975L66.3214 29.7066C66.3539 29.7246 66.3873 29.7432 66.389 29.7386L66.172 29.5896L66.1712 29.5848C66.1681 29.5715 66.1651 29.56 66.1623 29.5491C66.797 30.0222 67.7222 30.7201 67.7629 30.768L66.3212 29.7064C66.3039 29.697 66.2832 29.685 66.2607 29.6716C66.229 29.6481 66.2002 29.6265 66.1751 29.6079L66.1735 29.5975ZM88.02 46.0509C87.9244 45.9779 87.8542 45.9239 87.8049 45.8854L88.7405 46.5836C88.5149 46.417 88.2765 46.2409 88.02 46.0509ZM155.776 96.6569L155.781 96.6601C155.781 96.6601 155.78 96.6598 155.776 96.6569Z" fill="url(#paint1_linear_592_6269)"/>
</g>
<path d="M59.1729 21.7632L54.8916 18.3027C54.8916 18.3027 53.4847 16.8563 53.4498 16.8288C53.415 16.8012 54.5221 16.091 54.5221 16.091L55.1342 15.5507L55.5728 15.8982L56.004 15.5123L55.5654 15.1647L57.3198 14.2399L57.6672 14.5154L58.0597 14.2973L58.0093 13.9264L58.9676 13.6275L59.5843 13.9179L59.8343 13.5206L59.6888 13.273L64.177 11.7366L64.9675 12.1649L64.9866 11.8493L63.1593 10.4005L59.5217 11.0895L57.536 9.44897L56.7353 10.4887L58.0667 11.5239L54.6699 12.0068L54.1482 11.5931L54.2305 11.1952L52.7759 10.1743L51.8164 11.4203L53.0821 12.4682L48.085 13.1378C48.085 13.1378 44.192 10.2437 44.0946 10.1724C43.5107 9.74603 42.2359 9.37914 41.4617 9.34765C41.174 9.33593 40.946 9.4048 40.8258 9.48235C40.72 9.55044 40.6238 9.68029 40.6271 9.8015C40.6457 10.4526 41.4975 11.9525 42.0512 12.3896C42.086 12.4172 46.7248 16.0952 46.7248 16.0952L47.0273 19.3125L46.2011 18.6574L45.3416 19.8286L47.1506 21.263L47.238 24.6406L47.1779 24.7914L46.504 24.2571L45.5679 25.4999L47.2717 26.8509L47.0492 32.9601L48.742 34.3023L49.4449 26.7211L49.9982 27.0936L50.2798 26.6551L49.5525 26.1447L49.926 24.7868L50.1662 24.9112L50.5143 24.4592L49.9577 24.018L50.7299 21.8514L51.1626 22.0952L51.4605 21.7029L50.9008 21.193L51.2679 20.4254L51.5461 20.6459L51.7012 20.3719L51.423 20.1514L51.4674 19.6573L59.0972 25.2436L59.3995 30.3797L60.1647 30.9864L61.3198 28.3953L62.197 29.1112L62.1931 26.9703L62.5725 27.205L63.0755 26.479L62.6929 26.1757L65.7614 23.646L66.0429 23.2076L65.2777 22.6009L60.7643 23.5879L59.1729 21.7632Z" fill="#B3CBE6"/>
<path d="M61.9126 29.5242L61.902 27.3477L61.4712 27.3431L61.0142 28.7945L61.9126 29.5242Z" fill="#A9C7EE"/>
<path d="M58.9692 25.2843L59.6872 25.1297L51.6719 18.7775C51.6719 18.7775 51.4572 19.0406 51.382 19.3172C51.325 19.5267 51.3764 19.7275 51.3764 19.7275L58.9692 25.2843Z" fill="#A9C7EE"/>
<path d="M47.0779 15.035C47.1432 14.8638 47.2616 14.7102 47.2616 14.7102L46.4944 13.9399C46.4944 13.9399 43.0022 11.0183 42.1728 10.332C41.4508 9.73452 41.1206 9.31369 40.9766 9.09059C40.9229 9.15592 40.8862 9.23499 40.8883 9.31056C40.9069 9.96185 41.759 11.4621 42.3128 11.8994C42.3476 11.927 46.9877 15.6061 46.9877 15.6061C46.9877 15.6061 46.9219 15.4445 47.0779 15.035Z" fill="#A9C7EE"/>
<path d="M51.7311 11.0343L52.9904 12.0767C52.9904 12.0767 53.1206 11.9888 53.2522 11.9574C53.3754 11.9279 53.54 11.917 53.54 11.917L52.0072 10.6759L51.7311 11.0343Z" fill="#A9C7EE"/>
<path d="M56.4567 10.1434L57.7812 11.1734C57.7812 11.1734 57.8712 11.1026 57.9904 11.0617C58.1152 11.0188 58.2743 11.0263 58.2743 11.0263L56.7462 9.76775L56.4567 10.1434Z" fill="#A9C7EE"/>
<path d="M47.4869 20.5639L45.8586 19.2835L45.573 19.6728L47.3807 21.1065C47.3807 21.1065 47.3472 20.7998 47.4869 20.5639Z" fill="#A9C7EE"/>
<path d="M46.1762 25.1225L45.8408 25.5679L47.544 26.9188C47.544 26.9188 47.552 26.6267 47.6982 26.3959L46.1762 25.1225Z" fill="#A9C7EE"/>
<defs>
<linearGradient id="paint0_linear_592_6269" x1="64.1973" y1="27.8572" x2="269.426" y2="198.263" gradientUnits="userSpaceOnUse">
<stop stop-color="#2D7DCC"/>
<stop offset="1" stop-color="white" stop-opacity="0"/>
</linearGradient>
<linearGradient id="paint1_linear_592_6269" x1="61.5612" y1="26.8708" x2="305.262" y2="237.032" gradientUnits="userSpaceOnUse">
<stop offset="0.528846" stop-color="#BBD3EE"/>
<stop offset="1" stop-color="white" stop-opacity="0"/>
</linearGradient>
</defs>
</svg>
