<svg width="414" height="216" viewBox="0 0 414 216" fill="none" xmlns="http://www.w3.org/2000/svg">
<g opacity="0.6">
<path d="M356.769 190.628L356.751 190.567L338.663 180.187L338.851 180.287L338.297 179.977L335.92 178.613C335.994 178.649 336.222 178.774 336.69 179.04C334.972 178.032 335.161 178.178 333.686 177.307C333.523 177.21 333.598 177.251 333.75 177.336L332.062 176.381C332.395 176.562 331.79 176.193 332.823 176.793C329.806 175.036 327.94 174.024 326.81 173.342L327.064 173.485C323.925 171.695 325.249 172.467 324.798 172.23L322.836 171.104L321.398 170.223L320.977 170.015C320.545 169.766 319.69 169.272 319.851 169.352C318.235 168.447 320.122 169.522 319.182 169.004C317.107 167.783 313.437 165.72 312.98 165.406C312.227 164.998 314.967 166.566 312.74 165.305C312.119 164.892 310.167 163.838 308.271 162.724C308.862 163.034 310.661 164.082 308.763 162.967C307.604 162.351 305.061 160.832 303.454 159.919C303.412 159.914 302.539 159.417 301.339 158.729C300.139 158.042 298.613 157.163 297.265 156.396C297.439 156.483 292.203 153.47 289.702 152.02L289.777 152.057C289.283 151.813 286.701 150.323 284.817 149.251C284.897 149.273 285.238 149.459 286.259 150.035L284.491 149.02C284.071 148.791 283.517 148.48 282.369 147.826L282.821 148.056C280.466 146.706 278.072 145.365 275.047 143.61C274.927 143.56 276.066 144.241 275.817 144.121L274.174 143.178C274.231 143.201 274.41 143.295 274.843 143.541C274.568 143.385 273.861 142.989 273.309 142.667L274.594 143.379C273.218 142.578 273.868 142.983 272.766 142.348C272.792 142.343 271.953 141.867 272.115 141.943C272.397 142.103 273.075 142.503 273.499 142.738C272.257 142.021 270.756 141.148 270.263 140.849C270.369 140.921 270.257 140.873 269.345 140.353C266.991 139.003 268.546 139.869 267.175 139.071C266.602 138.757 265.103 137.882 265.056 137.886C264.367 137.491 264.243 137.405 263.979 137.245C262.758 136.558 258.288 133.982 259.653 134.8L259.965 134.981C259.906 134.948 259.837 134.908 259.765 134.868C255.764 132.603 251.474 130.091 247.508 127.829L247.517 127.824C245.149 126.477 242.251 124.809 240.557 123.859C239.857 123.458 238.91 122.895 239.212 123.056C237.402 122.025 237.197 121.919 234.589 120.405C236.411 121.432 233.966 120.031 236.455 121.463C234.108 120.106 233.58 119.787 231.051 118.364C231.916 118.833 229.29 117.32 228.172 116.685L229.813 117.647C228.557 116.93 227.459 116.298 226.344 115.655L226.956 115.971C222.722 113.503 219.195 111.565 215.92 109.657C216.524 109.991 216.945 110.223 217.321 110.431L217.973 110.803L218.52 111.113L217.371 110.459C218.169 110.9 218.79 111.25 220.594 112.276C221.177 112.614 221.152 112.617 220.492 112.235C222.393 113.336 222.04 113.093 224.527 114.534L223.565 114.002C225.745 115.253 225.574 115.145 226.78 115.814C228.154 116.589 230.916 118.191 231.231 118.399C231.529 118.553 232.728 119.219 234.012 119.962C234.183 120.07 233.713 119.808 233.477 119.676C237.119 121.783 238.908 122.753 241.409 124.215C241.459 124.254 241.621 124.352 241.828 124.474C239.188 122.96 237.017 121.714 236.819 121.599C236.845 121.641 239.138 122.96 237.28 121.933C237.588 122.106 237.933 122.299 238.302 122.507C238.425 122.581 238.567 122.667 238.546 122.661L238.66 122.708C240.507 123.745 242.876 125.077 244.664 126.112C244.774 126.177 244.881 126.241 244.963 126.293L244.727 126.16C245.252 126.464 245.724 126.732 246.169 126.982C246.896 127.403 247.358 127.671 248.057 128.072C248.321 128.247 250.737 129.621 251.904 130.29C251.815 130.21 253.308 131.07 251.956 130.271C251.998 130.296 251.602 130.071 250.918 129.68C250.742 129.58 250.536 129.462 250.42 129.398C250.443 129.41 250.47 129.425 250.5 129.441C249.734 129.003 248.735 128.43 247.599 127.781C248.524 128.296 249.491 128.836 250.777 129.59C251.381 129.917 252.044 130.277 252.418 130.482C254.004 131.433 257.077 133.217 257.5 133.485C261.066 135.512 265.895 138.285 268.149 139.52C269.164 140.094 269.31 140.201 269.686 140.426C269.1 140.096 268.405 139.696 268.086 139.522C270.115 140.67 274.088 142.956 274.581 143.199C277.13 144.677 273.138 142.408 276.647 144.413L276.171 144.152C282.926 148.086 287.249 150.406 294.617 154.7C294.365 154.552 294.217 154.465 294.144 154.419C302.858 159.448 312.126 164.69 320.72 169.671C323.164 171.083 323.434 171.213 324.932 172.052L325.454 172.384L328.016 173.815C331.642 175.866 334.266 177.476 338.861 180.058L338.275 179.7C339.92 180.647 343.492 182.677 343.211 182.541C343.381 182.634 343.756 182.831 344.397 183.209L344.443 183.253L348.493 185.545C351.625 187.351 347.987 185.322 352.561 187.946C353.901 188.709 356.139 189.964 356.719 190.279C356.742 190.334 356.755 190.343 356.751 190.296C356.879 190.366 356.903 190.376 356.778 190.302C356.769 190.297 356.759 190.291 356.749 190.286C356.748 190.276 356.746 190.264 356.744 190.25L356.846 190.304L356.743 190.245C356.742 190.242 356.741 190.238 356.741 190.235C356.806 190.273 356.842 190.293 356.848 190.297L356.839 190.263C356.959 190.316 357.019 190.335 356.823 190.208L356.807 190.149L338.708 179.726L338.896 179.826L338.342 179.515L335.963 178.146C336.037 178.182 336.265 178.308 336.734 178.575C335.015 177.563 335.204 177.71 333.728 176.835C333.566 176.738 333.64 176.779 333.792 176.864L332.103 175.905C332.436 176.088 331.831 175.717 332.865 176.319C329.847 174.555 327.979 173.539 326.849 172.854L327.102 172.997C323.962 171.2 325.286 171.975 324.835 171.737L322.872 170.607L321.433 169.723L321.012 169.513C320.58 169.263 319.724 168.768 319.886 168.848C318.269 167.939 320.157 169.018 319.216 168.498C317.14 167.272 313.468 165.201 313.011 164.886C312.257 164.477 314.999 166.05 312.77 164.784C312.149 164.37 310.196 163.311 308.299 162.193C308.89 162.505 310.69 163.556 308.792 162.437C307.631 161.818 305.087 160.293 303.48 159.377C303.437 159.372 302.563 158.873 301.363 158.182C300.162 157.492 298.636 156.61 297.287 155.84C297.461 155.927 292.222 152.902 289.719 151.447L289.795 151.483C289.3 151.238 286.716 149.742 284.832 148.665C284.912 148.688 285.253 148.875 286.275 149.453L284.505 148.434C284.085 148.205 283.531 147.892 282.382 147.235L282.834 147.466C280.479 146.111 278.082 144.764 275.056 143.002C274.936 142.952 276.075 143.636 275.826 143.515L274.182 142.568C274.239 142.591 274.418 142.686 274.851 142.933C274.576 142.776 273.869 142.379 273.317 142.055L274.603 142.771C273.226 141.967 273.876 142.373 272.773 141.736C272.8 141.73 271.96 141.252 272.123 141.329C272.405 141.49 273.084 141.891 273.508 142.127C272.265 141.407 270.764 140.531 270.27 140.23C270.376 140.303 270.263 140.255 269.351 139.732C266.996 138.377 268.551 139.246 267.18 138.446C266.606 138.13 265.107 137.252 265.06 137.256C264.37 136.859 264.247 136.773 263.983 136.612C262.76 135.922 258.288 133.336 259.653 134.157L259.965 134.339C259.907 134.305 259.837 134.266 259.766 134.225C255.762 131.951 251.47 129.43 247.502 127.158L247.511 127.153C245.141 125.8 242.242 124.126 240.547 123.172C239.847 122.769 238.899 122.204 239.202 122.366C237.391 121.331 237.185 121.224 234.576 119.704C236.4 120.736 233.953 119.329 236.443 120.766C234.095 119.405 233.567 119.084 231.036 117.655C231.902 118.126 229.275 116.607 228.155 115.97L229.797 116.935C228.54 116.215 227.442 115.58 226.327 114.936L226.939 115.253C222.14 112.445 218.246 110.321 214.602 108.15C213.324 107.438 217.211 109.669 216.065 109.039C213.854 107.761 211.561 106.389 210.868 105.99C207.842 104.228 208.028 104.406 204.859 102.568C205.262 102.812 205.636 103.062 203.263 101.707C201.05 100.428 200.555 100.094 201.955 100.891C202.486 101.195 202.742 101.346 202.718 101.337C203.435 101.745 204.374 102.281 203.501 101.764L203.211 101.61C202.116 100.966 199.069 99.213 199.79 99.6072C198.362 98.7951 198.844 99.081 199.784 99.6281C197.264 98.1638 195.685 97.2697 192.95 95.6828C193.413 95.9564 193.837 96.2158 193.375 95.9494C189.091 93.4666 191.481 94.8828 188.574 93.2146C186.928 92.2474 189.177 93.5155 186.249 91.8454C184.466 90.8058 185.879 91.5987 186.591 91.9985C183.921 90.485 181.617 89.1177 180.096 88.2375L181.502 89.037C180.661 88.5589 179.974 88.1629 179.274 87.7597L180.069 88.243C179.658 88.004 179.278 87.7832 179.003 87.6235C178.728 87.4632 178.558 87.3627 178.567 87.3626C177.713 86.8879 179.206 87.7733 177.516 86.8224C176.42 86.1786 174.167 84.9077 173.795 84.6602C176.901 86.4589 174.119 84.8211 175.657 85.6956C175.246 85.4593 174.784 85.1926 174.269 84.8932C174.146 84.8186 174.388 84.9544 174.614 85.0826C171.315 83.1529 173.085 84.2402 169.659 82.2663C170.098 82.5007 168.873 81.778 168.313 81.4595C169.694 82.255 168.966 81.867 167.695 81.15C165.502 79.872 165.305 79.7844 164.154 79.1202L165.466 79.8824C165.016 79.6424 163.918 79.0076 162.385 78.1309C162.345 78.1034 162.467 78.1705 162.636 78.2662C161.039 77.3581 159.13 76.2077 157.023 75.0143C155.928 74.3707 156.925 74.9224 155.963 74.3593C153.299 72.85 153.091 72.6797 150.293 71.0884C151.091 71.5738 151.234 71.6496 149.261 70.5383L153.857 73.1672L150.901 71.502C152.287 72.3004 153.829 73.1722 154.658 73.6542C153.249 72.8634 153.395 72.9411 154.053 73.3414C152.166 72.2165 150.288 71.1955 148.102 69.911L148.185 69.8952C144.897 67.9732 142.322 66.5512 138.046 64.0732L139.419 64.8746C138.839 64.5657 136.776 63.3562 135.388 62.5669C135.522 62.6229 134.657 62.1176 134.069 61.7657C134.137 61.8205 130.937 59.9607 130.538 59.7732L128.635 58.6491C125.182 56.6496 124.676 56.43 121.356 54.5109C122.363 55.0674 120.857 54.1851 123.086 55.4524C122.532 55.133 122.005 54.8296 121.615 54.605C121.225 54.3809 120.97 54.2371 120.96 54.2385C120.315 53.8541 117.878 52.4921 116.863 51.8876C116.393 51.6262 116.234 51.5573 114.99 50.8389C114.91 50.7906 114.927 50.7971 114.955 50.8107C114.676 50.6589 113.138 49.7783 114.127 50.3692C110.727 48.3454 104.578 44.8749 101.617 43.1134C99.1959 41.7239 96.2786 40.0498 94.0804 38.7885C94.2228 38.8641 94.0901 38.7834 94.5051 39.0246C91.4793 37.2624 92.6266 38.0036 89.1831 35.9986C87.4297 34.9547 91.0193 37.0376 89.9239 36.3938C89.463 36.0588 85.7592 34.005 83.4484 32.6335L84.0114 32.9536C82.2435 31.9118 79.6763 30.4836 76.779 28.8102C76.779 28.8102 76.9214 28.886 76.7986 28.811C74.8075 27.6999 71.0519 25.549 68.2609 23.9515C69.1354 24.4278 69.5314 24.6687 69.0087 24.3399C67.7577 23.6234 69.3637 24.5888 66.8669 23.1588C66.0593 22.6787 64.2627 21.6311 64.0314 21.4682L66.3852 22.8222C65.1892 22.0952 63.3387 21.069 62.1002 20.3493L62.2628 20.4261C58.6545 18.3537 58.5941 18.3609 54.7184 16.126L55.116 16.3677C52.9875 15.1837 53.3458 15.3249 51.2249 14.1344L50.596 13.7299C49.1958 12.9338 45.6896 10.9454 43.1809 9.50859C44.609 10.2996 47.546 11.9748 49.3659 13.0043C47.98 12.2059 44.6562 10.2952 43.9294 9.89751C44.4889 10.2157 45.1949 10.6118 45.7446 10.9348C44.0364 9.98443 41.796 8.71052 39.035 7.11984C39.1875 7.18305 38.6041 6.83539 37.659 6.28509C37.186 6.01108 36.623 5.68485 36.0165 5.33339C35.336 4.94058 34.6064 4.51953 33.8802 4.10054C34.0006 4.5462 34.1201 4.98895 34.2293 5.39325C34.1508 5.34803 34.0724 5.30304 33.9938 5.25783C34.1421 5.76029 34.2896 6.25973 34.4208 6.70469C34.6856 6.85738 34.9397 7.00387 35.1807 7.14276C35.3758 7.25629 35.5605 7.36352 35.7321 7.46337C36.075 7.66364 36.3658 7.83519 36.5863 7.96821C41.4778 10.7313 46.2738 13.5135 51.966 16.7595C49.9621 15.5513 53.6278 17.7067 53.2933 17.4501C54.6102 18.1982 55.1175 18.4887 55.2395 18.5626L54.9613 18.4011C55.0801 18.4701 55.1467 18.509 55.248 18.5679L55.2481 18.5678L59.2506 20.8926C60.1983 21.453 57.9866 20.1854 58.1051 20.2675C61.0063 21.9294 59.3164 20.9871 61.2329 22.099C60.8445 21.8538 62.2498 22.6462 63.902 23.5985L61.5791 22.2417C65.6429 24.5275 65.0724 24.2916 69.1685 26.5963L67.8708 25.8759C69.9716 27.0633 75.6097 30.2958 77.6781 31.4244C78.0476 31.6429 78.5337 31.9386 77.6092 31.4153C82.621 34.2854 88.7821 37.74 92.6714 39.9936L92.2876 39.7904C93.2239 40.3205 93.9226 40.694 95.0902 41.377C95.028 41.3482 94.7098 41.1757 95.1427 41.424C95.639 41.7019 97.6335 42.8184 98.871 43.5345L97.8078 42.9453C102.693 45.7563 105.323 47.1933 109.426 49.5255C109.415 49.543 110.371 50.1045 111.57 50.7995C112.768 51.4945 114.209 52.3232 115.168 52.8749L115.1 52.8424C120.793 56.0996 124.781 58.3323 130.059 61.3279C133.321 63.2418 141.143 67.6789 146.397 70.7082C145.595 70.2414 146.536 70.751 147.473 71.2811C148.705 71.9944 150.893 73.2016 150.687 73.1275L150.247 72.8755C151.168 73.4437 153.708 74.8831 155.689 76.0153L156.028 76.1525C161.192 79.1834 169.612 83.8799 172.424 85.5595C173.677 86.261 175.227 87.146 176.469 87.8414L176.395 87.8297C179.859 89.8152 181.587 90.8064 185.872 93.2456L184.993 92.7658C187.408 94.147 188.063 94.4315 190.292 95.7024L190.952 96.1248C195.166 98.5309 199.423 101.002 203.597 103.344C203.527 103.311 203.4 103.251 202.717 102.863C204.63 103.957 209.982 107.04 209.728 106.842C209.827 106.904 210.068 107.045 210.409 107.242C210.854 107.498 211.468 107.847 212.151 108.234C213.518 109.008 215.164 109.935 216.304 110.577L215.944 110.401C217.873 111.465 217.937 111.491 220.622 113.013C221.205 113.35 221.18 113.353 220.52 112.973C222.42 114.07 222.067 113.827 224.553 115.262L223.591 114.732C225.77 115.979 225.599 115.871 226.804 116.537C228.177 117.309 230.937 118.905 231.253 119.112C231.551 119.266 232.749 119.928 234.032 120.668C234.203 120.776 233.734 120.515 233.498 120.383C237.138 122.482 238.925 123.448 241.425 124.905C241.475 124.943 241.637 125.041 241.844 125.162C239.205 123.654 237.035 122.414 236.838 122.299C236.864 122.341 239.155 123.655 237.299 122.632C239.181 123.686 242.401 125.48 244.678 126.793C244.788 126.859 244.895 126.923 244.978 126.974L244.741 126.842C245.266 127.145 245.738 127.411 246.183 127.661C246.909 128.08 247.371 128.347 248.069 128.746C248.334 128.92 250.748 130.289 251.914 130.956C251.825 130.875 253.317 131.732 251.966 130.936C252.008 130.961 251.612 130.737 250.928 130.347C250.753 130.248 250.546 130.13 250.43 130.066C250.453 130.078 250.481 130.093 250.511 130.109C249.745 129.672 248.746 129.103 247.611 128.456C248.536 128.968 249.502 129.507 250.787 130.258C251.39 130.583 252.053 130.942 252.426 131.145C254.013 132.093 257.084 133.87 257.506 134.137C261.071 136.156 265.897 138.918 268.149 140.147C269.163 140.719 269.309 140.826 269.685 141.05C269.099 140.721 268.405 140.323 268.087 140.15C270.114 141.293 274.085 143.57 274.577 143.811C277.125 145.284 273.135 143.024 276.643 145.021L276.167 144.761C282.919 148.679 287.239 150.99 294.604 155.266C294.351 155.119 294.202 155.032 294.129 154.986C302.839 159.995 312.101 165.215 320.69 170.177C323.133 171.584 323.403 171.713 324.899 172.548L325.422 172.879L327.982 174.303C331.605 176.346 334.229 177.951 338.821 180.521L338.235 180.165C339.879 181.108 343.449 183.129 343.168 182.994C343.338 183.087 343.713 183.283 344.353 183.66L344.4 183.703L348.447 185.985C351.577 187.785 347.942 185.764 352.513 188.378C353.853 189.138 356.09 190.388 356.669 190.702C356.694 190.758 356.707 190.767 356.701 190.719C356.829 190.788 356.852 190.797 356.727 190.724C356.718 190.719 356.708 190.713 356.7 190.708C356.698 190.698 356.696 190.685 356.693 190.671L356.795 190.725L356.692 190.666C356.691 190.663 356.69 190.66 356.69 190.657C356.755 190.694 356.791 190.715 356.797 190.718L356.787 190.684C356.908 190.737 356.968 190.756 356.769 190.628ZM249.731 129.028C249.754 129.04 249.801 129.065 249.823 129.077C249.748 129.04 249.662 128.996 249.513 128.915C248.737 128.474 248.478 128.32 248.373 128.253C248.74 128.463 249.169 128.707 249.731 129.028ZM249.742 129.698C249.765 129.71 249.812 129.735 249.835 129.747C249.759 129.71 249.674 129.667 249.525 129.585C248.749 129.146 248.49 128.993 248.385 128.927C248.752 129.135 249.18 129.379 249.742 129.698ZM203.294 102.48C201.653 101.535 200.958 101.109 201.279 101.275C201.764 101.551 202.248 101.825 202.731 102.099C202.748 102.109 202.754 102.113 202.749 102.111C203.009 102.259 203.298 102.423 203.519 102.547C203.434 102.506 203.253 102.412 202.679 102.084C203.272 102.424 204.197 102.957 205.183 103.524C205.227 103.565 204.857 103.369 203.294 102.48ZM148.164 70.8107C149.287 71.4505 150.604 72.1862 150.631 72.2279C149.843 71.7815 149.028 71.3171 148.164 70.8107ZM187.928 93.6039C188.585 93.9611 189.263 94.3314 190.247 94.8946L190.773 95.2321C190.178 94.8993 190.424 95.0571 188.613 94.0215C187.936 93.6249 187.918 93.6054 187.928 93.6039ZM333.012 176.939C333.115 177 333.191 177.045 333.245 177.078L332.233 176.497C332.477 176.635 332.735 176.781 333.012 176.939ZM216.089 109.782C214.954 109.128 213.798 108.45 212.848 107.891C213.383 108.194 213.937 108.508 214.471 108.81C213.732 108.407 217.175 110.378 216.089 109.782ZM215.915 109.654C215.513 109.419 215.113 109.184 214.717 108.95C215.283 109.27 215.819 109.573 216.274 109.83L215.915 109.654ZM356.697 190.218L356.537 190.128C356.502 190.113 356.467 190.099 356.466 190.104L356.699 190.226L356.7 190.231C356.705 190.244 356.71 190.255 356.714 190.265C356.027 189.87 355.026 189.287 354.98 189.244L356.537 190.128C356.555 190.135 356.577 190.144 356.601 190.155C356.636 190.175 356.667 190.192 356.694 190.208L356.697 190.218ZM333.053 176.465C333.157 176.526 333.233 176.571 333.287 176.604L332.274 176.021C332.518 176.16 332.776 176.307 333.053 176.465ZM259.777 134.231L259.772 134.228C259.772 134.228 259.772 134.228 259.777 134.231ZM356.645 190.64L356.485 190.55C356.451 190.536 356.416 190.521 356.415 190.526L356.647 190.648L356.649 190.653C356.654 190.666 356.658 190.677 356.663 190.687C355.977 190.294 354.976 189.713 354.929 189.67L356.486 190.55C356.504 190.557 356.526 190.567 356.55 190.577C356.583 190.596 356.614 190.614 356.642 190.63L356.645 190.64Z" fill="url(#paint0_linear_466_12043)"/>
<path d="M36.051 4.10894C36.315 4.2628 36.5683 4.41049 36.8086 4.5504C37.0034 4.6648 37.1874 4.77291 37.3585 4.8735C37.7006 5.07523 37.9903 5.24799 38.2101 5.38205C43.0888 8.16739 47.8715 10.9711 53.5484 14.2427C51.5506 13.0256 55.2058 15.1974 54.8729 14.9397C56.1864 15.6935 56.6921 15.9866 56.8136 16.0609L56.5363 15.898C56.6547 15.9678 56.7213 16.0069 56.8221 16.0662L56.8222 16.066L60.8136 18.4089C61.7588 18.9735 59.5529 17.6957 59.671 17.7788C62.5642 19.4537 60.8787 18.5037 62.7901 19.6244C62.4029 19.3774 63.8046 20.1762 65.4523 21.1361L63.136 19.769C67.1893 22.0734 66.6194 21.8346 70.7047 24.1578L69.4103 23.4314C71.5055 24.6285 77.1285 27.8864 79.1917 29.0245C79.56 29.2447 80.0447 29.5423 79.1227 29.015C84.121 31.9077 90.2662 35.3902 94.1448 37.6615L93.7617 37.4564C94.6955 37.9908 95.3926 38.3676 96.557 39.0557C96.495 39.0266 96.1773 38.8527 96.6092 39.1028C97.1043 39.383 99.0938 40.5086 100.328 41.2302L99.2672 40.6363C104.139 43.4694 106.763 44.9182 110.855 47.2691C110.844 47.2865 111.797 47.8523 112.992 48.5527C114.187 49.2531 115.624 50.0882 116.581 50.6442L116.513 50.6115C122.19 53.8944 126.169 56.1455 131.432 59.1647C134.685 61.0932 142.486 65.5658 147.726 68.6189C146.926 68.1486 147.865 68.6623 148.799 69.1966C150.028 69.9156 152.21 71.1326 152.005 71.0575L151.566 70.8035C152.484 71.3758 155.017 72.8266 156.993 73.968L157.332 74.107C162.48 77.1612 170.88 81.8959 173.683 83.5878C174.933 84.2951 176.478 85.1869 177.718 85.8882L177.644 85.876C181.098 87.8772 182.822 88.8761 187.095 91.3349L186.218 90.851C188.627 92.2433 189.281 92.5307 191.503 93.8118L192.162 94.2372C196.365 96.6624 200.61 99.1522 204.772 101.513C204.703 101.48 204.576 101.42 203.895 101.029C205.803 102.131 211.14 105.239 210.887 105.039C210.986 105.102 211.226 105.245 211.567 105.442C212.01 105.7 212.622 106.052 213.304 106.443C214.667 107.223 216.309 108.157 217.446 108.805L217.086 108.627C219.011 109.699 219.075 109.726 221.752 111.26C222.334 111.6 222.309 111.603 221.651 111.219C223.546 112.325 223.194 112.081 225.673 113.527L224.714 112.993C226.887 114.249 226.717 114.141 227.919 114.812C229.288 115.59 232.04 117.198 232.355 117.407C232.652 117.562 233.848 118.23 235.127 118.976C235.297 119.085 234.829 118.821 234.594 118.688C238.224 120.804 240.007 121.777 242.5 123.246C242.549 123.284 242.711 123.382 242.918 123.505C240.286 121.985 238.121 120.735 237.925 120.619C237.951 120.661 240.235 121.985 238.384 120.954C240.261 122.017 243.473 123.825 245.743 125.149C245.853 125.215 245.96 125.279 246.042 125.331L245.806 125.197C246.33 125.503 246.8 125.772 247.244 126.023C247.968 126.446 248.428 126.714 249.125 127.117C249.389 127.292 251.797 128.671 252.959 129.344C252.871 129.263 254.359 130.126 253.012 129.324C253.052 129.349 252.657 129.123 251.977 128.731C251.802 128.631 251.596 128.512 251.48 128.447C251.503 128.46 251.531 128.475 251.56 128.491C250.797 128.051 249.801 127.477 248.669 126.824C249.591 127.341 250.555 127.884 251.837 128.641C252.438 128.969 253.099 129.33 253.472 129.536C255.053 130.491 258.116 132.281 258.537 132.55C262.092 134.585 266.905 137.369 269.151 138.608C270.163 139.185 270.308 139.292 270.684 139.518C270.099 139.186 269.406 138.785 269.089 138.611C271.111 139.763 275.072 142.058 275.563 142.301C278.103 143.786 274.124 141.508 277.622 143.52L277.147 143.258C283.882 147.207 288.191 149.537 295.537 153.848C295.284 153.699 295.135 153.611 295.062 153.564C303.748 158.613 312.986 163.875 321.551 168.876C323.987 170.293 324.257 170.424 325.75 171.266L326.271 171.599L328.824 173.035C332.438 175.094 335.054 176.71 339.634 179.302L339.05 178.943C340.689 179.893 344.249 181.931 343.97 181.795C344.138 181.888 344.513 182.086 345.152 182.466L345.197 182.509L349.234 184.81C352.355 186.624 348.73 184.586 353.288 187.22C354.625 187.987 356.857 189.247 357.434 189.563C357.458 189.619 357.471 189.628 357.466 189.58C357.593 189.65 357.616 189.66 357.492 189.586C357.483 189.581 357.473 189.575 357.464 189.57C357.463 189.56 357.46 189.547 357.458 189.533L357.56 189.587L357.457 189.528C357.456 189.525 357.455 189.522 357.455 189.518C357.52 189.556 357.556 189.577 357.562 189.58L357.552 189.546C357.673 189.6 357.734 189.619 357.536 189.49L357.518 189.43L339.479 178.968L339.667 179.068L339.114 178.756L336.743 177.381C336.817 177.417 337.045 177.544 337.512 177.813C335.799 176.797 335.986 176.944 334.516 176.066C334.354 175.968 334.428 176.009 334.579 176.095L332.897 175.132C333.228 175.315 332.625 174.943 333.655 175.547C330.647 173.777 328.786 172.757 327.659 172.069L327.912 172.213C324.782 170.409 326.101 171.187 325.651 170.948L323.694 169.813L322.261 168.926L321.842 168.716C321.41 168.464 320.557 167.967 320.718 168.048C319.107 167.135 320.989 168.218 320.051 167.696C317.982 166.466 314.321 164.387 313.866 164.07C313.114 163.659 315.847 165.239 313.626 163.968C313.008 163.553 311.06 162.489 309.169 161.367C309.759 161.68 311.553 162.736 309.661 161.613C308.504 160.991 305.969 159.461 304.366 158.54C304.324 158.535 303.453 158.034 302.256 157.341C301.06 156.648 299.538 155.763 298.194 154.99C298.367 155.077 293.145 152.041 290.651 150.58L290.726 150.617C290.233 150.37 287.657 148.869 285.779 147.788C285.859 147.81 286.199 147.998 287.218 148.579L285.454 147.556C285.034 147.325 284.483 147.012 283.337 146.352L283.788 146.584C281.44 145.224 279.052 143.872 276.036 142.103C275.916 142.052 277.051 142.739 276.803 142.617L275.164 141.667C275.221 141.69 275.399 141.786 275.831 142.033C275.557 141.876 274.852 141.477 274.302 141.152L275.584 141.87C274.211 141.063 274.859 141.471 273.76 140.831C273.787 140.826 272.95 140.346 273.112 140.423C273.393 140.584 274.069 140.987 274.493 141.224C273.253 140.502 271.757 139.621 271.266 139.32C271.371 139.393 271.258 139.345 270.35 138.82C268.002 137.46 269.552 138.333 268.186 137.529C267.614 137.212 266.12 136.33 266.072 136.334C265.385 135.936 265.262 135.849 264.999 135.688C263.78 134.995 259.322 132.4 260.683 133.223L260.995 133.406C260.936 133.372 260.867 133.333 260.796 133.292C256.805 131.009 252.527 128.478 248.572 126.198L248.581 126.193C246.219 124.835 243.329 123.154 241.639 122.197C240.941 121.792 239.997 121.225 240.299 121.387C238.494 120.348 238.289 120.241 235.688 118.716C237.506 119.751 235.067 118.339 237.55 119.781C235.209 118.415 234.683 118.092 232.16 116.658C233.023 117.132 230.405 115.606 229.289 114.967L230.926 115.936C229.673 115.213 228.578 114.576 227.466 113.929L228.077 114.247C223.293 111.429 219.412 109.296 215.78 107.117C214.506 106.403 218.38 108.642 217.238 108.009C215.514 107.005 213.74 105.944 212.718 105.338C212.875 105.428 213.037 105.521 213.203 105.616C214.567 106.4 216.21 107.338 217.348 107.988L216.988 107.809C218.914 108.887 218.978 108.913 221.657 110.454C222.239 110.795 222.214 110.798 221.555 110.413C223.451 111.523 223.1 111.278 225.58 112.73L224.62 112.193C226.794 113.455 226.624 113.346 227.827 114.02C229.197 114.802 231.951 116.416 232.265 116.626C232.562 116.781 233.759 117.452 235.039 118.201C235.209 118.31 234.741 118.045 234.506 117.912C238.137 120.036 239.922 121.014 242.416 122.488C242.465 122.526 242.627 122.625 242.834 122.748C240.2 121.222 238.035 119.966 237.838 119.85C237.864 119.892 240.15 121.221 238.297 120.186C240.175 121.253 243.389 123.07 245.661 124.398C245.771 124.464 245.878 124.529 245.96 124.581L245.724 124.447C246.248 124.753 246.719 125.023 247.162 125.276C247.887 125.7 248.347 125.97 249.045 126.374C249.308 126.55 251.718 127.935 252.881 128.61C252.793 128.529 254.282 129.395 252.934 128.59C252.975 128.616 252.58 128.389 251.899 127.995C251.723 127.894 251.517 127.776 251.402 127.71C251.425 127.723 251.452 127.738 251.482 127.754C250.718 127.312 249.721 126.735 248.589 126.08C249.512 126.6 250.476 127.145 251.758 127.905C252.36 128.234 253.022 128.597 253.395 128.804C254.977 129.762 258.041 131.56 258.462 131.829C262.02 133.873 266.835 136.668 269.083 137.912C270.095 138.491 270.241 138.599 270.616 138.825C270.031 138.493 269.338 138.09 269.02 137.914C271.044 139.072 275.006 141.376 275.498 141.621C278.04 143.111 274.058 140.823 277.558 142.844L277.083 142.581C283.822 146.546 288.135 148.886 295.485 153.214C295.231 153.064 295.081 152.975 295.008 152.928C303.698 157.997 312.942 163.281 321.512 168.302C323.949 169.725 324.22 169.856 325.713 170.702L326.234 171.036L328.789 172.478C332.406 174.545 335.022 176.167 339.605 178.77L339.02 178.409C340.661 179.364 344.223 181.41 343.943 181.273C344.112 181.367 344.487 181.565 345.126 181.946L345.172 181.99L349.211 184.3C352.334 186.121 348.706 184.075 353.267 186.72C354.603 187.489 356.835 188.754 357.414 189.072C357.437 189.127 357.45 189.136 357.446 189.089C357.574 189.159 357.598 189.17 357.473 189.095C357.464 189.09 357.454 189.084 357.445 189.079C357.444 189.068 357.442 189.057 357.439 189.042L357.542 189.097L357.438 189.037C357.438 189.035 357.437 189.031 357.437 189.028C357.502 189.066 357.538 189.087 357.544 189.09L357.535 189.056C357.655 189.11 357.715 189.13 357.52 189.002L357.504 188.942L339.454 178.438L339.642 178.539L339.089 178.226L336.717 176.845C336.791 176.882 337.019 177.009 337.486 177.278C335.772 176.258 335.96 176.406 334.489 175.525C334.327 175.427 334.401 175.468 334.552 175.554L332.868 174.588C333.2 174.771 332.597 174.398 333.628 175.004C330.618 173.227 328.755 172.202 327.629 171.513L327.881 171.657C324.75 169.846 326.07 170.627 325.619 170.386L323.661 169.247L322.228 168.357L321.808 168.145C321.376 167.893 320.523 167.394 320.684 167.475C319.072 166.559 320.954 167.646 320.016 167.122C317.946 165.887 314.283 163.799 313.828 163.482C313.076 163.069 315.811 164.655 313.588 163.379C312.969 162.963 311.021 161.894 309.129 160.768C309.719 161.082 311.514 162.142 309.621 161.014C308.463 160.39 305.927 158.854 304.323 157.93C304.281 157.925 303.409 157.422 302.212 156.726C301.015 156.03 299.492 155.141 298.147 154.365C298.321 154.453 293.097 151.404 290.601 149.938L290.676 149.975C290.182 149.727 287.606 148.22 285.726 147.135C285.806 147.158 286.146 147.346 287.166 147.929L285.401 146.902C284.981 146.67 284.429 146.356 283.283 145.693L283.735 145.926C281.385 144.561 278.995 143.203 275.978 141.427C275.858 141.376 276.994 142.066 276.745 141.943L275.106 140.989C275.162 141.013 275.341 141.108 275.773 141.357C275.499 141.199 274.793 140.799 274.243 140.472L275.526 141.194C274.152 140.383 274.801 140.793 273.701 140.15C273.728 140.145 272.89 139.663 273.053 139.741C273.334 139.903 274.01 140.307 274.434 140.545C273.194 139.82 271.697 138.936 271.206 138.634C271.311 138.707 271.198 138.658 270.289 138.132C267.939 136.766 269.491 137.642 268.124 136.835C267.551 136.517 266.057 135.632 266.009 135.636C265.322 135.236 265.198 135.149 264.935 134.987C263.716 134.292 259.256 131.686 260.617 132.512L260.928 132.695C260.87 132.662 260.801 132.622 260.729 132.581C256.736 130.289 252.456 127.748 248.499 125.459L248.508 125.453C246.145 124.09 243.254 122.402 241.562 121.441C240.864 121.035 239.92 120.466 240.221 120.629C238.415 119.586 238.21 119.478 235.608 117.946C237.427 118.986 234.987 117.568 237.471 119.017C235.129 117.644 234.603 117.321 232.078 115.881C232.942 116.356 230.322 114.825 229.206 114.183L230.843 115.156C229.589 114.43 228.494 113.79 227.382 113.14L227.993 113.46C223.207 110.631 219.323 108.488 215.69 106.301C214.414 105.584 218.29 107.832 217.148 107.197C214.943 105.909 212.657 104.527 211.966 104.125C208.949 102.349 209.132 102.528 205.973 100.676C206.374 100.922 206.747 101.173 204.38 99.808C202.173 98.5186 201.68 98.1827 203.077 98.9854C203.607 99.2926 203.861 99.4448 203.837 99.4354C204.552 99.8467 205.49 100.387 204.619 99.8662L204.329 99.7102C203.237 99.0617 200.199 97.2948 200.917 97.6921C199.492 96.873 199.975 97.162 200.913 97.7143C198.399 96.2379 196.825 95.3367 194.096 93.7371C194.558 94.0128 194.981 94.274 194.52 94.0055C190.248 91.5036 192.631 92.9304 189.732 91.2489C188.091 90.2743 190.334 91.5526 187.413 89.8693C185.635 88.8216 187.044 89.6209 187.755 90.024C185.092 88.4985 182.794 87.1209 181.278 86.2338L182.68 87.0396C181.841 86.5577 181.156 86.1586 180.458 85.7523L181.251 86.2392C180.84 85.9983 180.461 85.7759 180.187 85.6149C179.913 85.4534 179.743 85.352 179.753 85.3521C178.901 84.8734 180.39 85.7655 178.703 84.8069C177.611 84.1583 175.363 82.877 174.993 82.6279C178.09 84.4402 175.317 82.7906 176.85 83.6715C176.439 83.4333 175.98 83.1646 175.467 82.8631C175.344 82.788 175.585 82.925 175.81 83.0542C172.521 81.1096 174.285 82.2048 170.868 80.2154C171.307 80.4516 170.085 79.7237 169.527 79.4025C170.904 80.2043 170.177 79.813 168.91 79.0903C166.723 77.8025 166.526 77.7138 165.379 77.0446L166.687 77.8128C166.238 77.5708 165.143 76.9311 163.614 76.0472C163.575 76.0196 163.694 76.0865 163.861 76.1818C162.269 75.2666 160.367 74.1086 158.267 72.9064C157.175 72.2578 158.17 72.8142 157.21 72.2467C154.554 70.7255 154.347 70.5542 151.556 68.9503C152.352 69.4393 152.494 69.5158 150.526 68.3955L155.11 71.046L152.161 69.3674C153.543 70.1721 155.082 71.0509 155.909 71.5365C154.503 70.7394 154.649 70.8177 155.305 71.2209C153.423 70.0876 151.549 69.058 149.37 67.7635L149.453 67.7482C146.174 65.8114 143.605 64.3777 139.342 61.8804L140.71 62.6879C140.131 62.3763 138.075 61.1575 136.69 60.3619C136.824 60.4187 135.962 59.9094 135.376 59.5548C135.443 59.6099 132.252 57.7357 131.854 57.5462L129.956 56.4138C126.513 54.3985 126.008 54.1766 122.697 52.2426C123.701 52.8037 122.199 51.9146 124.423 53.1922C123.87 52.8702 123.345 52.5647 122.956 52.3381C122.566 52.1125 122.313 51.9674 122.302 51.9686C121.659 51.5813 119.228 50.2082 118.216 49.5993C117.748 49.3359 117.589 49.2661 116.348 48.542C116.269 48.4933 116.286 48.5 116.313 48.5135C116.035 48.3605 114.501 47.4729 115.487 48.0682C112.098 46.0292 105.964 42.5309 103.013 40.7562C100.598 39.3558 97.688 37.6684 95.4958 36.3972C95.638 36.4735 95.5057 36.3924 95.9194 36.6353C92.9019 34.8595 94.0455 35.6058 90.6115 33.5853C88.8632 32.5336 92.4428 34.6325 91.3506 33.9839C90.8917 33.6469 87.1971 31.5762 84.8929 30.1944L85.4544 30.517C83.6915 29.4674 81.1308 28.0273 78.2416 26.3409C78.2416 26.3409 78.3836 26.4174 78.2611 26.3417C76.2751 25.2214 72.5298 23.0537 69.7464 21.4437C70.6186 21.924 71.0135 22.1666 70.4925 21.8358C69.245 21.1137 70.8462 22.0862 68.3561 20.6448C67.5511 20.1612 65.7593 19.1055 65.5289 18.9418L67.8763 20.3062C66.6838 19.5739 64.8381 18.5394 63.603 17.8139L63.7652 17.8916C60.1669 15.8029 60.1062 15.8098 56.2409 13.5574L56.6373 13.8007C54.5141 12.607 54.8722 12.75 52.7568 11.55L52.1301 11.1427C50.7336 10.3402 47.2368 8.33609 44.7348 6.88803C46.1594 7.68553 49.0883 9.37407 50.9035 10.4118C49.5215 9.60711 46.2068 7.68156 45.4816 7.28054C46.0395 7.6012 46.7436 8.00056 47.2918 8.32606C45.5879 7.36782 43.3534 6.08387 40.6002 4.48074C40.7526 4.54477 40.1709 4.19444 39.2283 3.6399C38.7567 3.36384 38.1952 3.03497 37.5904 2.68089C36.9116 2.28502 36.1841 1.86075 35.4601 1.43838C35.5792 1.89487 35.6975 2.34827 35.8048 2.76043C35.7489 2.72792 35.693 2.69539 35.6372 2.66299C35.7812 3.1653 35.9239 3.66432 36.051 4.10894ZM250.794 128.076C250.817 128.088 250.863 128.113 250.886 128.125C250.811 128.088 250.726 128.044 250.577 127.962C249.803 127.52 249.545 127.365 249.441 127.298C249.806 127.508 250.233 127.754 250.794 128.076ZM250.715 127.338C250.737 127.35 250.784 127.375 250.807 127.387C250.732 127.35 250.646 127.305 250.498 127.223C249.723 126.779 249.465 126.624 249.36 126.557C249.726 126.768 250.153 127.014 250.715 127.338ZM204.478 100.65C202.272 99.3655 201.778 99.0306 203.174 99.83C203.704 100.136 203.958 100.288 203.935 100.278C204.378 100.533 204.908 100.837 205.037 100.906C205.983 101.457 207.141 102.13 208.169 102.726C207.649 102.431 207.007 102.062 206.069 101.514C206.47 101.759 206.843 102.01 204.478 100.65ZM194.622 94.8696C190.352 92.3774 192.734 93.799 189.837 92.1242C188.469 91.3145 189.8 92.0654 188.586 91.3641C189.416 91.8201 190.165 92.2265 191.391 92.9357L192.049 93.3623C192.893 93.8506 193.738 94.3418 194.584 94.8338C194.835 94.986 194.943 95.0561 194.622 94.8696ZM166.804 78.7412C166.356 78.5003 165.261 77.8631 163.733 76.9827C163.693 76.9552 163.814 77.0221 163.981 77.1176C163.404 76.7869 162.786 76.4246 162.132 76.0393C163.518 76.8429 164.942 77.6634 166.307 78.4501L166.804 78.7412ZM54.6846 13.7465C55.9982 14.5031 56.5045 14.7974 56.6263 14.8722L56.3491 14.7089C56.4675 14.7788 56.5343 14.8181 56.635 14.8776L56.8093 14.9802C56.8036 14.977 56.7986 14.9741 56.7929 14.971C56.743 14.9414 56.6912 14.9108 56.635 14.8776C56.6647 14.8962 56.6529 14.891 56.6128 14.8698C55.5718 14.2846 55.1814 14.0484 54.7045 13.7643C54.702 13.7609 54.6959 13.7552 54.6846 13.7465ZM92.2811 35.568C92.0116 35.413 91.6894 35.2262 91.2948 34.9958C91.6322 35.1911 91.9613 35.382 92.2811 35.568ZM149.531 68.7247C150.703 69.3986 152.033 70.1494 151.87 70.0895L151.431 69.8344C151.612 69.9478 151.857 70.096 152.148 70.2691C151.304 69.7857 150.428 69.2827 149.497 68.7313L149.531 68.7247ZM177.598 84.98L177.552 84.9724C176.811 84.5437 176.02 84.0877 175.531 83.7977C176.247 84.2082 176.962 84.6192 177.598 84.98ZM204.06 100.336C203.716 100.134 203.289 99.8847 202.862 99.6352C203.465 99.9815 204.067 100.326 204.667 100.668C204.608 100.639 204.506 100.59 204.06 100.336ZM204.452 100.566L204.426 100.552C204.387 100.529 204.346 100.505 204.303 100.479C204.351 100.507 204.401 100.536 204.452 100.566ZM110.857 46.314C109.861 45.7363 108.844 45.148 107.863 44.5801C108.755 45.0895 109.681 45.6197 110.698 46.2056C110.695 46.2098 110.752 46.2482 110.857 46.314ZM357.411 189.501L357.252 189.41C357.217 189.396 357.183 189.381 357.181 189.386L357.413 189.508L357.415 189.514C357.42 189.527 357.424 189.538 357.428 189.548C356.744 189.152 355.746 188.566 355.7 188.523L357.252 189.41C357.27 189.417 357.292 189.426 357.316 189.437C357.349 189.457 357.38 189.475 357.407 189.49L357.411 189.501ZM333.844 175.694C333.947 175.755 334.023 175.801 334.076 175.834L333.067 175.249C333.31 175.388 333.567 175.535 333.844 175.694ZM357.392 189.011L357.233 188.92C357.198 188.906 357.163 188.891 357.162 188.896L357.394 189.019L357.396 189.024C357.4 189.037 357.405 189.048 357.409 189.058C356.724 188.66 355.726 188.072 355.68 188.029L357.233 188.92C357.251 188.927 357.273 188.937 357.297 188.948C357.331 188.967 357.362 188.986 357.389 189.001L357.392 189.011ZM333.815 175.152C333.918 175.213 333.994 175.259 334.047 175.292L333.038 174.704C333.281 174.844 333.538 174.992 333.815 175.152ZM260.739 132.587L260.734 132.584C260.734 132.584 260.734 132.584 260.739 132.587Z" fill="url(#paint1_linear_466_12043)"/>
</g>
<path d="M365.239 195.997L369.886 198.948C369.886 198.948 371.449 200.225 371.486 200.248C371.524 200.272 370.505 201.103 370.505 201.103L369.958 201.71L369.483 201.414L369.099 201.847L369.574 202.142L367.936 203.261L367.56 203.027L367.194 203.288L367.287 203.651L366.369 204.057L365.723 203.838L365.52 204.262L365.693 204.491L361.408 206.528L360.574 206.193L360.591 206.508L362.572 207.74L366.107 206.641L368.267 208.045L368.944 206.921L367.503 206.044L370.823 205.178L371.388 205.529L371.352 205.934L372.913 206.783L373.725 205.436L372.348 204.539L377.236 203.305C377.236 203.305 381.433 205.737 381.538 205.796C382.167 206.154 383.475 206.373 384.248 206.316C384.535 206.295 384.754 206.201 384.864 206.11C384.962 206.03 385.043 205.89 385.025 205.77C384.933 205.125 383.916 203.732 383.316 203.361C383.278 203.338 378.251 200.211 378.251 200.211L377.584 197.05L378.48 197.606L379.2 196.345L377.24 195.126L376.769 191.78L376.811 191.623L377.541 192.077L378.33 190.736L376.483 189.588L376.009 183.493L374.175 182.352L374.339 189.964L373.747 189.657L373.517 190.125L374.298 190.549L374.081 191.941L373.829 191.845L373.534 192.333L374.137 192.708L373.617 194.949L373.159 194.756L372.908 195.179L373.522 195.622L373.245 196.427L372.943 196.239L372.82 196.529L373.122 196.716L373.134 197.212L364.918 192.531L364.033 187.463L363.203 186.947L362.351 189.653L361.398 189.041L361.645 191.168L361.242 190.978L360.825 191.756L361.239 192.014L358.479 194.877L358.249 195.344L359.078 195.86L363.45 194.366L365.239 195.997Z" fill="#B3CBE6"/>
<path d="M361.633 188.598L361.892 190.759L362.32 190.715L362.609 189.221L361.633 188.598Z" fill="#A9C7EE"/>
<path d="M365.04 192.475L364.344 192.71L373.031 198.109C373.031 198.109 373.214 197.823 373.257 197.54C373.29 197.325 373.216 197.131 373.216 197.131L365.04 192.475Z" fill="#A9C7EE"/>
<path d="M378.021 201.305C377.976 201.482 377.875 201.648 377.875 201.648L378.725 202.326C378.725 202.326 382.527 204.831 383.429 205.419C384.215 205.93 384.591 206.311 384.759 206.516C384.805 206.445 384.832 206.362 384.822 206.288C384.729 205.643 383.712 204.249 383.112 203.878C383.074 203.854 378.045 200.727 378.045 200.727C378.045 200.727 378.129 200.88 378.021 201.305Z" fill="#A9C7EE"/>
<path d="M373.853 205.81L372.484 204.918C372.484 204.918 372.364 205.02 372.237 205.066C372.118 205.109 371.956 205.139 371.956 205.139L373.62 206.197L373.853 205.81Z" fill="#A9C7EE"/>
<path d="M369.26 207.232L367.827 206.359C367.827 206.359 367.745 206.44 367.632 206.494C367.512 206.551 367.354 206.562 367.354 206.562L369.015 207.638L369.26 207.232Z" fill="#A9C7EE"/>
<path d="M376.985 195.859L378.749 196.945L378.988 196.526L377.029 195.308C377.029 195.308 377.097 195.608 376.985 195.859Z" fill="#A9C7EE"/>
<path d="M377.769 191.181L378.051 190.701L376.205 189.552C376.205 189.552 376.231 189.844 376.112 190.089L377.769 191.181Z" fill="#A9C7EE"/>
<defs>
<linearGradient id="paint0_linear_466_12043" x1="359.553" y1="190.516" x2="136.263" y2="44.5777" gradientUnits="userSpaceOnUse">
<stop stop-color="#2D7DCC"/>
<stop offset="1" stop-color="white" stop-opacity="0"/>
</linearGradient>
<linearGradient id="paint1_linear_466_12043" x1="362.285" y1="191.195" x2="96.2468" y2="10.1389" gradientUnits="userSpaceOnUse">
<stop offset="0.528846" stop-color="#BBD3EE"/>
<stop offset="1" stop-color="white" stop-opacity="0"/>
</linearGradient>
</defs>
</svg>
