<svg width="42" height="42" viewBox="0 0 42 42" fill="none" xmlns="http://www.w3.org/2000/svg">
<g filter="url(#filter0_d_1131_9508)">
<rect x="2.5" y="0.5" width="37" height="37" rx="18.5" stroke="#ECEBF2"/>
<g clip-path="url(#clip0_1131_9508)">
<path fill-rule="evenodd" clip-rule="evenodd" d="M30.9374 29.5523L27.6575 23.4349C27.511 23.1619 27.2453 23.0029 26.9355 23.0029H25.0223C24.819 23.2614 24.6128 23.5163 24.4058 23.7668C24.44 23.7554 24.4767 23.7492 24.5147 23.7492H26.5354C26.6742 23.7492 26.7939 23.8316 26.8481 23.9501L27.6584 25.3535C27.8824 25.7434 27.2888 26.0845 27.0647 25.6946L26.3386 24.4368H24.5147C24.3248 24.4368 24.1709 24.2829 24.1709 24.093C24.1709 24.0768 24.172 24.0608 24.1742 24.0451C23.46 24.8973 22.7464 25.6948 22.1238 26.4076H23.0583C23.5106 26.4076 23.5106 27.0952 23.0583 27.0952H21.4746C21.1882 27.2729 20.8118 27.2729 20.5254 27.0952H18.9417C18.4894 27.0952 18.4894 26.4076 18.9417 26.4076H19.8762C19.2392 25.6784 18.507 24.8604 17.7762 23.9859C17.8581 24.2078 17.6944 24.4486 17.4536 24.4486H15.6297L14.9035 25.7064C14.8093 25.8703 14.6001 25.9268 14.4362 25.8327C14.2722 25.7385 14.2157 25.5292 14.3099 25.3653L15.1201 23.9619C15.1744 23.8434 15.294 23.761 15.4329 23.761H17.4535C17.5177 23.761 17.5778 23.7787 17.6292 23.8093C17.4105 23.5451 17.1924 23.276 16.9777 23.0029H15.0645C14.7546 23.0029 14.4889 23.1619 14.3425 23.4349L11.0626 29.5523C10.8771 29.8981 11.1261 30.3141 11.5185 30.3141H30.4815C30.8739 30.3141 31.1229 29.8981 30.9374 29.5523ZM21 14.1776C19.8779 14.1776 18.9685 15.087 18.9685 16.2091C18.9685 17.3312 19.8779 18.2406 21 18.2406C22.1221 18.2406 23.0315 17.3312 23.0315 16.2091C23.0315 15.087 22.122 14.1776 21 14.1776ZM21 9.68555C17.3987 9.68555 14.4793 12.605 14.4793 16.2062C14.4793 19.6382 18.4843 23.7169 20.8367 26.4666C20.9225 26.5668 21.0774 26.5668 21.1632 26.4666C23.5157 23.7169 27.5207 19.6382 27.5207 16.2062C27.5207 12.605 24.6013 9.68555 21 9.68555ZM25.3036 16.7915L24.5905 17.066C24.5 17.446 24.3494 17.8089 24.1446 18.1415L24.4549 18.8403L23.6313 19.664L22.9326 19.3537C22.6 19.5586 22.2369 19.7092 21.8568 19.7997L21.5824 20.5127H20.4175L20.143 19.7995C19.763 19.7091 19.4001 19.5584 19.0675 19.3536L18.3687 19.664L17.5449 18.8403L17.8552 18.1417C17.6503 17.809 17.4997 17.4459 17.4092 17.0659L16.6962 16.7915V15.6266L17.4093 15.3521C17.4998 14.9721 17.6504 14.6092 17.8552 14.2766L17.5448 13.5778L18.3685 12.7541L19.0674 13.0645C19.4 12.8597 19.7629 12.709 20.1429 12.6186L20.4174 11.9054H21.5822L21.8567 12.6186C22.2367 12.709 22.5996 12.8597 22.9322 13.0645L23.6311 12.7541L24.4548 13.5778L24.1445 14.2764C24.3494 14.6091 24.5 14.9721 24.5904 15.3522L25.3034 15.6267L25.3036 16.7915Z" fill="#3271BD"/>
</g>
</g>
<defs>
<filter id="filter0_d_1131_9508" x="0" y="0" width="42" height="42" filterUnits="userSpaceOnUse" color-interpolation-filters="sRGB">
<feFlood flood-opacity="0" result="BackgroundImageFix"/>
<feColorMatrix in="SourceAlpha" type="matrix" values="0 0 0 0 0 0 0 0 0 0 0 0 0 0 0 0 0 0 127 0" result="hardAlpha"/>
<feOffset dy="2"/>
<feGaussianBlur stdDeviation="1"/>
<feComposite in2="hardAlpha" operator="out"/>
<feColorMatrix type="matrix" values="0 0 0 0 0 0 0 0 0 0 0 0 0 0 0 0 0 0 0.05 0"/>
<feBlend mode="normal" in2="BackgroundImageFix" result="effect1_dropShadow_1131_9508"/>
<feBlend mode="normal" in="SourceGraphic" in2="effect1_dropShadow_1131_9508" result="shape"/>
</filter>
<clipPath id="clip0_1131_9508">
<rect width="20" height="20" fill="white" transform="translate(11 9)"/>
</clipPath>
</defs>
</svg>
