<svg width="42" height="42" viewBox="0 0 42 42" fill="none" xmlns="http://www.w3.org/2000/svg">
<g filter="url(#filter0_d_1131_9486)">
<rect x="2.5" y="0.5" width="37" height="37" rx="18.5" stroke="#ECEBF2"/>
<g clip-path="url(#clip0_1131_9486)">
<path fill-rule="evenodd" clip-rule="evenodd" d="M13.6958 12.5085C13.6958 10.7094 15.1587 9.24609 16.9572 9.24609C18.7558 9.24609 20.2187 10.7094 20.2187 12.5085C20.2187 14.3071 18.7558 15.7709 16.9572 15.7709C15.1587 15.7709 13.6958 14.3076 13.6958 12.5085ZM16.3116 20.4647H17.6033L18.2185 19.0268H15.6965L16.3116 20.4647ZM17.53 21.0634H16.385L15.898 26.1503L16.7721 28.2992H17.1428L18.0169 26.1503L17.53 21.0634ZM15.2934 26.1663L15.8087 20.8114L15.0449 19.0268H13.9548C11.3983 19.0268 9.31836 21.1068 9.31836 23.6632V28.2992H12.4351V23.4088C12.4351 23.2431 12.5693 23.1094 12.7344 23.1094C12.8996 23.1094 13.0338 23.2436 13.0338 23.4088V28.2992H16.1241L15.3153 26.3075C15.2974 26.2631 15.2889 26.2147 15.2934 26.1663ZM20.6083 23.1908L20.5719 23.1194C20.3499 22.6889 20.4641 22.1376 20.8308 21.8642L23.0495 20.2132C22.1959 19.4454 21.1122 19.0263 19.9612 19.0263H18.8691L18.1072 20.8109L18.6226 26.1658C18.6266 26.2137 18.6186 26.2626 18.6002 26.307L17.7914 28.2987H20.8817V23.5076C20.7709 23.4282 20.6752 23.321 20.6083 23.1908ZM32.0384 22.3446L26.6137 18.3059L21.189 22.3446C21.0568 22.4424 21.0179 22.6764 21.1057 22.845L21.1421 22.9164C21.1786 22.9887 21.2339 23.0381 21.2928 23.0521C21.3397 23.0625 21.3846 23.0516 21.427 23.0196L26.4366 19.2912C26.4875 19.2518 26.5509 19.2319 26.6137 19.2319C26.6771 19.2319 26.74 19.2518 26.7929 19.2912L31.8 23.0196C31.8429 23.0516 31.8878 23.0625 31.9342 23.0521C31.993 23.0381 32.0484 22.9887 32.0868 22.9164L32.1233 22.845C32.2096 22.6764 32.1707 22.4429 32.0384 22.3446ZM30.158 19.1066H29.4471V19.6689L30.158 20.1978V19.1066ZM22.7267 22.7991V29.2461H24.8186V25.2139C24.8186 25.0487 24.9509 24.9145 25.116 24.9145H28.1105C28.2756 24.9145 28.4098 25.0487 28.4098 25.2139V29.2456H30.5018V22.7991L26.6127 19.9049L22.7267 22.7991ZM21.4799 23.6388V28.2992H22.1275V23.2446L21.7852 23.5001C21.69 23.5699 21.5877 23.6163 21.4799 23.6388ZM25.4158 29.2456H27.8116V25.5132H25.4158V29.2456Z" fill="#3271BD"/>
</g>
</g>
<defs>
<filter id="filter0_d_1131_9486" x="0" y="0" width="42" height="42" filterUnits="userSpaceOnUse" color-interpolation-filters="sRGB">
<feFlood flood-opacity="0" result="BackgroundImageFix"/>
<feColorMatrix in="SourceAlpha" type="matrix" values="0 0 0 0 0 0 0 0 0 0 0 0 0 0 0 0 0 0 127 0" result="hardAlpha"/>
<feOffset dy="2"/>
<feGaussianBlur stdDeviation="1"/>
<feComposite in2="hardAlpha" operator="out"/>
<feColorMatrix type="matrix" values="0 0 0 0 0 0 0 0 0 0 0 0 0 0 0 0 0 0 0.05 0"/>
<feBlend mode="normal" in2="BackgroundImageFix" result="effect1_dropShadow_1131_9486"/>
<feBlend mode="normal" in="SourceGraphic" in2="effect1_dropShadow_1131_9486" result="shape"/>
</filter>
<clipPath id="clip0_1131_9486">
<rect width="20" height="20" fill="white" transform="translate(11 9)"/>
</clipPath>
</defs>
</svg>
