<svg xmlns="http://www.w3.org/2000/svg" xmlns:xlink="http://www.w3.org/1999/xlink" id="Layer_1" x="0px" y="0px" viewBox="0 0 4000 4000" style="enable-background:new 0 0 4000 4000;" xml:space="preserve"><g> <rect style="fill:#FFFFFF;" width="4000" height="4000"></rect> <g> <g> <g> <path style="fill:#58557E;" d="M2600.321,3171.285c-6.349-29.474-151.439-54.668-357.405-65.953 c-65.254-138.091-73.725-287.279-59.988-443.614c-121.952-23.233-243.904-23.233-365.854,0 c11.621,132.25,7.338,259.384-33.724,379.022l0,0c-3.402,9.91-7.11,19.758-11.006,29.567c-1.571,3.927-3.139,7.854-4.796,11.765 c-1.328,3.156-2.685,6.306-4.069,9.448c-2.047,4.62-4.221,9.217-6.393,13.812c-205.966,11.285-351.056,36.479-357.407,65.953 l-0.225,124.631c0,61.03,1201.095,61.03,1201.095,0L2600.321,3171.285z"></path> <path style="fill:#58557E;" d="M2600.546,3295.913c0,61.029-1201.095,61.029-1201.095,0l0.202-110.834l0.021-13.797 c6.351-29.467,151.449-54.667,357.406-65.954c2.181-4.585,4.351-9.191,6.393-13.808c1.394-3.138,2.745-6.287,4.074-9.446 c1.66-3.915,3.223-7.84,4.798-11.765c3.893-9.808,7.606-19.659,10.999-29.573c34.626-100.888,43.104-207.116,37.924-317.26 c-0.947-20.456-2.372-41.041-4.191-61.752c1.862-0.351,3.723-0.702,5.574-1.053c118.238-21.829,236.466-21.829,354.704,0 c1.851,0.351,3.713,0.702,5.574,1.053c-1.819,20.669-3.245,41.221-4.202,61.635c-6.308,133.961,7.563,262.146,64.188,381.969 c205.968,11.286,351.056,36.487,357.406,65.954l0.021,13.797L2600.546,3295.913z"></path> <path style="fill:#434275;" d="M2600.344,3185.078c-17.095,59.273-1183.596,59.273-1200.691,0l0.021-13.797 c6.351-29.467,151.449-54.667,357.406-65.954c2.181-4.585,4.351-9.191,6.393-13.808c1.394-3.138,2.745-6.287,4.074-9.446 c1.66-3.915,3.223-7.84,4.798-11.765c3.893-9.808,7.606-19.659,10.999-29.573c34.626-100.888,43.104-207.116,37.924-317.26 c1.106-20.776,1.532-41.711,1.383-62.805c118.238-21.829,236.466-21.829,354.704,0c-0.149,21.052,0.277,41.955,1.372,62.688 c-6.308,133.961,7.563,262.146,64.188,381.969c205.968,11.286,351.056,36.487,357.406,65.954L2600.344,3185.078z"></path> <path style="opacity:0.2;fill:#22203C;" d="M2586.213,3176.307c-6.22-28.869-148.329-53.544-350.064-64.597 c-63.912-135.253-72.432-290.063-58.978-443.184c-116.7-22.233-344.612-0.523-341.866,0 c-13.456,153.121,171.64,80.689,235.554,215.944c51.788,87.391,55.301,133.483,59.91,226.889 c4.438,89.942-319.416-9.565-303.699,221.438c338.275,7.017,759.143-7.349,759.143-43.104v-122.07V3176.307z"></path> <path style="fill:#22203C;" d="M2412.264,3137.533c289.458,52.176-375.908,60.375-420.442,60.234 c-36.161,0.708-730.915-10.732-411.255-60.674c-194.47,21.356-11.333,51,89.575,48.18l321.671,5.853 C2039.445,3190.61,2692.573,3191.652,2412.264,3137.533L2412.264,3137.533z"></path> <path style="fill:#FFFFFF;" d="M1825.548,2684.617c31.401,138.481,12.666,285.267-40.608,415.874 C1831.029,2967.489,1849.497,2824.003,1825.548,2684.617C1825.548,2684.617,1849.497,2824.003,1825.548,2684.617z"></path> <path style="opacity:0.2;fill:#FFFFFF;" d="M1868.197,2811.581c0,0,80.12,9.744,119.097,68.209 c38.976,58.465,46.058,211.437,46.058,211.437l-226.284-6.495C1807.069,3084.731,1862.24,2963.356,1868.197,2811.581z"></path> </g> <g> <g> <path style="fill:#58557E;" d="M786.521,2701.606h2535.533c69.69,0,126.185-47.403,126.185-105.888V1143.285 c0-58.487-56.494-105.888-126.185-105.888H786.521c-69.702,0-126.196,47.402-126.196,105.888v1452.433 C660.324,2654.203,716.818,2701.606,786.521,2701.606z"></path> <path style="fill:#AEBFF5;" d="M3322.054,2704.923H786.521c-71.415,0-129.513-48.991-129.513-109.205V1143.286 c0-60.219,58.099-109.21,129.513-109.21h2535.533c71.406,0,129.5,48.991,129.5,109.21v1452.432 C3451.554,2655.932,3393.46,2704.923,3322.054,2704.923z M786.521,1040.712c-67.756,0-122.88,46.014-122.88,102.575v1452.432 c0,56.558,55.123,102.572,122.88,102.572h2535.533c67.75,0,122.866-46.014,122.866-102.572V1143.286 c0-56.561-55.117-102.575-122.866-102.575H786.521z"></path> </g> </g> <g> <g> <defs> <path id="SVGID_1_" d="M922.443,2644.294c-5.109,0-10.164-0.17-15.18-0.506c-99.101-6.557-176.733-77.77-176.733-162.119 v-1224.34c0-84.356,77.632-155.569,176.743-162.13c5.016-0.326,10.066-0.498,15.17-0.498l2266.018,0.01 c104.517,1.048,189.569,73.997,189.569,162.618v1224.34c0,88.619-85.052,161.568-189.603,162.616l-2.296,0.01H922.443z"></path> </defs> <clipPath id="SVGID_00000178924750402580490730000000393214114738938534_"> <use xlink:href="#SVGID_1_" style="overflow:visible;"></use> </clipPath> <path style="clip-path:url(#SVGID_00000178924750402580490730000000393214114738938534_);fill:#99CCFF;" d="M922.443,2644.294 c-5.109,0-10.164-0.17-15.18-0.506c-99.101-6.557-176.733-77.77-176.733-162.119v-1224.34 c0-84.356,77.632-155.569,176.743-162.13c5.016-0.326,10.066-0.498,15.17-0.498l2266.018,0.01 c104.517,1.048,189.569,73.997,189.569,162.618v1224.34c0,88.619-85.052,161.568-189.603,162.616l-2.296,0.01H922.443z"></path> <polygon style="opacity:0.2;clip-path:url(#SVGID_00000178924750402580490730000000393214114738938534_);fill:#FFFFFF;" points=" 1692.701,421.898 -270.689,2385.289 1975.256,599.284 "></polygon> <polygon style="opacity:0.2;clip-path:url(#SVGID_00000178924750402580490730000000393214114738938534_);fill:#FFFFFF;" points=" 2616.2,738.328 324.905,2980.883 2945.944,940.935 "></polygon> <polygon style="opacity:0.2;clip-path:url(#SVGID_00000178924750402580490730000000393214114738938534_);fill:#FFFFFF;" points=" 3505.526,738.328 1796.812,2211.578 3751.43,871.432 "></polygon> <polygon style="opacity:0.2;clip-path:url(#SVGID_00000178924750402580490730000000393214114738938534_);fill:#FFFFFF;" points=" 3505.526,1563.899 1796.812,3037.147 3751.43,1697.001 "></polygon> </g> </g> </g> <g> <g> <g> <ellipse transform="matrix(0.9999 -0.01 0.01 0.9999 -21.8771 7.0676)" style="fill:#FF6600;" cx="695.924" cy="2191.545" rx="99.681" ry="99.683"></ellipse> <path style="fill:#FFCC00;" d="M635.36,2191.545c0-33.449,27.115-60.564,60.564-60.564c33.447,0,60.563,27.115,60.563,60.564 c0,33.448-27.115,60.563-60.563,60.563C662.475,2252.108,635.36,2224.993,635.36,2191.545z"></path> </g> <g> <ellipse transform="matrix(0.7071 -0.7071 0.7071 0.7071 -1069.2819 1801.6156)" style="fill:#FF6600;" cx="1640.101" cy="2191.545" rx="99.683" ry="99.683"></ellipse> <path style="fill:#FFCC00;" d="M1579.539,2191.545c0-33.449,27.115-60.564,60.563-60.564c33.449,0,60.564,27.115,60.564,60.564 c0,33.448-27.115,60.563-60.564,60.563C1606.654,2252.108,1579.539,2224.993,1579.539,2191.545z"></path> </g> </g> <g> <g> <g> <path style="fill:#CC9999;" d="M793.123,3370.628l-150.681-835.188l-145.01,835.188H415.88l185.133-1082.797 c3.404-19.817,20.558-34.312,40.664-34.369c0.037,0,0.077,0,0.115,0c20.055,0,37.229,14.39,40.733,34.15l192.07,1083.015 H793.123z"></path> </g> <g> <path style="fill:#CC9999;" d="M1838.675,3370.628l-150.683-835.188l-145.01,835.188h-81.552l185.133-1082.797 c3.403-19.817,20.56-34.312,40.665-34.369c0.036,0,0.078,0,0.115,0c20.057,0,37.231,14.39,40.733,34.15l192.07,1083.015 H1838.675z"></path> </g> </g> <g> <g> <rect x="404.595" y="2434.189" style="fill:#FFCC00;" width="1526.835" height="447.205"></rect> <path style="opacity:0.2;fill:#FFFFFF;" d="M1729.907,2548.922c0,35.485-245.023,155.837-547.273,155.837 c-302.252,0-547.274-120.352-547.274-155.837c0-35.483,245.023-64.25,547.274-64.25 C1484.884,2484.672,1729.907,2513.438,1729.907,2548.922z"></path> <g> <path d="M957.553,2506.45v68.443c0,24.888,10.889,35.777,26.444,35.777c17.111,0,28-10.889,28-35.777v-68.443h14.777v66.887 c0,35.776-18.665,49.777-43.555,49.777c-23.331,0-41.221-12.445-41.221-48.221v-68.443H957.553z"></path> <path d="M1046.217,2621.558V2506.45h15.555l37.333,59.11c8.556,12.443,14.777,24.888,20.221,37.332l0.778-1.556 c-1.554-14.001-2.332-28-2.332-46.665v-48.221h13.999v115.108h-14.777l-36.555-57.554 c-7.778-13.999-15.555-26.444-20.999-38.888h-0.778c0.778,14.001,1.556,28,1.556,48.221v48.221H1046.217z"></path> <path d="M1150.438,2508.006c8.555-1.556,19.444-1.556,31.11-1.556c20.999,0,36.554,4.667,46.665,13.999 c10.111,9.333,16.333,21.777,16.333,40.444c0,18.666-6.222,34.22-17.111,45.109c-10.111,10.889-28,17.111-50.555,17.111 c-10.111,0-19.443-1.556-26.442-1.556V2508.006z M1165.215,2609.113c3.11,1.556,8.555,1.556,14.777,1.556 c31.888,0,48.999-17.111,48.999-48.221c0-27.998-15.555-45.109-46.667-45.109c-7.777,0-13.221,1.554-17.109,1.554V2609.113z"></path> <path d="M1316.099,2567.114h-44.333v41.999h49.777v12.445h-64.554V2506.45h61.444v12.443h-46.667v37.333h44.333V2567.114z"></path> <path d="M1334.764,2508.006c7-1.556,17.889-1.556,28-1.556c16.333,0,26.444,3.111,33.444,9.333 c5.444,4.667,8.555,12.445,8.555,21.777c0,13.999-9.333,24.888-21,29.554c8.557,3.112,13.999,10.889,16.333,23.333 c3.888,15.555,7.001,26.444,9.333,31.11h-15.555c-1.554-3.11-4.666-12.445-7.777-28 c-3.112-15.555-9.334-21.777-22.555-21.777h-13.999v49.777h-14.779V2508.006z M1349.543,2560.893h14.777 c15.555,0,25.666-9.334,25.666-21.777c0-15.555-10.11-21.778-26.444-21.778c-7,0-11.667,0-13.999,1.554V2560.893z"></path> <path d="M721.115,2756.887c-5.444,1.556-16.333,4.667-30.332,4.667c-32.666,0-56.776-20.221-56.776-57.554 c0-35.776,24.11-60.664,59.886-60.664c14.001,0,23.333,3.11,27.222,4.667l-3.888,12.445 c-5.444-3.112-13.223-4.668-22.555-4.668c-27.222,0-45.109,17.111-45.109,46.667c0,29.554,16.333,46.665,44.331,46.665 c8.556,0,17.889-1.556,24.111-4.666L721.115,2756.887z"></path> <path d="M829.224,2700.889c0,40.443-24.111,60.664-53.666,60.664c-30.332,0-51.331-23.332-51.331-57.554 c0-37.333,22.554-60.664,52.886-60.664C809.001,2643.335,829.224,2666.667,829.224,2700.889z M739.782,2703.999 c0,23.333,13.221,45.111,36.555,45.111c23.332,0,36.555-20.221,36.555-46.665c0-23.333-11.667-46.667-36.555-46.667 C752.225,2655.778,739.782,2677.555,739.782,2703.999z"></path> <path d="M840.889,2759.999v-115.108h15.555l37.332,59.108c8.556,12.445,14.777,24.889,20.221,37.333l0.778-1.554 c-1.554-14.001-2.332-28-2.332-46.667v-48.219h13.999v115.108h-14.777l-36.554-57.554 c-7.778-14.001-15.555-26.444-20.999-38.888h-0.778c0.778,13.999,1.556,28,1.556,46.665v49.777H840.889z"></path> <path d="M943.554,2741.332c7,4.666,16.333,7.778,26.444,7.778c15.555,0,24.11-7.778,24.11-18.667 c0-10.889-6.222-17.11-21.777-23.332c-18.665-6.222-30.332-17.111-30.332-32.666c0-17.111,14.777-31.11,37.332-31.11 c11.667,0,20.221,3.11,25.666,6.222l-4.666,10.889c-3.888-1.556-10.888-4.668-21.777-4.668 c-15.555,0-20.999,9.334-20.999,17.111c0,10.889,6.222,15.555,22.555,21.777c19.443,7.778,28.776,17.111,28.776,34.222 c0,17.109-12.443,32.665-39.665,32.665c-10.889,0-23.333-3.11-29.554-7.777L943.554,2741.332z"></path> <path d="M1046.217,2657.334h-34.999v-12.443h84.776v12.443h-34.998v102.665h-14.779V2657.334z"></path> <path d="M1102.995,2646.445c6.999-1.554,17.887-1.554,27.998-1.554c16.333,0,26.444,3.11,33.444,9.333 c5.445,4.667,8.555,12.443,8.555,21.778c0,13.999-9.333,24.888-21,29.554c8.556,3.11,14.001,10.889,16.333,23.333 c3.889,15.555,7,26.444,9.333,31.11h-15.555c-1.554-3.112-4.666-12.445-7.777-28c-3.112-15.555-9.333-21.777-22.555-21.777 h-13.999v49.777h-14.777V2646.445z M1117.772,2699.333h14.777c15.555,0,25.666-9.333,25.666-21.778 c0-15.555-10.111-21.777-26.444-21.777c-7,0-11.667,1.556-13.999,1.556V2699.333z"></path> <path d="M1203.324,2644.891v68.442c0,24.888,10.889,35.777,26.444,35.777c17.111,0,28-10.889,28-35.777v-68.442h14.777 v66.886c0,35.777-18.665,49.776-43.553,49.776c-23.333,0-41.222-12.443-41.222-48.22v-68.442H1203.324z"></path> <path d="M1372.097,2756.887c-5.444,1.556-16.333,4.667-30.332,4.667c-32.666,0-56.776-20.221-56.776-57.554 c0-35.776,24.11-60.664,59.888-60.664c13.999,0,23.332,3.11,27.22,4.667l-3.888,12.445 c-5.444-3.112-13.221-4.668-22.555-4.668c-27.22,0-45.109,17.111-45.109,46.667c0,29.554,16.333,46.665,44.333,46.665 c8.555,0,17.887-1.556,24.11-4.666L1372.097,2756.887z"></path> <path d="M1409.43,2657.334h-34.999v-12.443h84.776v12.443h-35v102.665h-14.777V2657.334z"></path> <path d="M1481.762,2644.891v115.108h-14.779v-115.108H1481.762z"></path> <path d="M1603.09,2700.889c0,40.443-24.11,60.664-53.664,60.664c-30.334,0-51.333-23.332-51.333-57.554 c0-37.333,22.556-60.664,52.888-60.664C1582.869,2643.335,1603.09,2666.667,1603.09,2700.889z M1513.648,2703.999 c0,23.333,13.223,45.111,36.556,45.111c23.332,0,37.331-20.221,37.331-46.665c0-23.333-12.443-46.667-37.331-46.667 C1526.093,2655.778,1513.648,2677.555,1513.648,2703.999z"></path> <path d="M1614.757,2759.999v-115.108h15.555l37.333,59.108c8.556,12.445,14.777,24.889,20.221,37.333l0.778-1.554 c-1.556-14.001-2.332-28-2.332-46.667v-48.219h13.999v115.108h-14.777l-36.555-57.554 c-7.778-14.001-15.555-26.444-20.999-38.888h-0.778c0.778,13.999,1.556,28,1.556,46.665v49.777H1614.757z"></path> </g> <g> <g> <path d="M468.496,2484.672c0,10.176-8.248,18.424-18.424,18.424c-10.176,0-18.426-8.248-18.426-18.424 s8.25-18.426,18.426-18.426C460.247,2466.247,468.496,2474.497,468.496,2484.672z"></path> <path d="M468.496,2830.91c0,10.176-8.248,18.426-18.424,18.426c-10.176,0-18.426-8.25-18.426-18.426 c0-10.176,8.25-18.424,18.426-18.424C460.247,2812.487,468.496,2820.735,468.496,2830.91z"></path> </g> <g> <path d="M1904.379,2484.672c0,10.176-8.25,18.424-18.426,18.424s-18.424-8.248-18.424-18.424s8.248-18.426,18.424-18.426 S1904.379,2474.497,1904.379,2484.672z"></path> <path d="M1904.379,2830.91c0,10.176-8.25,18.426-18.426,18.426s-18.424-8.25-18.424-18.426 c0-10.176,8.248-18.424,18.424-18.424S1904.379,2820.735,1904.379,2830.91z"></path> </g> </g> <path style="fill:#FFFFFF;" d="M516.27,2451.878c424.778-20.699,855.765-20.868,1280.541-0.005 C1372.037,2472.746,941.05,2472.577,516.27,2451.878L516.27,2451.878z"></path> <path style="opacity:0.1;fill:#663333;" d="M1920.146,2855.183v-403.305c-97.041,132.944-293.664,232.048-581.377,300.201 c-89.967,21.309-183.682,22.594-273.952,2.609c-240.858-53.322-470.805-145.132-614.746-251.592l-0.001,346.24h173.913 c-67.091,4.468-136.442,8.168-208.103,11.085L1920.146,2855.183z"></path> </g> <g> <defs> <rect id="SVGID_00000181053841252546645360000003187149704405276554_" x="404.595" y="2933.818" width="1526.835" height="177.891"></rect> </defs> <clipPath id="SVGID_00000108281524101993819070000009302845354162288518_"> <use xlink:href="#SVGID_00000181053841252546645360000003187149704405276554_" style="overflow:visible;"></use> </clipPath> <g style="clip-path:url(#SVGID_00000108281524101993819070000009302845354162288518_);"> <rect x="404.595" y="2933.818" style="fill:#FFCC00;" width="1526.835" height="177.891"></rect> <g> <rect x="477.422" y="2683.795" transform="matrix(0.7071 -0.7071 0.7071 0.7071 -1987.3916 1247.5332)" width="69.58" height="677.938"></rect> <rect x="711.195" y="2683.795" transform="matrix(0.7071 -0.7071 0.7071 0.7071 -1918.921 1412.8358)" width="69.58" height="677.938"></rect> <rect x="944.969" y="2683.795" transform="matrix(0.7071 -0.7071 0.7071 0.7071 -1850.4535 1578.1442)" width="69.58" height="677.938"></rect> <rect x="1178.742" y="2683.795" transform="matrix(0.7071 -0.7071 0.7071 0.7071 -1781.9827 1743.4473)" width="69.58" height="677.938"></rect> <rect x="1412.516" y="2683.795" transform="matrix(0.7071 -0.7071 0.7071 0.7071 -1713.5118 1908.7502)" width="69.58" height="677.938"></rect> <rect x="1646.289" y="2683.795" transform="matrix(0.7071 -0.7071 0.7071 0.7071 -1645.041 2074.0532)" width="69.58" height="677.938"></rect> <rect x="1880.063" y="2683.795" transform="matrix(0.7071 -0.7071 0.7071 0.7071 -1576.5709 2239.3599)" width="69.58" height="677.938"></rect> </g> </g> </g> <g> <defs> <rect id="SVGID_00000085222451767989081080000009015024277035141015_" x="404.595" y="2203.873" width="1526.835" height="177.891"></rect> </defs> <clipPath id="SVGID_00000033370851623444983730000012910204245623604650_"> <use xlink:href="#SVGID_00000085222451767989081080000009015024277035141015_" style="overflow:visible;"></use> </clipPath> <g style="clip-path:url(#SVGID_00000033370851623444983730000012910204245623604650_);"> <rect x="404.595" y="2203.873" style="fill:#FFCC00;" width="1526.835" height="177.891"></rect> <g> <rect x="477.422" y="1953.85" transform="matrix(0.7071 -0.7071 0.7071 0.7071 -1471.243 1033.7378)" width="69.58" height="677.938"></rect> <rect x="711.195" y="1953.85" transform="matrix(0.7071 -0.7071 0.7071 0.7071 -1402.7726 1199.0404)" width="69.58" height="677.938"></rect> <rect x="944.969" y="1953.85" transform="matrix(0.7071 -0.7071 0.7071 0.7071 -1334.304 1364.3478)" width="69.58" height="677.938"></rect> <rect x="1178.742" y="1953.85" transform="matrix(0.7071 -0.7071 0.7071 0.7071 -1265.8331 1529.6508)" width="69.58" height="677.938"></rect> <rect x="1412.516" y="1953.85" transform="matrix(0.7071 -0.7071 0.7071 0.7071 -1197.3623 1694.9537)" width="69.58" height="677.938"></rect> <rect x="1646.289" y="1953.85" transform="matrix(0.7071 -0.7071 0.7071 0.7071 -1128.8914 1860.2567)" width="69.58" height="677.938"></rect> <rect x="1880.063" y="1953.85" transform="matrix(0.7071 -0.7071 0.7071 0.7071 -1060.4208 2025.5629)" width="69.58" height="677.938"></rect> </g> </g> </g> </g> </g> </g> <g> <g> <path style="fill:#FFCC00;" d="M3510.579,1382.423c-1.107,2.019-2.114,3.855-3.394,5.781l-715.824-396.325 c0.936-2.116,1.942-3.952,3.05-5.969c7.052-12.85,14.549-25.693,22.287-38.159c108.274-176.032,275.846-302.718,504.151-209.343 c19.722,7.808,39.941,17.568,60.419,28.904c14.625,8.098,28.262,16.366,41.151,25.179 c216.963,144.294,201.11,360.007,108.384,550.631C3524.441,1356.352,3517.631,1369.575,3510.579,1382.423z"></path> </g> <g> <path style="fill:#E8BE0F;" d="M2927.205,956.521c-7.453,13.582-14.119,27.363-19.996,41.342 c-6.812,16.092-12.39,32.388-17.078,48.701c-7.299,25.156-12.203,50.442-14.437,75.771l24.604,13.622 c1.719-25.614,5.932-51.281,12.89-76.627c4.343-16.505,9.924-32.799,16.734-48.893c5.534-14.167,12.2-27.948,19.654-41.531 c96.607-176.03,303.076-250.547,472.844-176.415C3220.198,633.438,3009.91,805.821,2927.205,956.521z"></path> <path style="fill:#E8BE0F;" d="M2960.381,1085.459c-5.912,25.476-12.203,50.442-14.437,75.771l24.606,13.623 c1.719-25.614,5.932-51.282,12.889-76.628c4.343-16.503,9.924-32.799,16.734-48.893c5.534-14.167,12.2-27.948,19.654-41.531 c96.607-176.03,303.076-250.547,472.844-176.415C3349.492,636.102,3028.435,792.234,2960.381,1085.459z"></path> <path style="fill:#E8BE0F;" d="M3461.351,816.198c-152.92-14.062-310.938,67.415-393.643,218.114 c-7.456,13.583-14.119,27.363-19.997,41.341c-6.812,16.091-12.391,32.39-17.079,48.701 c-7.299,25.156-12.203,50.442-14.437,75.771l24.604,13.624c1.721-25.616,5.934-51.283,12.889-76.629 c4.345-16.503,9.924-32.799,16.735-48.891c5.536-14.169,12.199-27.95,19.655-41.532 c96.606-176.029,351.421-231.788,446.555-145.078c11.577,10.55-20.716-59.755-35.342-67.853 C3480.815,822.427,3481.074,824.007,3461.351,816.198z"></path> <g> <path style="fill:#FFFFFF;" d="M2907.425,1009.115c74.275-160.46,219.895-292.741,396.823-267.736 C3126.054,724.258,2988.654,851.285,2907.425,1009.115L2907.425,1009.115z"></path> <path style="fill:#FFFFFF;" d="M2982.195,1019.482c74.276-160.46,219.896-292.742,396.824-267.738 C3200.823,734.625,3063.424,861.651,2982.195,1019.482L2982.195,1019.482z"></path> <path style="fill:#FFFFFF;" d="M3049.914,1080.375c67.69-175.209,275.718-305.237,448.116-240.893 c-42.398-14.419-88.329-17.169-133.088-10.577C3230.166,850.524,3106.722,949.797,3049.914,1080.375L3049.914,1080.375z"></path> </g> </g> <path style="fill:#FFFFFF;" d="M3518.499,901.442c87.853,90.312,70.354,242.963,9.573,350.849 C3566.4,1134.783,3584.829,1005.696,3518.499,901.442L3518.499,901.442z"></path> <path style="opacity:0.2;fill:#996600;" d="M2818.474,987.409c0,0,623.937,277.067,725.394,268.738 c12.593,3.074-41.119,108.894-41.119,108.894S2861.003,1134.602,2818.474,987.409z"></path> <path style="fill:#CE2C1B;" d="M3548.354,1352.841c-14.921,38.574-32.217,110.926-70.785,104.559 c-163.834-27.044-622.47-278.61-777.038-417.126c-29.061-26.046,91.662-59.255,116.167-92.522 C3044.477,1123.048,3279.17,1252.99,3548.354,1352.841z"></path> <path style="fill:#FFFFFF;" d="M2818.474,987.409c205.341,132.684,417.346,258.997,649.612,345.343 C3228.955,1263.705,3012.195,1134.748,2818.474,987.409L2818.474,987.409z"></path> </g> </g></g></svg>